<svg width="23" height="24" viewBox="0 0 23 24" fill="none" xmlns="http://www.w3.org/2000/svg">
<g clip-path="url(#clip0_894_28039)">
<path d="M18.5833 2.23438C18.0058 2.91397 17.7361 4.4456 18.3224 5.99639C18.9077 7.5483 19.8062 7.21132 20.3658 8.79366C21.1049 10.8809 20.7605 13.6861 20.7605 13.6861C20.7605 13.6861 21.6489 16.2861 22.2676 13.5238C23.6366 8.33722 18.5833 3.51242 18.5833 2.23438Z" fill="url(#paint0_radial_894_28039)"/>
<path d="M11.5334 23.7717C17.4495 23.7717 22.242 18.8996 22.242 12.8937C22.242 6.88775 17.4495 2.01562 11.539 2.01562C5.62849 2.01562 0.836079 6.88663 0.836079 12.8937C0.824931 18.9064 5.62291 23.7717 11.5334 23.7717Z" fill="url(#paint1_radial_894_28039)"/>
<path d="M19.5576 19.6005C19.3257 19.7662 19.0827 19.9138 18.8308 20.0434C19.1652 19.5487 19.474 19.0359 19.7549 18.5073C19.9834 18.2515 20.1919 18.0035 20.3625 17.7353C20.445 17.6034 20.5386 17.4411 20.6378 17.2518C21.2387 16.1563 21.902 14.3846 21.9209 12.5645V12.56C21.9209 12.5149 21.922 12.4698 21.9209 12.4259C21.9243 11.9694 21.8774 11.513 21.7827 11.0667C21.7872 11.1016 21.7916 11.1365 21.7961 11.1715C21.7905 11.1444 21.786 11.1174 21.7805 11.0903C21.7894 11.1399 21.7961 11.1884 21.8039 11.2357C21.9265 12.2895 21.8395 13.3185 21.4014 14.0758C21.3948 14.0871 21.3869 14.0972 21.3803 14.1085C21.6077 12.9567 21.6835 11.6843 21.4304 10.4107C21.4304 10.4107 21.329 9.792 20.5765 7.91212C20.144 6.83018 19.3748 5.94321 18.6948 5.29742C18.0995 4.55246 17.5577 4.05206 17.2601 3.73537C16.6369 3.07268 16.376 2.57566 16.269 2.25107C16.1765 2.20374 14.987 1.03614 14.8923 0.992188C14.3728 1.8059 12.7408 4.3496 13.5178 6.72762C13.87 7.80506 14.7596 8.92306 15.6905 9.55082C15.7317 9.59815 16.2445 10.1617 16.4886 11.4329C16.7406 12.7459 16.6079 13.7704 16.0895 15.2862C15.4798 16.6161 13.9169 17.9303 12.4532 18.0644C9.3251 18.3518 8.17912 16.4764 8.17912 16.4764C9.29723 16.9283 10.5324 16.8337 11.2849 16.3648C12.0429 15.8915 12.5011 15.5398 12.8723 15.6785C13.2391 15.8159 13.5311 15.4159 13.2692 15.0011C12.8556 14.3576 12.102 14.0251 11.354 14.1581C10.5959 14.2832 9.90144 14.8895 8.90706 14.3024C8.84241 14.2652 8.77998 14.2235 8.7209 14.1784C8.65512 14.1344 8.93382 14.2449 8.86916 14.1953C8.6763 14.0893 8.33407 13.8572 8.24489 13.7749C8.2304 13.7614 8.39538 13.8279 8.37978 13.8144C7.45117 13.0412 7.56711 12.5183 7.59609 12.1903C7.6195 11.9277 7.78783 11.5919 8.0721 11.4555C8.20921 11.531 8.29505 11.5896 8.29505 11.5896C8.29505 11.5896 8.23597 11.469 8.20476 11.4048C8.2159 11.4003 8.22594 11.4014 8.23708 11.3969C8.34968 11.4521 8.59827 11.5941 8.72981 11.6809C8.90037 11.8026 8.955 11.9108 8.955 11.9108C8.955 11.9108 8.99959 11.886 8.96615 11.7801C8.95388 11.7361 8.9026 11.5986 8.73316 11.4589L8.74319 11.46C8.84464 11.5186 8.94051 11.5851 9.02969 11.6606C9.07762 11.4859 9.16346 11.3022 9.14451 10.9754C9.13336 10.7455 9.13782 10.6857 9.09769 10.5967C9.06202 10.5201 9.11775 10.4908 9.18018 10.5696C9.16903 10.5077 9.1512 10.4468 9.12667 10.3893V10.3837C9.20471 10.1098 10.7732 9.39641 10.8869 9.31301C11.0742 9.1789 11.2314 9.00646 11.3484 8.80585C11.4354 8.66498 11.5011 8.46775 11.5167 8.16908C11.5257 7.95382 11.4265 7.80956 9.84013 7.64164C9.40648 7.59881 9.15231 7.28099 9.00739 6.98796C8.98064 6.92485 8.95388 6.86737 8.92713 6.80989C8.90149 6.7434 8.88031 6.67465 8.86582 6.60477C9.12556 5.85192 9.56032 5.21515 10.2013 4.73391C10.2359 4.70123 10.062 4.7418 10.0965 4.71024C10.1378 4.67305 10.4031 4.56486 10.4533 4.54006C10.5146 4.51076 10.1913 4.37214 9.90479 4.40595C9.61383 4.43863 9.5514 4.4747 9.39645 4.54119C9.46111 4.47582 9.66622 4.3913 9.61829 4.3913C9.30392 4.43976 8.91487 4.62459 8.58043 4.83309C8.57932 4.79702 8.58712 4.76096 8.6005 4.72715C8.44555 4.79364 8.06318 5.063 7.95282 5.29179C7.95728 5.24783 7.95951 5.20388 7.95951 5.15993C7.84134 5.26023 7.73432 5.37293 7.64068 5.49691L7.63511 5.50254C6.73437 5.13513 5.94065 5.11146 5.26956 5.27601C5.12241 5.12724 5.05106 5.23544 4.71663 4.49385C4.69433 4.44877 4.73447 4.53781 4.71663 4.49385C4.66201 4.3496 4.75007 4.68545 4.71663 4.49385C4.15478 4.94241 3.41569 5.44957 3.06119 5.80797C3.05673 5.82262 3.47477 5.6885 3.06119 5.80797C2.91627 5.84967 2.9263 5.93645 2.90401 6.72311C2.89844 6.78284 2.90289 6.84934 2.89844 6.90343C2.61528 7.26859 2.42243 7.5774 2.34885 7.73743C1.98209 8.37646 1.57854 9.37162 1.18726 10.9461C1.36005 10.5189 1.5674 10.1076 1.8093 9.71649C1.48379 10.5527 1.16942 11.8646 1.10699 13.8854C1.18614 13.4684 1.28647 13.0559 1.4091 12.6501C1.33218 14.3272 1.61868 16.0008 2.24741 17.5538C2.47259 18.1106 2.84493 18.9547 3.47812 19.8811C5.4691 21.9988 8.27722 23.3174 11.3874 23.3174C14.6381 23.3174 17.5544 21.8816 19.5576 19.6005Z" fill="url(#paint2_linear_894_28039)"/>
<path d="M17.1553 21.135C21.0849 20.6751 22.8239 16.5818 20.5899 16.5006C18.5722 16.4364 15.2936 21.3525 17.1553 21.135Z" fill="url(#paint3_radial_894_28039)"/>
<path d="M20.873 15.6672C23.5764 14.0769 22.8718 10.6406 22.8718 10.6406C22.8718 10.6406 21.8284 11.8657 21.1194 13.8188C20.4193 15.7528 19.2477 16.6274 20.873 15.6672Z" fill="url(#paint4_radial_894_28039)"/>
<path d="M12.2904 23.1703C16.0594 24.3863 19.2989 21.384 17.3024 20.382C15.4864 19.4782 10.5023 22.5955 12.2904 23.1703Z" fill="url(#paint5_radial_894_28039)"/>
<path d="M21.1539 17.1285C21.2453 16.9978 21.3691 16.5785 21.4795 16.3915C22.145 15.305 22.1494 14.4395 22.1494 14.4203C22.5519 12.3905 22.5151 11.5622 22.2676 10.0294C22.0681 8.79531 21.1985 7.02701 20.4449 6.17611C19.6679 5.29928 20.2153 5.58442 19.4628 4.94427C18.804 4.20494 18.1641 3.4735 17.8163 3.17935C15.3003 1.05265 15.3571 0.600712 15.4051 0.524074C15.3972 0.53309 15.385 0.546615 15.3694 0.564647C15.3393 0.444055 15.3181 0.34375 15.3181 0.34375C15.3181 0.34375 13.9425 1.7345 13.6537 4.05054C13.4642 5.563 14.025 7.13971 14.8354 8.1484C15.2579 8.67021 15.735 9.14469 16.259 9.56282V9.56169C16.8721 10.4509 17.2088 11.5486 17.2088 12.7298C17.2088 15.6871 14.8365 18.0843 11.9102 18.0843C11.5111 18.0843 11.1143 18.0392 10.7252 17.9501C9.34403 17.6842 8.54697 16.9798 8.14899 16.5019C7.92158 16.228 7.82459 16.0286 7.82459 16.0286C9.06199 16.4771 10.4298 16.3824 11.2614 15.9181C12.0997 15.4481 12.607 15.0999 13.0183 15.2374C13.4241 15.3738 13.7474 14.977 13.4575 14.5657C13.1733 14.1543 12.4342 13.566 11.3372 13.7294C10.4978 13.8534 9.72863 14.4552 8.62946 13.8714C8.55811 13.8342 8.49011 13.7937 8.42323 13.7486C8.35077 13.7058 8.65844 13.814 8.5871 13.7655C8.37306 13.6607 7.99404 13.4308 7.89594 13.3496C7.87922 13.3361 8.06204 13.4026 8.04532 13.3891C7.0175 12.6216 7.1457 12.1043 7.17802 11.7785C7.20366 11.5182 7.39095 11.1857 7.70531 11.0505C7.85692 11.126 7.95168 11.1835 7.95168 11.1835C7.95168 11.1835 7.88702 11.064 7.85135 10.9998C7.86361 10.9953 7.87587 10.9964 7.88702 10.9919C8.01188 11.046 8.28722 11.188 8.43215 11.2736C8.62054 11.3942 8.68074 11.5024 8.68074 11.5024C8.68074 11.5024 8.7309 11.4776 8.69412 11.3728C8.68074 11.33 8.62389 11.1925 8.4366 11.0539L8.44775 11.055C8.55923 11.1125 8.66513 11.179 8.76435 11.2545C8.81674 11.0809 8.9115 10.8995 8.89143 10.5749C8.87917 10.3472 8.88474 10.2875 8.84015 10.1996C8.80002 10.1241 8.86245 10.0948 8.93156 10.1725C8.9193 10.1105 8.90035 10.0508 8.87248 9.99334L8.87359 9.9877C8.95943 9.71609 10.6962 9.00945 10.8222 8.92605C11.0262 8.79644 11.2001 8.62513 11.3328 8.42339C11.4298 8.28364 11.5022 8.08867 11.5201 7.79226C11.5256 7.65814 11.4855 7.55333 11.0251 7.4519C10.7486 7.39104 10.3217 7.33243 9.66397 7.26932C9.1835 7.22649 8.90258 6.91093 8.74205 6.62015C8.71307 6.55704 8.68297 6.50069 8.65287 6.44434C8.625 6.37784 8.60159 6.31022 8.58487 6.24035C8.87359 5.47848 9.39085 4.82931 10.0653 4.38414C10.1043 4.35258 9.91033 4.39202 9.94935 4.36047C9.99394 4.32328 10.2882 4.21621 10.344 4.19141C10.412 4.16211 10.053 4.02461 9.73754 4.05843C9.41537 4.09111 9.34737 4.12605 9.17458 4.19254C9.24593 4.1283 9.47334 4.04377 9.41983 4.0449C9.07202 4.09336 8.64061 4.27594 8.27162 4.48331C8.2705 4.44725 8.27831 4.41118 8.29391 4.3785C8.12224 4.44499 7.69974 4.7121 7.57711 4.93863C7.58269 4.8958 7.58492 4.85185 7.5838 4.8079C7.45449 4.90595 7.33632 5.01752 7.23153 5.1415L7.22484 5.14713C6.22712 4.7831 5.3498 4.75944 4.60624 4.92285C4.44349 4.77521 4.18263 4.55094 3.81252 3.81611C3.78688 3.77216 3.77351 3.9074 3.75456 3.86345C3.61075 3.52647 3.5238 2.97423 3.53829 2.59442C3.53829 2.59442 3.24065 2.73079 2.9954 3.30332C2.94969 3.40588 2.92071 3.46336 2.89172 3.51971C2.87834 3.53661 2.92182 3.33149 2.91513 3.34276C2.87277 3.41602 2.76129 3.51858 2.71336 3.65044C2.67991 3.74849 2.63309 3.80372 2.603 3.92544L2.59631 3.93671C2.59408 3.90064 2.60522 3.78794 2.59742 3.81161C2.4826 4.04715 2.38338 4.29059 2.30089 4.53967C2.16823 4.98033 2.0144 5.57878 1.98987 6.35868C1.9843 6.41729 1.98876 6.48378 1.9843 6.53675C1.67105 6.89853 1.45701 7.20508 1.37674 7.36399C0.969853 7.99512 0.522829 8.9824 0.0891819 10.5433C0.282038 10.1173 0.512796 9.7082 0.778112 9.32389C0.41804 10.1523 0.0702307 11.454 0 13.4589C0.0869523 13.0442 0.199544 12.6351 0.334432 12.2339C0.272005 13.5705 0.425843 15.2272 1.26192 17.097C1.758 18.197 2.90064 20.4296 5.69203 22.172C8.48342 23.9144 6.64182 22.8865 8.27385 23.4218C8.39424 23.4658 8.51687 23.5098 8.64172 23.5515C8.60382 23.5357 8.56592 23.5188 8.52802 23.5019C9.61492 23.831 10.742 23.9989 11.8768 23.9989C16.1029 24.0023 17.3492 22.2869 17.3492 22.2869C17.3492 22.2869 17.3448 22.2903 17.337 22.2959C17.396 22.2396 17.454 22.1799 17.5097 22.119C16.8431 22.7558 15.3214 22.7975 14.7518 22.7524C15.7216 22.4639 16.3604 22.2204 17.6023 21.7392C17.7472 21.6851 17.8966 21.6231 18.0482 21.5532C18.0649 21.5465 18.0816 21.5375 18.0972 21.5307C18.1273 21.516 18.1574 21.5036 18.1875 21.4879C18.7928 21.1994 19.3614 20.8398 19.8831 20.4149C21.1305 19.4074 21.4014 18.4257 21.5441 17.7788C21.524 17.8408 21.4627 17.9851 21.4193 18.0797C21.0982 18.774 20.3859 19.2011 19.6122 19.5663C19.9801 19.0783 20.3212 18.57 20.6345 18.0437C20.8864 17.7912 20.9655 17.3945 21.1539 17.1285Z" fill="url(#paint6_radial_894_28039)"/>
<path d="M19.6356 19.5359C20.1439 18.969 20.601 18.3209 20.9466 17.585C21.8373 15.6927 23.2129 12.546 22.1294 9.26077C21.2721 6.6641 20.096 5.24405 18.6033 3.85668C16.1776 1.60376 15.4998 0.59845 15.4998 0C15.4998 0 12.6995 3.1568 13.9135 6.44771C15.1275 9.73862 17.6156 9.61916 19.261 13.0543C21.1974 17.097 17.6937 21.5081 14.7964 22.7434C14.9736 22.7039 21.2364 21.2703 21.5664 17.6492C21.5597 17.7157 21.4181 18.7165 19.6356 19.5359Z" fill="url(#paint7_radial_894_28039)"/>
<path d="M11.5212 7.78847C11.5312 7.57433 11.4209 7.4312 9.6718 7.26553C8.95166 7.1979 8.67631 6.5262 8.5927 6.24219C8.3363 6.91502 8.23151 7.61941 8.28837 8.4737C8.32739 9.0327 8.6986 9.63228 8.87585 9.98504C8.87585 9.98504 8.91487 9.93319 8.93382 9.91404C9.26825 9.5624 10.6695 9.02594 10.8011 8.9493C10.9449 8.85689 11.4978 8.4489 11.5212 7.78847Z" fill="url(#paint8_linear_894_28039)"/>
<path d="M3.81919 3.81545C3.79355 3.77149 3.78017 3.90673 3.76122 3.86278C3.61741 3.5258 3.53046 2.98032 3.55053 2.59375C3.55053 2.59375 3.25288 2.73012 3.00763 3.30265C2.96193 3.40521 2.93294 3.46269 2.90396 3.51904C2.89058 3.53594 2.93406 3.33082 2.92737 3.34209C2.88501 3.41535 2.77353 3.51791 2.72559 3.64414C2.68546 3.74782 2.64533 3.80305 2.61412 3.93153C2.6052 3.96647 2.62304 3.77713 2.61523 3.80079C2.04335 4.9188 1.93411 6.60821 1.9943 6.53721C3.21164 5.2231 4.60733 4.91091 4.60733 4.91091C4.46018 4.79934 4.1369 4.48039 3.81919 3.81545Z" fill="url(#paint9_linear_894_28039)"/>
<path d="M8.43997 17.5674C6.75777 16.8416 4.84594 15.8171 4.91728 13.491C5.01538 10.4277 7.74323 11.0329 7.74323 11.0329C7.64067 11.0577 7.36532 11.2561 7.26722 11.468C7.16467 11.7317 6.97627 12.3279 7.54592 12.9534C8.44108 13.9339 5.70766 15.2796 9.92596 17.821C10.033 17.8785 8.93827 17.7849 8.43997 17.5674Z" fill="url(#paint10_linear_894_28039)"/>
<path d="M7.84244 16.0389C9.03525 16.4582 10.4243 16.3849 11.257 15.9206C11.8144 15.6073 12.5278 15.1046 12.9682 15.2286C12.588 15.0764 12.2993 15.0054 11.9526 14.9885C11.8935 14.9885 11.8233 14.9874 11.7586 14.9806C11.6316 14.9806 11.5045 14.9874 11.3785 15.002C11.1633 15.0223 10.9259 15.1587 10.7096 15.1373C10.6985 15.1362 10.9192 15.0449 10.9014 15.0494C10.7866 15.0731 10.6617 15.0787 10.5302 15.0956C10.4465 15.1046 10.3741 15.1159 10.2916 15.1193C7.80677 15.3323 5.70765 13.7578 5.70765 13.7578C5.52817 14.3653 6.50694 15.5689 7.84244 16.0389Z" fill="url(#paint11_linear_894_28039)"/>
<path d="M19.6311 19.5539C22.1438 17.0598 23.4158 14.0281 22.8774 10.6268C22.8774 10.6268 23.0925 12.3703 22.2776 14.1543C22.6689 12.4131 22.7146 10.2492 21.6756 8.00868C20.2889 5.01755 18.008 3.44423 17.1363 2.78717C15.8175 1.79201 15.2702 0.779939 15.2601 0.570312C14.8655 1.38628 13.6738 4.18468 15.1319 6.59426C16.4986 8.85169 18.6513 9.52227 20.1573 11.5926C22.9342 15.4087 19.6311 19.5539 19.6311 19.5539Z" fill="url(#paint12_linear_894_28039)"/>
<path d="M19.2711 13.0642C18.3926 11.2305 17.2968 10.4303 16.2601 9.5625C16.3804 9.73268 16.4105 9.79354 16.4774 9.90399C17.3904 10.8868 18.736 13.2862 17.7583 16.2965C15.9189 21.9643 8.56366 19.2955 7.79224 18.546C8.10437 21.8257 13.5344 23.3956 17.0705 21.2689C19.0827 19.3428 20.7102 16.0699 19.2711 13.0642Z" fill="url(#paint13_linear_894_28039)"/>
</g>
<defs>
<radialGradient id="paint0_radial_894_28039" cx="0" cy="0" r="1" gradientTransform="matrix(8.28826 0.373889 0.543839 -12.3165 21.914 6.00291)" gradientUnits="userSpaceOnUse">
<stop offset="0.045" stop-color="#FFEA00"/>
<stop offset="0.12" stop-color="#FFDE00"/>
<stop offset="0.254" stop-color="#FFBF00"/>
<stop offset="0.429" stop-color="#FF8E00"/>
<stop offset="0.769" stop-color="#FF272D"/>
<stop offset="0.872" stop-color="#E0255A"/>
<stop offset="0.953" stop-color="#CC2477"/>
<stop offset="1" stop-color="#C42482"/>
</radialGradient>
<radialGradient id="paint1_radial_894_28039" cx="0" cy="0" r="1" gradientUnits="userSpaceOnUse" gradientTransform="translate(15.9976 4.71055) scale(23.3831 23.6401)">
<stop stop-color="#00CCDA"/>
<stop offset="0.22" stop-color="#0083FF"/>
<stop offset="0.261" stop-color="#007AF9"/>
<stop offset="0.33" stop-color="#0060E8"/>
<stop offset="0.333" stop-color="#005FE7"/>
<stop offset="0.438" stop-color="#2639AD"/>
<stop offset="0.522" stop-color="#401E84"/>
<stop offset="0.566" stop-color="#4A1475"/>
</radialGradient>
<linearGradient id="paint2_linear_894_28039" x1="13.0431" y1="17.785" x2="8.3315" y2="2.54008" gradientUnits="userSpaceOnUse">
<stop stop-color="#000F43" stop-opacity="0.4"/>
<stop offset="0.485" stop-color="#001962" stop-opacity="0.173"/>
<stop offset="1" stop-color="#002079" stop-opacity="0"/>
</linearGradient>
<radialGradient id="paint3_radial_894_28039" cx="0" cy="0" r="1" gradientTransform="matrix(7.84851 0.787762 0.779198 -7.93477 19.4979 12.3342)" gradientUnits="userSpaceOnUse">
<stop offset="0.003" stop-color="#FFEA00"/>
<stop offset="0.497" stop-color="#FF272D"/>
<stop offset="1" stop-color="#C42482"/>
</radialGradient>
<radialGradient id="paint4_radial_894_28039" cx="0" cy="0" r="1" gradientTransform="matrix(13.1064 1.3155 1.3012 -13.2504 19.5349 4.65607)" gradientUnits="userSpaceOnUse">
<stop offset="0.003" stop-color="#FFE900"/>
<stop offset="0.157" stop-color="#FFAF0E"/>
<stop offset="0.316" stop-color="#FF7A1B"/>
<stop offset="0.472" stop-color="#FF4E26"/>
<stop offset="0.621" stop-color="#FF2C2E"/>
<stop offset="0.762" stop-color="#FF1434"/>
<stop offset="0.892" stop-color="#FF0538"/>
<stop offset="1" stop-color="#FF0039"/>
</radialGradient>
<radialGradient id="paint5_radial_894_28039" cx="0" cy="0" r="1" gradientTransform="matrix(12.0265 1.20711 1.19399 -12.1587 20.1824 17.1256)" gradientUnits="userSpaceOnUse">
<stop offset="0.003" stop-color="#FF272D"/>
<stop offset="0.497" stop-color="#C42482"/>
<stop offset="0.986" stop-color="#620700"/>
</radialGradient>
<radialGradient id="paint6_radial_894_28039" cx="0" cy="0" r="1" gradientUnits="userSpaceOnUse" gradientTransform="translate(17.2538 9.61132) scale(18.8699 19.0773)">
<stop offset="0.156" stop-color="#FFEA00"/>
<stop offset="0.231" stop-color="#FFDE00"/>
<stop offset="0.365" stop-color="#FFBF00"/>
<stop offset="0.541" stop-color="#FF8E00"/>
<stop offset="0.763" stop-color="#FF272D"/>
<stop offset="0.796" stop-color="#F92433"/>
<stop offset="0.841" stop-color="#E91C45"/>
<stop offset="0.893" stop-color="#CF0E62"/>
<stop offset="0.935" stop-color="#B5007F"/>
</radialGradient>
<radialGradient id="paint7_radial_894_28039" cx="0" cy="0" r="1" gradientUnits="userSpaceOnUse" gradientTransform="translate(15.834 0.0309817) scale(22.282 22.5269)">
<stop offset="0.279" stop-color="#FFEA00"/>
<stop offset="0.402" stop-color="#FFDD00"/>
<stop offset="0.63" stop-color="#FFBA00"/>
<stop offset="0.856" stop-color="#FF9100"/>
<stop offset="0.933" stop-color="#FF6711"/>
<stop offset="0.994" stop-color="#FF4A1D"/>
</radialGradient>
<linearGradient id="paint8_linear_894_28039" x1="0.442159" y1="9.39064" x2="9.02038" y2="8.10278" gradientUnits="userSpaceOnUse">
<stop stop-color="#C42482" stop-opacity="0.5"/>
<stop offset="0.474" stop-color="#FF272D" stop-opacity="0.5"/>
<stop offset="0.486" stop-color="#FF2C2C" stop-opacity="0.513"/>
<stop offset="0.675" stop-color="#FF7A1A" stop-opacity="0.72"/>
<stop offset="0.829" stop-color="#FFB20D" stop-opacity="0.871"/>
<stop offset="0.942" stop-color="#FFD605" stop-opacity="0.964"/>
<stop offset="1" stop-color="#FFE302"/>
</linearGradient>
<linearGradient id="paint9_linear_894_28039" x1="3.4551" y1="6.28777" x2="2.4621" y2="2.76664" gradientUnits="userSpaceOnUse">
<stop stop-color="#891551" stop-opacity="0.6"/>
<stop offset="1" stop-color="#C42482" stop-opacity="0"/>
</linearGradient>
<linearGradient id="paint10_linear_894_28039" x1="5.31999" y1="11.4447" x2="7.35051" y2="14.2468" gradientUnits="userSpaceOnUse">
<stop offset="0.005" stop-color="#891551" stop-opacity="0.5"/>
<stop offset="0.484" stop-color="#FF272D" stop-opacity="0.5"/>
<stop offset="1" stop-color="#FF272D" stop-opacity="0"/>
</linearGradient>
<linearGradient id="paint11_linear_894_28039" x1="9.14299" y1="16.3928" x2="9.32872" y2="14.5785" gradientUnits="userSpaceOnUse">
<stop stop-color="#C42482"/>
<stop offset="0.083" stop-color="#C42482" stop-opacity="0.81"/>
<stop offset="0.206" stop-color="#C42482" stop-opacity="0.565"/>
<stop offset="0.328" stop-color="#C42482" stop-opacity="0.362"/>
<stop offset="0.447" stop-color="#C42482" stop-opacity="0.204"/>
<stop offset="0.562" stop-color="#C42482" stop-opacity="0.091"/>
<stop offset="0.673" stop-color="#C42482" stop-opacity="0.023"/>
<stop offset="0.773" stop-color="#C42482" stop-opacity="0"/>
</linearGradient>
<linearGradient id="paint12_linear_894_28039" x1="14.9702" y1="0.8828" x2="22.4794" y2="17.492" gradientUnits="userSpaceOnUse">
<stop stop-color="#FFF14F"/>
<stop offset="0.268" stop-color="#FFEE4C"/>
<stop offset="0.452" stop-color="#FFE643"/>
<stop offset="0.612" stop-color="#FFD834"/>
<stop offset="0.757" stop-color="#FFC41E"/>
<stop offset="0.892" stop-color="#FFAB02"/>
<stop offset="0.902" stop-color="#FFA900"/>
<stop offset="0.949" stop-color="#FFA000"/>
<stop offset="1" stop-color="#FF9100"/>
</linearGradient>
<linearGradient id="paint13_linear_894_28039" x1="16.4262" y1="10.4699" x2="12.8656" y2="19.926" gradientUnits="userSpaceOnUse">
<stop stop-color="#FF8E00"/>
<stop offset="0.04" stop-color="#FF8E00" stop-opacity="0.858"/>
<stop offset="0.084" stop-color="#FF8E00" stop-opacity="0.729"/>
<stop offset="0.13" stop-color="#FF8E00" stop-opacity="0.628"/>
<stop offset="0.178" stop-color="#FF8E00" stop-opacity="0.557"/>
<stop offset="0.227" stop-color="#FF8E00" stop-opacity="0.514"/>
<stop offset="0.282" stop-color="#FF8E00" stop-opacity="0.5"/>
<stop offset="0.389" stop-color="#FF8E00" stop-opacity="0.478"/>
<stop offset="0.524" stop-color="#FF8E00" stop-opacity="0.416"/>
<stop offset="0.676" stop-color="#FF8E00" stop-opacity="0.314"/>
<stop offset="0.838" stop-color="#FF8E00" stop-opacity="0.172"/>
<stop offset="1" stop-color="#FF8E00" stop-opacity="0"/>
</linearGradient>
<clipPath id="clip0_894_28039">
<rect width="23" height="24" fill="white"/>
</clipPath>
</defs>
</svg>
