<svg width="130" height="31" viewBox="0 0 130 31" fill="none" xmlns="http://www.w3.org/2000/svg">
<path d="M0 16.8821V0.0235781H2.55481L9.4831 0C12.2833 0 14.4556 0.715211 16 2.14563C17.5445 3.57605 18.3167 5.67453 18.3167 8.44105C18.3167 11.2076 17.5445 13.3061 16 14.7365C14.4556 16.1669 12.2833 16.8821 9.4831 16.8821H0ZM9.24494 3.06519H3.46415V13.8169H9.24494C11.0636 13.8169 12.4421 13.3847 13.3803 12.5201C14.3185 11.6556 14.7876 10.2959 14.7876 8.44105C14.7876 6.5705 14.3185 5.21082 13.3803 4.362C12.4421 3.49746 11.0636 3.06519 9.24494 3.06519Z" fill="#200B20"/>
<path d="M20.1633 16.8821V4.73925H28.6937C29.9495 4.73925 30.8732 5.08507 31.465 5.7767C32.0568 6.45261 32.3527 7.34859 32.3527 8.46463V10.9875H29.17V8.88904C29.17 7.94591 28.737 7.47434 27.871 7.47434H23.3459V16.8821H20.1633Z" fill="#200B20"/>
<path d="M40.2144 17C38.2802 17 36.7719 16.4813 35.6893 15.4438C34.6068 14.3907 34.0655 12.8502 34.0655 10.8225C34.0655 8.77901 34.6068 7.23856 35.6893 6.20111C36.7719 5.14794 38.2802 4.62136 40.2144 4.62136H45.6271C46.8973 4.62136 47.8644 4.95146 48.5283 5.61165C49.2067 6.25613 49.5459 7.18354 49.5459 8.3939C49.5459 10.8618 48.2397 12.0957 45.6271 12.0957H37.4431C37.7462 13.5576 38.6699 14.2885 40.2144 14.2885H48.983V17H40.2144ZM40.2144 7.33287C38.7277 7.33287 37.8111 8.01664 37.4647 9.38419H45.4755C45.7642 9.38419 45.988 9.28988 46.1467 9.10125C46.3199 8.91262 46.4065 8.65326 46.4065 8.32316C46.4065 7.66297 46.0962 7.33287 45.4755 7.33287H40.2144Z" fill="#200B20"/>
<path d="M54.4641 16.8821C53.2949 16.8821 52.4 16.5599 51.7793 15.9154C51.1587 15.2709 50.8484 14.3514 50.8484 13.1567C50.8484 11.9778 51.1587 11.0661 51.7793 10.4216C52.4 9.77716 53.2949 9.45492 54.4641 9.45492H62.778V8.88904C62.778 7.93019 62.345 7.45076 61.479 7.45076H52.299V4.73925H62.3017C63.6152 4.73925 64.5462 5.06935 65.0947 5.72954C65.6432 6.37402 65.9174 7.28571 65.9174 8.46463V16.8821H54.4641ZM55.027 14.1706H62.778V12.1664H55.027C54.7527 12.1664 54.5362 12.2607 54.3775 12.4494C54.2331 12.6223 54.1609 12.8581 54.1609 13.1567C54.1609 13.4554 54.2331 13.699 54.3775 13.8877C54.5362 14.0763 54.7527 14.1706 55.027 14.1706Z" fill="#200B20"/>
<path d="M68.3069 16.8821V4.73925H82.7481C84.0183 4.73925 84.9493 5.08507 85.5411 5.7767C86.1329 6.45261 86.4288 7.34859 86.4288 8.46463V16.8821H83.2894V8.88904C83.2894 7.93019 82.8419 7.45076 81.947 7.45076H78.9375V16.8821H75.7982V7.45076H71.4463V16.8821H68.3069Z" fill="#200B20"/>
<path d="M88.3423 17V14.2885H98.9513C99.5575 14.2885 99.8606 13.9191 99.8606 13.1803C99.8606 12.4572 99.5575 12.0957 98.9513 12.0957H92.0879C90.8033 12.0957 89.829 11.7813 89.1651 11.1526C88.5011 10.5081 88.1691 9.58853 88.1691 8.3939C88.1691 7.18354 88.5011 6.25613 89.1651 5.61165C89.8435 4.95146 90.8177 4.62136 92.0879 4.62136H101.961V7.33287H92.2395C91.6188 7.33287 91.3085 7.66297 91.3085 8.32316C91.3085 8.65326 91.3951 8.91262 91.5683 9.10125C91.7415 9.28988 91.9652 9.38419 92.2395 9.38419H99.5142C100.64 9.38419 101.499 9.70643 102.091 10.3509C102.697 10.9797 103 11.8992 103 13.1096C103 14.3356 102.697 15.2945 102.091 15.9861C101.484 16.662 100.626 17 99.5142 17H88.3423Z" fill="#200B20"/>
<path d="M106 17L112.832 0H118.073L124.905 17H121.213L119.77 13.4098H111.135L109.692 17H106ZM112.365 10.3189H118.54L115.59 2.97203H115.315L112.365 10.3189Z" fill="url(#paint0_linear_1134_24528)"/>
<path d="M126.605 17V0H130V17H126.605Z" fill="url(#paint1_linear_1134_24528)"/>
<rect x="106" y="20" width="24" height="11" rx="4" fill="url(#paint2_linear_1134_24528)"/>
<path d="M109.064 27.2387C109.011 27.2387 108.991 27.2128 109.004 27.161L110.466 23.0582C110.48 23.0194 110.506 23 110.546 23H111.261C111.305 23 111.334 23.0194 111.348 23.0582L112.823 27.161C112.836 27.2128 112.816 27.2387 112.763 27.2387H112.189C112.144 27.2387 112.115 27.2193 112.102 27.1804L111.167 24.3848C111.123 24.2511 111.078 24.1174 111.034 23.9836C110.989 23.8456 110.945 23.7097 110.9 23.5759H110.887C110.847 23.7097 110.805 23.8434 110.76 23.9772C110.715 24.1066 110.671 24.2382 110.626 24.3719L109.705 27.1804C109.692 27.2193 109.663 27.2387 109.618 27.2387H109.064ZM109.885 26.2939L110.032 25.7438H111.762L111.915 26.2939H109.885Z" fill="white"/>
<path d="M114.586 28.5135C114.056 28.5135 113.674 28.4445 113.438 28.3064C113.206 28.1727 113.091 27.9699 113.091 27.6981C113.091 27.5299 113.133 27.3789 113.217 27.2451C113.302 27.1157 113.433 27.01 113.611 26.9281L114.125 27.1093C114.005 27.1438 113.916 27.202 113.858 27.284C113.801 27.3659 113.772 27.463 113.772 27.5752C113.772 27.7305 113.834 27.8383 113.959 27.8987C114.083 27.9591 114.301 27.9893 114.613 27.9893C114.947 27.9893 115.176 27.957 115.301 27.8923C115.425 27.8319 115.488 27.7197 115.488 27.5558C115.488 27.4393 115.459 27.353 115.401 27.2969C115.347 27.2451 115.256 27.2171 115.127 27.2128L113.898 27.1416C113.747 27.133 113.614 27.0812 113.498 26.9863C113.387 26.8914 113.331 26.7447 113.331 26.5463C113.331 26.4082 113.364 26.2917 113.431 26.1968C113.498 26.0976 113.614 25.9919 113.778 25.8797L114.192 26.0868C114.094 26.1213 114.025 26.1666 113.985 26.2227C113.945 26.2745 113.925 26.3327 113.925 26.3974C113.925 26.4664 113.95 26.5161 113.999 26.5463C114.048 26.5765 114.123 26.5959 114.226 26.6045L115.321 26.6692C115.601 26.6865 115.808 26.7706 115.942 26.9216C116.08 27.0683 116.149 27.284 116.149 27.5687C116.149 27.9009 116.024 28.1403 115.775 28.287C115.525 28.438 115.129 28.5135 114.586 28.5135ZM114.64 26.2097C114.212 26.2097 113.896 26.1191 113.691 25.938C113.487 25.7568 113.384 25.4785 113.384 25.1032C113.384 24.7278 113.487 24.4496 113.691 24.2684C113.901 24.0829 114.223 23.9901 114.66 23.9901C115.083 23.9901 115.394 24.0829 115.594 24.2684C115.799 24.4496 115.902 24.73 115.902 25.1096C115.902 25.485 115.799 25.7632 115.594 25.9444C115.394 26.1213 115.076 26.2097 114.64 26.2097ZM114.64 25.6791C114.871 25.6791 115.029 25.636 115.114 25.5497C115.203 25.4634 115.247 25.3167 115.247 25.1096C115.247 24.8939 115.203 24.7429 115.114 24.6566C115.025 24.566 114.867 24.5207 114.64 24.5207C114.417 24.5207 114.261 24.566 114.172 24.6566C114.083 24.7429 114.039 24.8939 114.039 25.1096C114.039 25.3167 114.083 25.4634 114.172 25.5497C114.261 25.636 114.417 25.6791 114.64 25.6791ZM115.488 24.3525L114.973 24.1519C114.991 23.9577 115.011 23.7938 115.034 23.6601C115.056 23.522 115.078 23.4055 115.1 23.3106C115.114 23.2589 115.14 23.233 115.18 23.233H115.654C115.708 23.233 115.726 23.2567 115.708 23.3041C115.663 23.4422 115.626 23.5889 115.594 23.7442C115.563 23.8952 115.528 24.098 115.488 24.3525Z" fill="white"/>
<path d="M118.096 27.3163C117.642 27.3163 117.297 27.2171 117.061 27.0187C116.829 26.8202 116.713 26.5247 116.713 26.1321V25.2714C116.713 24.8529 116.829 24.5358 117.061 24.3201C117.292 24.1001 117.635 23.9901 118.089 23.9901C118.538 23.9901 118.879 24.0958 119.11 24.3072C119.342 24.5186 119.458 24.8271 119.458 25.2326V25.7373C119.458 25.7848 119.435 25.8085 119.391 25.8085H117.381V26.0156C117.381 26.2788 117.439 26.4708 117.555 26.5915C117.67 26.7123 117.857 26.7727 118.116 26.7727C118.311 26.7727 118.463 26.7425 118.57 26.6821C118.676 26.6217 118.73 26.529 118.73 26.4039C118.73 26.3564 118.757 26.3327 118.81 26.3327H119.324C119.364 26.3327 119.389 26.3543 119.398 26.3974C119.415 26.6865 119.308 26.913 119.077 27.0769C118.846 27.2365 118.518 27.3163 118.096 27.3163ZM117.381 25.3167H118.797V25.2844C118.797 25.0255 118.739 24.8357 118.623 24.7149C118.507 24.5941 118.331 24.5337 118.096 24.5337C117.855 24.5337 117.675 24.5962 117.555 24.7214C117.439 24.8465 117.381 25.0341 117.381 25.2844V25.3167Z" fill="white"/>
<path d="M122.492 27.2387C122.443 27.2387 122.418 27.2149 122.418 27.1675V25.1355C122.418 24.9371 122.376 24.7925 122.291 24.7019C122.211 24.607 122.084 24.5596 121.911 24.5596C121.746 24.5596 121.584 24.607 121.423 24.7019C121.263 24.7925 121.072 24.9457 120.849 25.1614L120.836 24.6372C120.978 24.4905 121.116 24.3698 121.25 24.2748C121.383 24.1799 121.519 24.1087 121.657 24.0613C121.799 24.0138 121.949 23.9901 122.104 23.9901C122.425 23.9901 122.667 24.0807 122.832 24.2619C123.001 24.4388 123.086 24.7063 123.086 25.0643V27.1675C123.086 27.2149 123.064 27.2387 123.019 27.2387H122.492ZM120.375 27.2387C120.326 27.2387 120.302 27.2149 120.302 27.1675V24.8702C120.302 24.7494 120.295 24.6221 120.282 24.4884C120.273 24.3503 120.264 24.2403 120.255 24.1584C120.246 24.098 120.27 24.0678 120.328 24.0678H120.802C120.847 24.0678 120.874 24.0893 120.883 24.1325C120.891 24.1713 120.9 24.2252 120.909 24.2943C120.918 24.3633 120.927 24.4366 120.936 24.5143C120.945 24.5919 120.949 24.6588 120.949 24.7149L120.969 24.922V27.1675C120.969 27.2149 120.945 27.2387 120.896 27.2387H120.375Z" fill="white"/>
<path d="M125.286 27.3163C125.041 27.3163 124.847 27.2797 124.705 27.2063C124.562 27.1287 124.458 27.0122 124.391 26.8569C124.329 26.6972 124.297 26.4988 124.297 26.2615V24.6178H123.79C123.745 24.6178 123.723 24.5941 123.723 24.5466V24.1389C123.723 24.0915 123.745 24.0678 123.79 24.0678H124.317L124.398 23.2912C124.402 23.2481 124.429 23.2265 124.478 23.2265H124.885C124.934 23.2265 124.958 23.2481 124.958 23.2912L124.965 24.0678H125.92C125.969 24.0678 125.993 24.0915 125.993 24.1389V24.5466C125.993 24.5941 125.969 24.6178 125.92 24.6178H124.965V26.2356C124.965 26.4255 124.998 26.5614 125.065 26.6433C125.136 26.721 125.257 26.7598 125.426 26.7598C125.51 26.7598 125.595 26.7512 125.68 26.7339C125.769 26.7123 125.846 26.6865 125.913 26.6563C125.971 26.6347 126 26.6519 126 26.708V27.1287C126 27.1675 125.982 27.1934 125.947 27.2063C125.862 27.2365 125.764 27.2624 125.653 27.284C125.546 27.3055 125.424 27.3163 125.286 27.3163Z" fill="white"/>
<defs>
<linearGradient id="paint0_linear_1134_24528" x1="118.411" y1="29.3424" x2="127.381" y2="-3.56055" gradientUnits="userSpaceOnUse">
<stop stop-color="#5711F6"/>
<stop offset="0.5" stop-color="#9614EB"/>
<stop offset="1" stop-color="#FF1ADE"/>
</linearGradient>
<linearGradient id="paint1_linear_1134_24528" x1="118.411" y1="29.3424" x2="127.381" y2="-3.56055" gradientUnits="userSpaceOnUse">
<stop stop-color="#5711F6"/>
<stop offset="0.5" stop-color="#9614EB"/>
<stop offset="1" stop-color="#FF1ADE"/>
</linearGradient>
<linearGradient id="paint2_linear_1134_24528" x1="116.938" y1="29.6138" x2="117.509" y2="21.6061" gradientUnits="userSpaceOnUse">
<stop stop-color="#5711F6"/>
<stop offset="0.5" stop-color="#9614EB"/>
<stop offset="1" stop-color="#FF1ADE"/>
</linearGradient>
</defs>
</svg>
