<svg width="24" height="24" viewBox="0 0 24 24" fill="none" xmlns="http://www.w3.org/2000/svg">
<path d="M20.0744 16.0768C19.7938 16.2236 19.5044 16.3529 19.2079 16.464C18.2642 16.8172 17.2645 16.9971 16.2568 16.9951C12.3669 16.9951 8.97842 14.3193 8.97842 10.8856C8.9834 10.4251 9.1112 9.97423 9.34862 9.57957C9.58605 9.18492 9.9245 8.86079 10.329 8.64062C6.81068 8.78859 5.90643 12.4549 5.90643 14.6029C5.90643 20.6762 11.5037 21.2919 12.7097 21.2919C13.3599 21.2919 14.3406 21.1028 14.9292 20.917L15.0369 20.8809C17.3018 20.0979 19.2327 18.5671 20.5117 16.5405C20.5509 16.4788 20.5684 16.4057 20.5614 16.333C20.5545 16.2602 20.5234 16.1918 20.4733 16.1386C20.4231 16.0855 20.3567 16.0505 20.2844 16.0393C20.2122 16.0281 20.1383 16.0413 20.0744 16.0768Z" fill="url(#paint0_linear_894_28016)"/>
<path opacity="0.35" d="M20.0744 16.0768C19.7938 16.2236 19.5044 16.3529 19.2079 16.464C18.2642 16.8172 17.2645 16.9971 16.2568 16.9951C12.3669 16.9951 8.97842 14.3193 8.97842 10.8856C8.9834 10.4251 9.1112 9.97423 9.34862 9.57957C9.58605 9.18492 9.9245 8.86079 10.329 8.64062C6.81068 8.78859 5.90643 12.4549 5.90643 14.6029C5.90643 20.6762 11.5037 21.2919 12.7097 21.2919C13.3599 21.2919 14.3406 21.1028 14.9292 20.917L15.0369 20.8809C17.3018 20.0979 19.2327 18.5671 20.5117 16.5405C20.5509 16.4788 20.5684 16.4057 20.5614 16.333C20.5545 16.2602 20.5234 16.1918 20.4733 16.1386C20.4231 16.0855 20.3567 16.0505 20.2844 16.0393C20.2122 16.0281 20.1383 16.0413 20.0744 16.0768Z" fill="url(#paint1_radial_894_28016)"/>
<path d="M9.77088 20.2557C9.03767 19.8006 8.40224 19.2043 7.90155 18.5014C7.33088 17.7196 6.93817 16.8223 6.75098 15.8726C6.56379 14.9229 6.58665 13.9438 6.81795 13.0038C7.04926 12.0639 7.4834 11.1859 8.08994 10.4316C8.69647 9.67718 9.46071 9.06464 10.3291 8.63689C10.5855 8.51605 11.0237 8.29739 11.6065 8.30807C12.0171 8.31106 12.4215 8.4091 12.7879 8.59451C13.1543 8.77991 13.4727 9.04765 13.7183 9.37673C14.0503 9.81996 14.2333 10.357 14.2412 10.9107C14.2412 10.8934 16.2519 4.36719 7.6648 4.36719C4.05602 4.36719 1.08844 7.79183 1.08844 10.7964C1.07421 12.3858 1.41428 13.9584 2.08394 15.3999C3.17835 17.7349 5.09218 19.5868 7.462 20.6038C9.83182 21.6208 12.4926 21.7321 14.9391 20.9166C14.0825 21.1867 13.1775 21.2678 12.2865 21.1542C11.3955 21.0407 10.5398 20.7352 9.77828 20.259L9.77088 20.2557Z" fill="url(#paint2_linear_894_28016)"/>
<path opacity="0.41" d="M9.77088 20.2557C9.03767 19.8006 8.40224 19.2043 7.90155 18.5014C7.33088 17.7196 6.93817 16.8223 6.75098 15.8726C6.56379 14.9229 6.58665 13.9438 6.81795 13.0038C7.04926 12.0639 7.4834 11.1859 8.08994 10.4316C8.69647 9.67718 9.46071 9.06464 10.3291 8.63689C10.5855 8.51605 11.0237 8.29739 11.6065 8.30807C12.0171 8.31106 12.4215 8.4091 12.7879 8.59451C13.1543 8.77991 13.4727 9.04765 13.7183 9.37673C14.0503 9.81996 14.2333 10.357 14.2412 10.9107C14.2412 10.8934 16.2519 4.36719 7.6648 4.36719C4.05602 4.36719 1.08844 7.79183 1.08844 10.7964C1.07421 12.3858 1.41428 13.9584 2.08394 15.3999C3.17835 17.7349 5.09218 19.5868 7.462 20.6038C9.83182 21.6208 12.4926 21.7321 14.9391 20.9166C14.0825 21.1867 13.1775 21.2678 12.2865 21.1542C11.3955 21.0407 10.5398 20.7352 9.77828 20.259L9.77088 20.2557Z" fill="url(#paint3_radial_894_28016)"/>
<path d="M13.6016 12.651C13.535 12.7373 13.3303 12.8565 13.3303 13.1163C13.3303 13.3309 13.4701 13.5372 13.7184 13.7106C14.9005 14.5327 17.129 14.4242 17.1348 14.4242C18.0107 14.4221 18.87 14.185 19.6231 13.7378C20.3828 13.2942 21.0134 12.6596 21.4522 11.8971C21.891 11.1346 22.1228 10.2706 22.1246 9.3908C22.146 7.54859 21.467 6.32375 21.1924 5.7812C19.4505 2.37382 15.6904 0.414063 11.6016 0.414063C8.83638 0.413789 6.1822 1.50204 4.21311 3.44344C2.24402 5.38484 1.11829 8.02334 1.07941 10.7883C1.11886 7.78452 4.10453 5.35866 7.65577 5.35866C7.94348 5.35866 9.58429 5.38661 11.1084 6.18646C12.4516 6.89178 13.1553 7.74342 13.6444 8.58766C14.1524 9.46478 14.2428 10.5729 14.2428 11.0143C14.2428 11.4558 14.0176 12.1101 13.6016 12.651Z" fill="url(#paint4_radial_894_28016)"/>
<path d="M13.6016 12.651C13.535 12.7373 13.3303 12.8565 13.3303 13.1163C13.3303 13.3309 13.4701 13.5372 13.7184 13.7106C14.9005 14.5327 17.129 14.4242 17.1348 14.4242C18.0107 14.4221 18.87 14.185 19.6231 13.7378C20.3828 13.2942 21.0134 12.6596 21.4522 11.8971C21.891 11.1346 22.1228 10.2706 22.1246 9.3908C22.146 7.54859 21.467 6.32375 21.1924 5.7812C19.4505 2.37382 15.6904 0.414063 11.6016 0.414063C8.83638 0.413789 6.1822 1.50204 4.21311 3.44344C2.24402 5.38484 1.11829 8.02334 1.07941 10.7883C1.11886 7.78452 4.10453 5.35866 7.65577 5.35866C7.94348 5.35866 9.58429 5.38661 11.1084 6.18646C12.4516 6.89178 13.1553 7.74342 13.6444 8.58766C14.1524 9.46478 14.2428 10.5729 14.2428 11.0143C14.2428 11.4558 14.0176 12.1101 13.6016 12.651Z" fill="url(#paint5_radial_894_28016)"/>
<defs>
<linearGradient id="paint0_linear_894_28016" x1="5.90643" y1="14.9679" x2="20.5668" y2="14.9679" gradientUnits="userSpaceOnUse">
<stop stop-color="#0C59A4"/>
<stop offset="1" stop-color="#114A8B"/>
</linearGradient>
<radialGradient id="paint1_radial_894_28016" cx="0" cy="0" r="1" gradientUnits="userSpaceOnUse" gradientTransform="translate(14.0036 15.0834) scale(7.84067 7.44863)">
<stop offset="0.72" stop-opacity="0"/>
<stop offset="0.95" stop-opacity="0.53"/>
<stop offset="1"/>
</radialGradient>
<linearGradient id="paint2_linear_894_28016" x1="13.6353" y1="8.60483" x2="4.47856" y2="18.5787" gradientUnits="userSpaceOnUse">
<stop stop-color="#1B9DE2"/>
<stop offset="0.16" stop-color="#1595DF"/>
<stop offset="0.67" stop-color="#0680D7"/>
<stop offset="1" stop-color="#0078D4"/>
</linearGradient>
<radialGradient id="paint3_radial_894_28016" cx="0" cy="0" r="1" gradientTransform="matrix(1.76625 -11.6572 -9.41998 -1.413 6.88259 16.7692)" gradientUnits="userSpaceOnUse">
<stop offset="0.76" stop-opacity="0"/>
<stop offset="0.95" stop-opacity="0.5"/>
<stop offset="1"/>
</radialGradient>
<radialGradient id="paint4_radial_894_28016" cx="0" cy="0" r="1" gradientTransform="matrix(-0.665626 16.6407 35.4446 1.33125 3.20542 4.30865)" gradientUnits="userSpaceOnUse">
<stop stop-color="#35C1F1"/>
<stop offset="0.11" stop-color="#34C1ED"/>
<stop offset="0.23" stop-color="#2FC2DF"/>
<stop offset="0.31" stop-color="#2BC3D2"/>
<stop offset="0.67" stop-color="#36C752"/>
</radialGradient>
<radialGradient id="paint5_radial_894_28016" cx="0" cy="0" r="1" gradientTransform="matrix(2.2405 7.68172 6.24139 -1.84041 20.8144 6.77719)" gradientUnits="userSpaceOnUse">
<stop stop-color="#66EB6E"/>
<stop offset="1" stop-color="#66EB6E" stop-opacity="0"/>
</radialGradient>
</defs>
</svg>
