<svg width="24" height="24" viewBox="0 0 24 24" fill="none" xmlns="http://www.w3.org/2000/svg">
<g clip-path="url(#clip0_1181_36281)">
<path d="M9.6001 -0.402344H24.0001V24.7977H9.6001V-0.402344Z" fill="#FF0000"/>
<path d="M0 -2.40234H9.6V26.7977H0V-2.40234Z" fill="#006600"/>
<path fill-rule="evenodd" clip-rule="evenodd" d="M12.7313 14.6813C11.5201 14.6438 5.98135 11.1863 5.94385 10.6313L6.2476 10.125C6.79885 10.9237 12.4613 14.2875 13.0201 14.1675L12.7313 14.6813Z" fill="#FFFF00" stroke="black" stroke-width="0.075" stroke-linecap="round" stroke-linejoin="round"/>
<path fill-rule="evenodd" clip-rule="evenodd" d="M6.1842 10.0547C6.07545 10.3472 7.6317 11.3072 9.4992 12.4472C11.3705 13.5834 12.983 14.2847 13.0992 14.1872L13.1555 14.0822C13.133 14.1197 13.0805 14.1309 12.9942 14.1047C12.488 13.9584 11.1717 13.3547 9.54045 12.3647C7.90545 11.3747 6.48795 10.4634 6.2667 10.0772C6.24948 10.041 6.24171 10.001 6.2442 9.96094H6.2367L6.1917 10.0434L6.1842 10.0547ZM12.758 14.6972C12.7392 14.7347 12.698 14.7347 12.6267 14.7272C12.1767 14.6784 10.8042 14.0109 9.18045 13.0397C7.29045 11.9072 5.73045 10.8797 5.90295 10.6097L5.94795 10.5272L5.95545 10.5309C5.80545 10.9884 9.0342 12.8334 9.22545 12.9534C11.093 14.1084 12.668 14.7872 12.8067 14.6109L12.758 14.6972Z" fill="#FFFF00" stroke="black" stroke-width="0.075" stroke-linecap="round" stroke-linejoin="round"/>
<path fill-rule="evenodd" clip-rule="evenodd" d="M9.60787 10.9677C10.8154 10.9564 12.3079 10.8027 13.1704 10.4577L12.9829 10.1577C12.4766 10.4389 10.9766 10.6264 9.59662 10.6527C7.96912 10.6377 6.81787 10.4839 6.24037 10.0977L6.06787 10.4202C7.12537 10.8702 8.21287 10.9639 9.60787 10.9677Z" fill="#FFFF00" stroke="black" stroke-width="0.075" stroke-linecap="round" stroke-linejoin="round"/>
<path fill-rule="evenodd" clip-rule="evenodd" d="M13.2183 10.4677C13.1883 10.5164 12.6258 10.7077 11.8008 10.8502C11.0736 10.9604 10.3389 11.0143 9.60333 11.0114C8.8986 11.014 8.1945 10.969 7.49583 10.8764C6.62958 10.7414 6.18333 10.5539 6.01458 10.4864L6.05583 10.4039C6.53208 10.5914 6.98208 10.7039 7.50708 10.7864C8.20065 10.8801 8.89974 10.9264 9.59958 10.9252C10.3313 10.9259 11.0621 10.872 11.7858 10.7639C12.6296 10.6252 13.0908 10.4489 13.1583 10.3702L13.2183 10.4714V10.4677ZM13.0533 10.1639C12.9633 10.2389 12.5058 10.4002 11.7033 10.5277C11.0104 10.6279 10.311 10.678 9.61083 10.6777C8.78583 10.6777 8.10708 10.6177 7.59333 10.5427C6.77583 10.4377 6.34083 10.2427 6.18333 10.1902L6.23208 10.1077C6.35583 10.1714 6.77208 10.3402 7.60083 10.4564C8.26707 10.5457 8.93868 10.5883 9.61083 10.5839C10.3061 10.5841 11.0004 10.534 11.6883 10.4339C12.4946 10.3214 12.9296 10.1189 12.9971 10.0664L13.0533 10.1639ZM5.63583 12.4252C6.37833 12.8264 8.03208 13.0252 9.59583 13.0402C11.0208 13.0439 12.8733 12.8227 13.5671 12.4552L13.5483 12.0539C13.3308 12.3914 11.3433 12.7177 9.58083 12.7064C7.81833 12.6914 6.17958 12.4214 5.63208 12.0689V12.4252" fill="#FFFF00"/>
<path d="M5.63583 12.4252C6.37833 12.8264 8.03208 13.0252 9.59583 13.0402C11.0208 13.0439 12.8733 12.8227 13.5671 12.4552L13.5483 12.0539C13.3308 12.3914 11.3433 12.7177 9.58083 12.7064C7.81833 12.6914 6.17958 12.4214 5.63208 12.0689V12.4252M13.2183 10.4677C13.1883 10.5164 12.6258 10.7077 11.8008 10.8502C11.0736 10.9604 10.3389 11.0143 9.60333 11.0114C8.8986 11.014 8.1945 10.969 7.49583 10.8764C6.62958 10.7414 6.18333 10.5539 6.01458 10.4864L6.05583 10.4039C6.53208 10.5914 6.98208 10.7039 7.50708 10.7864C8.20065 10.8801 8.89974 10.9264 9.59958 10.9252C10.3313 10.9259 11.0621 10.872 11.7858 10.7639C12.6296 10.6252 13.0908 10.4489 13.1583 10.3702L13.2183 10.4714V10.4677ZM13.0533 10.1639C12.9633 10.2389 12.5058 10.4002 11.7033 10.5277C11.0104 10.6279 10.311 10.678 9.61083 10.6777C8.78583 10.6777 8.10708 10.6177 7.59333 10.5427C6.77583 10.4377 6.34083 10.2427 6.18333 10.1902L6.23208 10.1077C6.35583 10.1714 6.77208 10.3402 7.60083 10.4564C8.26707 10.5457 8.93868 10.5883 9.61083 10.5839C10.3061 10.5841 11.0004 10.534 11.6883 10.4339C12.4946 10.3214 12.9296 10.1189 12.9971 10.0664L13.0533 10.1639Z" stroke="black" stroke-width="0.075" stroke-linecap="round" stroke-linejoin="round"/>
<path fill-rule="evenodd" clip-rule="evenodd" d="M13.6049 12.3681V12.4619C13.4999 12.5894 12.8474 12.7769 12.0299 12.9119C11.2177 13.0286 10.3979 13.0838 9.5774 13.0769C8.79938 13.0835 8.02205 13.0296 7.2524 12.9156C6.67811 12.8493 6.11693 12.6976 5.5874 12.4656V12.3569C5.95115 12.5969 6.93365 12.7769 7.26365 12.8294C7.85615 12.9194 8.6174 12.9869 9.5774 12.9869C10.5862 12.9869 11.3924 12.9156 12.0149 12.8219C12.6037 12.7356 13.4399 12.5144 13.6049 12.3681ZM13.6049 12.0306V12.1244C13.4999 12.2481 12.8474 12.4356 12.0299 12.5706C11.2178 12.6886 10.398 12.745 9.5774 12.7394C8.79944 12.744 8.02226 12.6901 7.2524 12.5781C6.67811 12.5118 6.11693 12.3601 5.5874 12.1281V12.0156C5.95115 12.2594 6.9374 12.4356 7.26365 12.4881C8.0297 12.6004 8.80319 12.6543 9.5774 12.6494C10.5862 12.6494 11.3962 12.5744 12.0149 12.4806C12.6037 12.3981 13.4399 12.1769 13.6049 12.0306ZM9.5924 14.6106C7.8824 14.6031 6.41615 14.1456 6.1049 14.0706L6.3299 14.4231C7.38173 14.7957 8.49167 14.9773 9.6074 14.9594C10.9087 14.9219 12.0449 14.8206 12.8437 14.4306L13.0762 14.0631C12.5324 14.3219 10.6762 14.6106 9.58865 14.6106" fill="#FFFF00"/>
<path d="M9.5924 14.6106C7.8824 14.6031 6.41615 14.1456 6.1049 14.0706L6.3299 14.4231C7.38173 14.7957 8.49167 14.9773 9.6074 14.9594C10.9087 14.9219 12.0449 14.8206 12.8437 14.4306L13.0762 14.0631C12.5324 14.3219 10.6762 14.6106 9.58865 14.6106M13.6049 12.3681V12.4619C13.4999 12.5894 12.8474 12.7769 12.0299 12.9119C11.2177 13.0286 10.3979 13.0838 9.5774 13.0769C8.79938 13.0835 8.02205 13.0296 7.2524 12.9156C6.67811 12.8493 6.11693 12.6976 5.5874 12.4656V12.3569C5.95115 12.5969 6.93365 12.7769 7.26365 12.8294C7.85615 12.9194 8.6174 12.9869 9.5774 12.9869C10.5862 12.9869 11.3924 12.9156 12.0149 12.8219C12.6037 12.7356 13.4399 12.5144 13.6049 12.3681ZM13.6049 12.0306V12.1244C13.4999 12.2481 12.8474 12.4356 12.0299 12.5706C11.2178 12.6886 10.398 12.745 9.5774 12.7394C8.79944 12.744 8.02226 12.6901 7.2524 12.5781C6.67811 12.5118 6.11693 12.3601 5.5874 12.1281V12.0156C5.95115 12.2594 6.9374 12.4356 7.26365 12.4881C8.0297 12.6004 8.80319 12.6543 9.5774 12.6494C10.5862 12.6494 11.3962 12.5744 12.0149 12.4806C12.6037 12.3981 13.4399 12.1769 13.6049 12.0306Z" stroke="black" stroke-width="0.075" stroke-linecap="round" stroke-linejoin="round"/>
<path fill-rule="evenodd" clip-rule="evenodd" d="M12.9338 14.3455C12.8997 14.396 12.8647 14.4461 12.8288 14.4955C12.4538 14.6305 11.8538 14.773 11.6063 14.8105C10.9422 14.9342 10.2682 14.997 9.5926 14.998C8.0776 14.9755 6.83635 14.6792 6.2551 14.4242L6.20635 14.3455L6.21385 14.3305L6.2926 14.3642C7.35985 14.7174 8.47594 14.9009 9.6001 14.908C10.3051 14.908 11.0063 14.8292 11.5726 14.728C12.4426 14.5517 12.7951 14.4205 12.9038 14.3605L12.9301 14.3455H12.9338ZM13.1326 14.0155C13.1079 14.0594 13.0829 14.1031 13.0576 14.1467C12.8551 14.2217 12.3076 14.3792 11.5088 14.4917C10.9838 14.563 10.6576 14.6342 9.61135 14.653C8.41534 14.641 7.22668 14.4643 6.07885 14.128L6.0376 14.0342C7.20379 14.3565 8.40547 14.5329 9.6151 14.5592C10.5713 14.5405 10.9801 14.4692 11.5013 14.398C12.4313 14.2555 12.9001 14.098 13.0388 14.0567C13.0389 14.0542 13.0389 14.0517 13.0388 14.0492L13.1363 14.0117L13.1326 14.0155Z" fill="#FFFF00" stroke="black" stroke-width="0.075" stroke-linecap="round" stroke-linejoin="round"/>
<path fill-rule="evenodd" clip-rule="evenodd" d="M13.1546 12.1092C13.1583 13.2342 12.5808 14.2467 12.1196 14.6892C11.4383 15.3536 10.5286 15.732 9.57709 15.7467C8.44084 15.7655 7.37209 15.0267 7.08334 14.7005C6.43735 14.0154 6.0697 13.1144 6.05209 12.173C6.11959 10.943 6.60334 10.088 7.30084 9.49922C7.97839 8.94143 8.83075 8.64005 9.70834 8.64797C10.2206 8.67281 10.7221 8.80439 11.1806 9.03428C11.639 9.26417 12.0445 9.5873 12.3708 9.98297C12.8396 10.553 13.0458 11.1717 13.1546 12.1092ZM9.58459 8.26172C10.6336 8.26169 11.6402 8.67635 12.3848 9.41534C13.1294 10.1543 13.5517 11.1577 13.5596 12.2067C13.5596 12.7272 13.457 13.2427 13.2578 13.7236C13.0586 14.2045 12.7667 14.6415 12.3986 15.0095C12.0305 15.3776 11.5936 15.6696 11.1127 15.8688C10.6318 16.0679 10.1163 16.1705 9.59584 16.1705C9.07531 16.1705 8.55988 16.0679 8.07898 15.8688C7.59805 15.6696 7.1611 15.3776 6.79303 15.0095C6.42496 14.6415 6.133 14.2045 5.9338 13.7236C5.7346 13.2427 5.63209 12.7272 5.63209 12.2067C5.62834 10.0317 7.40584 8.26172 9.58459 8.26172Z" fill="#FFFF00" stroke="black" stroke-width="0.075" stroke-linecap="round" stroke-linejoin="round"/>
<path fill-rule="evenodd" clip-rule="evenodd" d="M9.59639 8.24219C11.7789 8.24219 13.5564 10.0197 13.5564 12.2022C13.5564 14.3847 11.7789 16.1622 9.60014 16.1622C7.42139 16.1622 5.64014 14.3847 5.64014 12.2022C5.64014 10.0197 7.41764 8.24219 9.60014 8.24219H9.59639ZM5.72264 12.1984C5.72264 14.3284 7.47389 16.0722 9.59639 16.0722C11.7189 16.0722 13.4701 14.3284 13.4701 12.1984C13.4701 10.0684 11.7189 8.32469 9.59639 8.32469C7.47389 8.32469 5.72264 10.0684 5.72264 12.1984Z" fill="#FFFF00" stroke="black" stroke-width="0.075" stroke-linecap="round" stroke-linejoin="round"/>
<path fill-rule="evenodd" clip-rule="evenodd" d="M9.60037 8.57031C10.5612 8.57328 11.4818 8.95626 12.1612 9.63567C12.8406 10.3151 13.2237 11.2357 13.2266 12.1966C13.2237 13.1577 12.8408 14.0787 12.1615 14.7587C11.4822 15.4388 10.5615 15.8226 9.60037 15.8266C7.61287 15.8266 5.97412 14.1916 5.97412 12.1966C5.97805 11.236 6.36139 10.316 7.04059 9.63678C7.71976 8.95758 8.63983 8.57424 9.60037 8.57031ZM6.06037 12.1966C6.06037 14.1466 7.65787 15.7366 9.60037 15.7366C11.5429 15.7366 13.1404 14.1428 13.1404 12.1966C13.1404 10.2466 11.5429 8.65656 9.60037 8.65656C8.66272 8.66049 7.76458 9.03474 7.10155 9.69774C6.43855 10.3608 6.0643 11.2589 6.06037 12.1966Z" fill="#FFFF00" stroke="black" stroke-width="0.075" stroke-linecap="round" stroke-linejoin="round"/>
<path fill-rule="evenodd" clip-rule="evenodd" d="M9.76068 8.22266H9.41943V16.1839H9.75693L9.76068 8.22266Z" fill="#FFFF00" stroke="black" stroke-width="0.075" stroke-linecap="round" stroke-linejoin="round"/>
<path fill-rule="evenodd" clip-rule="evenodd" d="M9.72422 8.17969H9.81047V16.2309H9.72797V8.17969H9.72422ZM9.38672 8.17969H9.47672V16.2309H9.39047V8.17969H9.38672Z" fill="#FFFF00" stroke="black" stroke-width="0.075" stroke-linecap="round" stroke-linejoin="round"/>
<path fill-rule="evenodd" clip-rule="evenodd" d="M13.5603 12.3536V12.0611L13.3203 11.8361L11.9591 11.4761L10.0016 11.2773L7.63908 11.3973L5.95908 11.7948L5.62158 12.0461V12.3423L6.48033 11.9561L8.52033 11.6373H10.4816L11.9216 11.7948L12.9191 12.0348L13.5603 12.3536Z" fill="#FFFF00" stroke="black" stroke-width="0.075" stroke-linecap="round" stroke-linejoin="round"/>
<path fill-rule="evenodd" clip-rule="evenodd" d="M9.5999 11.5896C10.5337 11.5896 11.4374 11.6758 12.1612 11.8146C12.9037 11.9646 13.4249 12.1521 13.6049 12.3583V12.4633C13.3874 12.2008 12.6862 12.0133 12.1424 11.9008C11.4299 11.7658 10.5299 11.6758 9.59615 11.6758C8.6174 11.6758 7.7024 11.7733 6.9974 11.9083C6.4349 12.0208 5.68115 12.2458 5.5874 12.4633V12.3546C5.63615 12.2046 6.19865 11.9796 6.98615 11.8183C7.6949 11.6796 8.6099 11.5896 9.59615 11.5896H9.5999ZM9.5999 11.2483C10.4587 11.2466 11.3158 11.3219 12.1612 11.4733C12.9037 11.6233 13.4249 11.8108 13.6049 12.0208V12.1221C13.3874 11.8633 12.6862 11.6721 12.1424 11.5633C11.4299 11.4246 10.5299 11.3383 9.59615 11.3383C8.72582 11.3356 7.85711 11.4134 7.00115 11.5708C6.4574 11.6721 5.67365 11.9046 5.5874 12.1221V12.0171C5.6399 11.8671 6.2099 11.6308 6.98615 11.4808C7.69865 11.3421 8.6099 11.2483 9.5999 11.2483ZM9.5774 9.51582C11.0512 9.50832 12.3374 9.72207 12.9262 10.0221L13.1399 10.3971C12.6299 10.1196 11.2424 9.83457 9.58115 9.87207C8.2274 9.88332 6.7799 10.0221 6.05615 10.4121L6.31115 9.98457C6.9074 9.67332 8.3099 9.51582 9.5774 9.51582Z" fill="#FFFF00" stroke="black" stroke-width="0.075" stroke-linecap="round" stroke-linejoin="round"/>
<path fill-rule="evenodd" clip-rule="evenodd" d="M9.60052 9.82642C10.37 9.81343 11.1391 9.86737 11.8993 9.98767C12.4993 10.1002 13.073 10.2652 13.1555 10.3552L13.2193 10.4677C13.0205 10.3402 12.5218 10.1939 11.8843 10.0739C11.2468 9.95392 10.433 9.91267 9.59677 9.91642C8.64802 9.91267 7.90927 9.96142 7.27927 10.0739C6.84496 10.1348 6.42331 10.2652 6.03052 10.4602L6.09427 10.3439C6.31927 10.2314 6.66802 10.0927 7.26052 9.98392C7.91677 9.86392 8.66302 9.83017 9.60052 9.82642ZM9.60052 9.48892C10.403 9.48142 11.198 9.52642 11.8168 9.63892C12.2176 9.69844 12.6056 9.82522 12.9643 10.0139L13.058 10.1639C12.9005 9.98767 12.308 9.81892 11.7793 9.72892C11.1643 9.62017 10.403 9.57892 9.60052 9.57142C8.85349 9.56476 8.10718 9.61993 7.36927 9.73642C6.98341 9.79018 6.60868 9.90538 6.25927 10.0777L6.34177 9.95392C6.55927 9.84142 6.91177 9.73642 7.35427 9.65017C8.09704 9.53215 8.84845 9.47698 9.60052 9.48517V9.48892ZM11.5655 13.8502C10.9155 13.7376 10.2563 13.6874 9.59677 13.7002C7.14052 13.7302 6.34927 14.2064 6.25177 14.3489L6.06427 14.0489C6.69427 13.5989 8.02927 13.3439 9.61177 13.3664C10.433 13.3814 11.1418 13.4377 11.7343 13.5539L11.5655 13.8539" fill="#FFFF00"/>
<path d="M11.5655 13.8502C10.9155 13.7376 10.2563 13.6874 9.59677 13.7002C7.14052 13.7302 6.34927 14.2064 6.25177 14.3489L6.06427 14.0489C6.69427 13.5989 8.02927 13.3439 9.61177 13.3664C10.433 13.3814 11.1418 13.4377 11.7343 13.5539L11.5655 13.8539M9.60052 9.82642C10.37 9.81343 11.1391 9.86737 11.8993 9.98767C12.4993 10.1002 13.073 10.2652 13.1555 10.3552L13.2193 10.4677C13.0205 10.3402 12.5218 10.1939 11.8843 10.0739C11.2468 9.95392 10.433 9.91267 9.59677 9.91642C8.64802 9.91267 7.90927 9.96142 7.27927 10.0739C6.84496 10.1348 6.42331 10.2652 6.03052 10.4602L6.09427 10.3439C6.31927 10.2314 6.66802 10.0927 7.26052 9.98392C7.91677 9.86392 8.66302 9.83017 9.60052 9.82642ZM9.60052 9.48892C10.403 9.48142 11.198 9.52642 11.8168 9.63892C12.2176 9.69844 12.6056 9.82522 12.9643 10.0139L13.058 10.1639C12.9005 9.98767 12.308 9.81892 11.7793 9.72892C11.1643 9.62017 10.403 9.57892 9.60052 9.57142C8.85349 9.56476 8.10718 9.61993 7.36927 9.73642C6.98341 9.79018 6.60868 9.90538 6.25927 10.0777L6.34177 9.95392C6.55927 9.84142 6.91177 9.73642 7.35427 9.65017C8.09704 9.53215 8.84845 9.47698 9.60052 9.48517V9.48892Z" stroke="black" stroke-width="0.075" stroke-linecap="round" stroke-linejoin="round"/>
<path fill-rule="evenodd" clip-rule="evenodd" d="M9.58519 13.6575C10.2677 13.6688 10.9352 13.695 11.5839 13.815L11.5389 13.8975C10.9389 13.785 10.2939 13.7475 9.58894 13.7475C8.67769 13.74 7.76269 13.8263 6.96394 14.055C6.71269 14.1263 6.29644 14.2875 6.25144 14.4225L6.20644 14.3475C6.22144 14.265 6.46894 14.1 6.94144 13.9725C7.85644 13.71 8.71144 13.6613 9.58519 13.6575ZM9.61519 13.3125C10.3355 13.3118 11.0546 13.3745 11.7639 13.5L11.7152 13.5863C11.0225 13.4592 10.3194 13.3977 9.61519 13.4025C8.70769 13.4025 7.74394 13.47 6.86644 13.725C6.58519 13.8075 6.09394 13.9875 6.07894 14.1263L6.03394 14.0438C6.04144 13.9163 6.46519 13.7475 6.84769 13.6388C7.72894 13.38 8.69644 13.3163 9.61519 13.3125Z" fill="#FFFF00" stroke="black" stroke-width="0.075" stroke-linecap="round" stroke-linejoin="round"/>
<path fill-rule="evenodd" clip-rule="evenodd" d="M13.1029 14.0934L12.8104 14.5547L11.9592 13.8009L9.76167 12.3197L7.27917 10.9584L5.99292 10.5197L6.26667 10.0097L6.36042 9.96094L7.15917 10.1597L9.79917 11.5209L11.3217 12.4809L12.6004 13.3997L13.1217 13.9997L13.1029 14.0934Z" fill="#FFFF00" stroke="black" stroke-width="0.075" stroke-linecap="round" stroke-linejoin="round"/>
<path fill-rule="evenodd" clip-rule="evenodd" d="M5.94792 10.5297C6.17292 10.3797 7.83042 11.1147 9.57042 12.1647C11.2992 13.2147 12.9567 14.3997 12.8067 14.621L12.7579 14.6997L12.7354 14.7185C12.7392 14.7147 12.7654 14.681 12.7354 14.6022C12.6604 14.3585 11.4829 13.421 9.53667 12.2435C7.63542 11.1147 6.05292 10.4322 5.89917 10.6272L5.94792 10.5297ZM13.1629 14.0885C13.3054 13.8035 11.7679 12.6447 9.85917 11.516C7.90917 10.4097 6.49917 9.75724 6.24042 9.95224L6.18792 10.061C6.18792 10.0647 6.18792 10.0535 6.20292 10.0422C6.24792 10.0047 6.32667 10.0047 6.36042 10.0047C6.80292 10.0122 8.06667 10.5935 9.84042 11.6097C10.6204 12.0597 13.1254 13.6722 13.1142 14.1222C13.1142 14.1597 13.1179 14.1672 13.1029 14.1897L13.1667 14.0922L13.1629 14.0885Z" fill="#FFFF00" stroke="black" stroke-width="0.075" stroke-linecap="round" stroke-linejoin="round"/>
<path d="M7.22339 12.6408C7.22399 12.9513 7.28615 13.2586 7.40633 13.5449C7.52648 13.8312 7.70222 14.0908 7.92341 14.3088C8.14187 14.5306 8.40209 14.707 8.68904 14.8279C8.97602 14.9487 9.28406 15.0115 9.5954 15.0128C10.2255 15.0127 10.8299 14.7624 11.2754 14.3168C11.4958 14.0976 11.6707 13.8371 11.7902 13.5502C11.9096 13.2633 11.9712 12.9556 11.9714 12.6448V9.47676L7.22339 9.46875V12.6408Z" fill="white" stroke="black" stroke-width="0.0933336"/>
<path d="M7.31128 12.6423C7.31212 12.9402 7.37194 13.2349 7.48729 13.5095C7.60261 13.7841 7.77118 14.0332 7.98328 14.2423C8.40916 14.6704 8.98744 14.9121 9.59128 14.9143C10.1941 14.9147 10.7723 14.6759 11.1993 14.2503C11.4107 14.0409 11.5785 13.7917 11.6931 13.5171C11.8078 13.2425 11.867 12.9479 11.8673 12.6503V9.57031H7.31929V12.6423M10.9593 10.4943V12.4503L10.9553 12.6543C10.9566 12.833 10.9219 13.0101 10.8532 13.1751C10.7844 13.3401 10.6831 13.4895 10.5553 13.6143C10.3009 13.8696 9.95563 14.0134 9.59527 14.0143C9.21928 14.0143 8.88727 13.8543 8.63929 13.6063C8.38402 13.352 8.24017 13.0067 8.23927 12.6463V10.4863L10.9593 10.4943Z" fill="#FF0000"/>
<path d="M7.31128 12.6423C7.31212 12.9402 7.37194 13.2349 7.48729 13.5095C7.60261 13.7841 7.77118 14.0332 7.98328 14.2423C8.40916 14.6704 8.98744 14.9121 9.59128 14.9143C10.1941 14.9147 10.7723 14.6759 11.1993 14.2503C11.4107 14.0409 11.5785 13.7917 11.6931 13.5171C11.8078 13.2425 11.867 12.9479 11.8673 12.6503V9.57031H7.31929V12.6423M10.9593 10.4943V12.4503L10.9553 12.6543C10.9566 12.833 10.9219 13.0101 10.8532 13.1751C10.7844 13.3401 10.6831 13.4895 10.5553 13.6143C10.3009 13.8696 9.95563 14.0134 9.59527 14.0143C9.21928 14.0143 8.88727 13.8543 8.63929 13.6063C8.38402 13.352 8.24017 13.0067 8.23927 12.6463V10.4863L10.9593 10.4943Z" stroke="black" stroke-width="0.0666669"/>
<path d="M7.60791 10.3736C7.6119 10.1536 7.7679 10.1016 7.7679 10.1016C7.77189 10.1016 7.93989 10.1576 7.93989 10.3776H7.60791" fill="#FFFF00"/>
<path d="M7.47146 10.1056L7.44347 10.3576H7.61147C7.61147 10.1496 7.77146 10.1176 7.77146 10.1176C7.77548 10.1176 7.93148 10.1616 7.93547 10.3576H8.10347L8.07146 10.1016H7.47146V10.1056ZM7.43147 10.3616H8.11148C8.12348 10.3616 8.13548 10.3736 8.13548 10.3896C8.13548 10.4096 8.12348 10.4216 8.11148 10.4216H7.43147C7.41947 10.4216 7.40747 10.4096 7.40747 10.3896C7.40747 10.3736 7.41947 10.3616 7.43546 10.3616H7.43147Z" fill="#FFFF00" stroke="black" stroke-width="0.0666669"/>
<path d="M7.67982 10.3608C7.67982 10.2288 7.77183 10.1928 7.77183 10.1928C7.77183 10.1928 7.86384 10.2328 7.86384 10.3608H7.67982ZM7.44783 10.0008H8.09982C8.11182 10.0008 8.12382 10.0168 8.12382 10.0328C8.12382 10.0448 8.11182 10.0568 8.09982 10.0568H7.44783C7.43583 10.0568 7.42383 10.0448 7.42383 10.0288C7.42383 10.0168 7.43583 10.0048 7.44783 10.0048V10.0008ZM7.46382 10.0608H8.07984C8.09184 10.0608 8.10384 10.0728 8.10384 10.0888C8.10384 10.1048 8.09184 10.1168 8.07984 10.1168H7.45983C7.44384 10.1168 7.43583 10.1048 7.43583 10.0888C7.43583 10.0728 7.44384 10.0608 7.45983 10.0608H7.46382ZM7.66383 9.6368H7.71183V9.66881H7.74783V9.6368H7.79982V9.6728H7.83582V9.63281H7.88382V9.71282C7.88382 9.72881 7.87584 9.73682 7.86384 9.73682H7.68783C7.67583 9.73682 7.66383 9.72881 7.66383 9.71681V9.6368ZM7.84782 9.7448L7.85982 10.0008H7.68783L7.69983 9.74081H7.84782" fill="#FFFF00"/>
<path d="M7.84782 9.7448L7.85982 10.0008H7.68783L7.69983 9.74081H7.84782M7.67982 10.3608C7.67982 10.2288 7.77183 10.1928 7.77183 10.1928C7.77183 10.1928 7.86384 10.2328 7.86384 10.3608H7.67982ZM7.44783 10.0008H8.09982C8.11182 10.0008 8.12382 10.0168 8.12382 10.0328C8.12382 10.0448 8.11182 10.0568 8.09982 10.0568H7.44783C7.43583 10.0568 7.42383 10.0448 7.42383 10.0288C7.42383 10.0168 7.43583 10.0048 7.44783 10.0048V10.0008ZM7.46382 10.0608H8.07984C8.09184 10.0608 8.10384 10.0728 8.10384 10.0888C8.10384 10.1048 8.09184 10.1168 8.07984 10.1168H7.45983C7.44384 10.1168 7.43583 10.1048 7.43583 10.0888C7.43583 10.0728 7.44384 10.0608 7.45983 10.0608H7.46382ZM7.66383 9.6368H7.71183V9.66881H7.74783V9.6368H7.79982V9.6728H7.83582V9.63281H7.88382V9.71282C7.88382 9.72881 7.87584 9.73682 7.86384 9.73682H7.68783C7.67583 9.73682 7.66383 9.72881 7.66383 9.71681V9.6368Z" stroke="black" stroke-width="0.0666669"/>
<path d="M7.63899 9.86328V9.99927H7.479V9.86328H7.63899Z" fill="#FFFF00" stroke="black" stroke-width="0.0666669"/>
<path d="M8.06307 9.86328V9.99927H7.90308V9.86328H8.06307Z" fill="#FFFF00" stroke="black" stroke-width="0.0666669"/>
<path d="M7.4519 9.75781H7.4999V9.7978H7.5359V9.75781H7.5839V9.7978H7.6199V9.75781H7.6679V9.83782C7.6679 9.85381 7.65992 9.86182 7.64792 9.86182H7.4759C7.46954 9.86182 7.46345 9.85927 7.45895 9.85477C7.45445 9.85027 7.4519 9.84418 7.4519 9.83782V9.75781Z" fill="#FFFF00" stroke="black" stroke-width="0.0666669"/>
<path d="M7.875 9.75781H7.923V9.7978H7.959V9.75781H8.007V9.7978H8.043V9.75781H8.091V9.83782C8.091 9.85381 8.08299 9.86182 8.07099 9.86182H7.899C7.89264 9.86182 7.88652 9.85927 7.88202 9.85477C7.87752 9.85027 7.875 9.84418 7.875 9.83782V9.75781Z" fill="#FFFF00" stroke="black" stroke-width="0.0666669"/>
<path d="M7.75537 9.82269C7.75537 9.79869 7.79137 9.79869 7.79137 9.82269V9.88671H7.75537V9.82269Z" fill="black"/>
<path d="M7.54346 9.91253C7.54346 9.88853 7.57547 9.88853 7.57547 9.91253V9.96053H7.54346V9.91253Z" fill="black"/>
<path d="M7.96753 9.91253C7.96753 9.88853 7.99954 9.88853 7.99954 9.91253V9.96053H7.96753V9.91253Z" fill="black"/>
<path d="M7.60791 12.2251C7.6119 12.0051 7.7679 11.9531 7.7679 11.9531C7.77189 11.9531 7.93989 12.0091 7.93989 12.2291H7.60791" fill="#FFFF00"/>
<path d="M7.47146 11.9571L7.44347 12.2091H7.61147C7.61147 12.0011 7.77146 11.9691 7.77146 11.9691C7.77548 11.9691 7.93148 12.0131 7.93547 12.2091H8.10347L8.07146 11.9531H7.47146V11.9571ZM7.43147 12.2131H8.11148C8.12348 12.2131 8.13548 12.2251 8.13548 12.2411C8.13548 12.2611 8.12348 12.2731 8.11148 12.2731H7.43147C7.41947 12.2731 7.40747 12.2611 7.40747 12.2411C7.40747 12.2251 7.41947 12.2131 7.43546 12.2131H7.43147Z" fill="#FFFF00" stroke="black" stroke-width="0.0666669"/>
<path d="M7.67982 12.2124C7.67982 12.0804 7.77183 12.0444 7.77183 12.0444C7.77183 12.0444 7.86384 12.0844 7.86384 12.2124H7.67982ZM7.44783 11.8524H8.09982C8.11182 11.8524 8.12382 11.8684 8.12382 11.8844C8.12382 11.8964 8.11182 11.9084 8.09982 11.9084H7.44783C7.43583 11.9084 7.42383 11.8964 7.42383 11.8804C7.42383 11.8684 7.43583 11.8564 7.44783 11.8564V11.8524ZM7.46382 11.9124H8.07984C8.09184 11.9124 8.10384 11.9244 8.10384 11.9404C8.10384 11.9564 8.09184 11.9684 8.07984 11.9684H7.45983C7.44384 11.9684 7.43583 11.9564 7.43583 11.9404C7.43583 11.9244 7.44384 11.9124 7.45983 11.9124H7.46382ZM7.66383 11.4884H7.71183V11.5204H7.74783V11.4884H7.79982V11.5244H7.83582V11.4844H7.88382V11.5644C7.88382 11.5804 7.87584 11.5884 7.86384 11.5884H7.68783C7.67583 11.5884 7.66383 11.5804 7.66383 11.5684V11.4884ZM7.84782 11.5964L7.85982 11.8524H7.68783L7.69983 11.5924H7.84782" fill="#FFFF00"/>
<path d="M7.84782 11.5964L7.85982 11.8524H7.68783L7.69983 11.5924H7.84782M7.67982 12.2124C7.67982 12.0804 7.77183 12.0444 7.77183 12.0444C7.77183 12.0444 7.86384 12.0844 7.86384 12.2124H7.67982ZM7.44783 11.8524H8.09982C8.11182 11.8524 8.12382 11.8684 8.12382 11.8844C8.12382 11.8964 8.11182 11.9084 8.09982 11.9084H7.44783C7.43583 11.9084 7.42383 11.8964 7.42383 11.8804C7.42383 11.8684 7.43583 11.8564 7.44783 11.8564V11.8524ZM7.46382 11.9124H8.07984C8.09184 11.9124 8.10384 11.9244 8.10384 11.9404C8.10384 11.9564 8.09184 11.9684 8.07984 11.9684H7.45983C7.44384 11.9684 7.43583 11.9564 7.43583 11.9404C7.43583 11.9244 7.44384 11.9124 7.45983 11.9124H7.46382ZM7.66383 11.4884H7.71183V11.5204H7.74783V11.4884H7.79982V11.5244H7.83582V11.4844H7.88382V11.5644C7.88382 11.5804 7.87584 11.5884 7.86384 11.5884H7.68783C7.67583 11.5884 7.66383 11.5804 7.66383 11.5684V11.4884Z" stroke="black" stroke-width="0.0666669"/>
<path d="M7.63899 11.7148V11.8509H7.479V11.7148H7.63899Z" fill="#FFFF00" stroke="black" stroke-width="0.0666669"/>
<path d="M8.06307 11.7148V11.8509H7.90308V11.7148H8.06307Z" fill="#FFFF00" stroke="black" stroke-width="0.0666669"/>
<path d="M7.4519 11.6094H7.4999V11.6494H7.5359V11.6094H7.5839V11.6494H7.6199V11.6094H7.6679V11.6894C7.6679 11.7054 7.65992 11.7134 7.64792 11.7134H7.4759C7.46954 11.7134 7.46345 11.7108 7.45895 11.7063C7.45445 11.7018 7.4519 11.6957 7.4519 11.6894V11.6094Z" fill="#FFFF00" stroke="black" stroke-width="0.0666669"/>
<path d="M7.875 11.6094H7.923V11.6494H7.959V11.6094H8.007V11.6494H8.043V11.6094H8.091V11.6894C8.091 11.7054 8.08299 11.7134 8.07099 11.7134H7.899C7.89264 11.7134 7.88652 11.7108 7.88202 11.7063C7.87752 11.7018 7.875 11.6957 7.875 11.6894V11.6094Z" fill="#FFFF00" stroke="black" stroke-width="0.0666669"/>
<path d="M7.75537 11.6742C7.75537 11.6503 7.79137 11.6503 7.79137 11.6742V11.7382H7.75537V11.6742Z" fill="black"/>
<path d="M7.54346 11.7641C7.54346 11.7401 7.57547 11.7401 7.57547 11.7641V11.8121H7.54346V11.7641Z" fill="black"/>
<path d="M7.96753 11.7641C7.96753 11.7401 7.99954 11.7401 7.99954 11.7641V11.8121H7.96753V11.7641Z" fill="black"/>
<path d="M8.32932 14.1563C8.17605 13.9985 8.24907 13.8511 8.24907 13.8511C8.25189 13.8483 8.40999 13.7686 8.56611 13.9236L8.33217 14.1592" fill="#FFFF00"/>
<path d="M8.04359 14.0653L8.20268 14.2627L8.32106 14.1435C8.17346 13.9969 8.26349 13.8608 8.26349 13.8608C8.26631 13.858 8.40746 13.7783 8.54936 13.9136L8.66774 13.7944L8.46353 13.6367L8.04077 14.0624L8.04359 14.0653ZM8.19707 14.274L8.67623 13.7915C8.68466 13.783 8.70164 13.783 8.71301 13.7942C8.7272 13.8083 8.72726 13.8253 8.7188 13.8338L8.23964 14.3163C8.23118 14.3248 8.2142 14.3249 8.20001 14.3108C8.18867 14.2995 8.18861 14.2826 8.19989 14.2712L8.19707 14.274Z" fill="#FFFF00" stroke="black" stroke-width="0.0666669"/>
<path d="M8.36924 14.0953C8.27558 14.0022 8.31485 13.9116 8.31485 13.9116C8.31485 13.9116 8.40806 13.8745 8.4989 13.9647L8.36924 14.0953ZM7.95032 14.0062L8.40974 13.5436C8.4182 13.535 8.438 13.5378 8.44937 13.5491C8.45789 13.5575 8.45792 13.5745 8.44949 13.583L7.99007 14.0457C7.98161 14.0542 7.96463 14.0542 7.95329 14.043C7.94477 14.0345 7.94471 14.0175 7.95317 14.009L7.95032 14.0062ZM8.00417 14.0371L8.43821 13.6C8.44667 13.5915 8.46365 13.5915 8.47499 13.6027C8.48636 13.614 8.48642 13.631 8.47796 13.6395L8.0411 14.0794C8.02982 14.0908 8.01566 14.088 8.00432 14.0767C7.99295 14.0654 7.99007 14.0513 8.00135 14.04L8.00417 14.0371ZM7.84424 13.5964L7.87805 13.5624L7.90076 13.5849L7.92614 13.5594L7.90343 13.5368L7.94006 13.4999L7.96562 13.5253L7.99097 13.4998L7.96259 13.4716L7.99643 13.4375L8.05319 13.4939C8.06453 13.5052 8.06459 13.5165 8.05613 13.525L7.93211 13.6499C7.92365 13.6584 7.90952 13.6613 7.901 13.6528L7.84424 13.5964ZM8.05052 13.542L8.24063 13.7139L8.11943 13.8359L7.94339 13.6442L8.0477 13.5392" fill="#FFFF00"/>
<path d="M8.05052 13.542L8.24063 13.7139L8.11943 13.8359L7.94339 13.6442L8.0477 13.5392M8.36924 14.0953C8.27558 14.0022 8.31485 13.9116 8.31485 13.9116C8.31485 13.9116 8.40806 13.8745 8.4989 13.9647L8.36924 14.0953ZM7.95032 14.0062L8.40974 13.5436C8.4182 13.535 8.438 13.5378 8.44937 13.5491C8.45789 13.5575 8.45792 13.5745 8.44949 13.583L7.99007 14.0457C7.98161 14.0542 7.96463 14.0542 7.95329 14.043C7.94477 14.0345 7.94471 14.0175 7.95317 14.009L7.95032 14.0062ZM8.00417 14.0371L8.43821 13.6C8.44667 13.5915 8.46365 13.5915 8.47499 13.6027C8.48636 13.614 8.48642 13.631 8.47796 13.6395L8.0411 14.0794C8.02982 14.0908 8.01566 14.088 8.00432 14.0767C7.99295 14.0654 7.99007 14.0513 8.00135 14.04L8.00417 14.0371ZM7.84424 13.5964L7.87805 13.5624L7.90076 13.5849L7.92614 13.5594L7.90343 13.5368L7.94006 13.4999L7.96562 13.5253L7.99097 13.4998L7.96259 13.4716L7.99643 13.4375L8.05319 13.4939C8.06453 13.5052 8.06459 13.5165 8.05613 13.525L7.93211 13.6499C7.92365 13.6584 7.90952 13.6613 7.901 13.6528L7.84424 13.5964Z" stroke="black" stroke-width="0.0666669"/>
<path d="M7.98896 13.7734L8.08547 13.8693L7.97273 13.9828L7.87622 13.887L7.98896 13.7734Z" fill="#FFFF00" stroke="black" stroke-width="0.0666669"/>
<path d="M8.28779 13.4727L8.3843 13.5685L8.27156 13.682L8.17505 13.5862L8.28779 13.4727Z" fill="#FFFF00" stroke="black" stroke-width="0.0666669"/>
<path d="M7.78247 13.833L7.81628 13.7989L7.84469 13.8271L7.87004 13.8015L7.84166 13.7733L7.87547 13.7393L7.90388 13.7675L7.92923 13.7419L7.90085 13.7138L7.93466 13.6797L7.99145 13.7361C8.00279 13.7473 8.00282 13.7586 7.99439 13.7672L7.87319 13.8892C7.86869 13.8937 7.8626 13.8963 7.85624 13.8963C7.84988 13.8963 7.84376 13.8938 7.83923 13.8893L7.78247 13.833Z" fill="#FFFF00" stroke="black" stroke-width="0.0666669"/>
<path d="M8.0813 13.5322L8.11511 13.4981L8.14352 13.5263L8.16887 13.5008L8.14049 13.4726L8.1743 13.4385L8.20271 13.4667L8.22806 13.4412L8.19968 13.413L8.23349 13.3789L8.29028 13.4353C8.30162 13.4466 8.30165 13.4579 8.29319 13.4664L8.17202 13.5884C8.16752 13.593 8.16143 13.5955 8.15507 13.5955C8.14871 13.5955 8.14259 13.593 8.13806 13.5885L8.0813 13.5322Z" fill="#FFFF00" stroke="black" stroke-width="0.0666669"/>
<path d="M8.04251 13.6639C8.02547 13.647 8.05085 13.6214 8.06789 13.6384L8.11328 13.6835L8.08793 13.709L8.04251 13.6639Z" fill="black"/>
<path d="M7.95453 13.8763C7.93752 13.8594 7.96005 13.8367 7.97709 13.8536L8.01114 13.8874L7.98861 13.9101L7.95453 13.8763Z" fill="black"/>
<path d="M8.25336 13.5756C8.23635 13.5586 8.25888 13.5359 8.27592 13.5528L8.30997 13.5867L8.28744 13.6094L8.25336 13.5756Z" fill="black"/>
<path d="M9.43604 10.3736C9.44006 10.1536 9.59606 10.1016 9.59606 10.1016C9.60005 10.1016 9.76804 10.1576 9.76804 10.3776H9.43604" fill="#FFFF00"/>
<path d="M9.29959 10.1056L9.2716 10.3576H9.4396C9.4396 10.1496 9.59959 10.1176 9.59959 10.1176C9.60358 10.1176 9.75958 10.1616 9.7636 10.3576H9.9316L9.89959 10.1016H9.29959V10.1056ZM9.2596 10.3616H9.93958C9.95158 10.3616 9.96358 10.3736 9.96358 10.3896C9.96358 10.4096 9.95158 10.4216 9.93958 10.4216H9.2596C9.2476 10.4216 9.2356 10.4096 9.2356 10.3896C9.2356 10.3736 9.2476 10.3616 9.26359 10.3616H9.2596Z" fill="#FFFF00" stroke="black" stroke-width="0.0666669"/>
<path d="M9.50797 10.3608C9.50797 10.2288 9.59995 10.1928 9.59995 10.1928C9.59995 10.1928 9.69196 10.2328 9.69196 10.3608H9.50797ZM9.27595 10.0008H9.92797C9.93997 10.0008 9.95197 10.0168 9.95197 10.0328C9.95197 10.0448 9.93997 10.0568 9.92797 10.0568H9.27595C9.26395 10.0568 9.25195 10.0448 9.25195 10.0288C9.25195 10.0168 9.26395 10.0048 9.27595 10.0048V10.0008ZM9.29197 10.0608H9.90796C9.91996 10.0608 9.93196 10.0728 9.93196 10.0888C9.93196 10.1048 9.91996 10.1168 9.90796 10.1168H9.28795C9.27196 10.1168 9.26395 10.1048 9.26395 10.0888C9.26395 10.0728 9.27196 10.0608 9.28795 10.0608H9.29197ZM9.49195 9.6368H9.53995V9.66881H9.57595V9.6368H9.62797V9.6728H9.66397V9.63281H9.71197V9.71282C9.71197 9.72881 9.70396 9.73682 9.69196 9.73682H9.51595C9.50395 9.73682 9.49195 9.72881 9.49195 9.71681V9.6368ZM9.67597 9.7448L9.68797 10.0008H9.51595L9.52795 9.74081H9.67597" fill="#FFFF00"/>
<path d="M9.67597 9.7448L9.68797 10.0008H9.51595L9.52795 9.74081H9.67597M9.50797 10.3608C9.50797 10.2288 9.59995 10.1928 9.59995 10.1928C9.59995 10.1928 9.69196 10.2328 9.69196 10.3608H9.50797ZM9.27595 10.0008H9.92797C9.93997 10.0008 9.95197 10.0168 9.95197 10.0328C9.95197 10.0448 9.93997 10.0568 9.92797 10.0568H9.27595C9.26395 10.0568 9.25195 10.0448 9.25195 10.0288C9.25195 10.0168 9.26395 10.0048 9.27595 10.0048V10.0008ZM9.29197 10.0608H9.90796C9.91996 10.0608 9.93196 10.0728 9.93196 10.0888C9.93196 10.1048 9.91996 10.1168 9.90796 10.1168H9.28795C9.27196 10.1168 9.26395 10.1048 9.26395 10.0888C9.26395 10.0728 9.27196 10.0608 9.28795 10.0608H9.29197ZM9.49195 9.6368H9.53995V9.66881H9.57595V9.6368H9.62797V9.6728H9.66397V9.63281H9.71197V9.71282C9.71197 9.72881 9.70396 9.73682 9.69196 9.73682H9.51595C9.50395 9.73682 9.49195 9.72881 9.49195 9.71681V9.6368Z" stroke="black" stroke-width="0.0666669"/>
<path d="M9.46715 9.86328V9.99927H9.30713V9.86328H9.46715Z" fill="#FFFF00" stroke="black" stroke-width="0.0666669"/>
<path d="M9.89119 9.86328V9.99927H9.7312V9.86328H9.89119Z" fill="#FFFF00" stroke="black" stroke-width="0.0666669"/>
<path d="M9.28003 9.75781H9.32803V9.7978H9.36403V9.75781H9.41203V9.7978H9.44803V9.75781H9.49603V9.83782C9.49603 9.85381 9.48802 9.86182 9.47602 9.86182H9.30403C9.29767 9.86182 9.29155 9.85927 9.28705 9.85477C9.28255 9.85027 9.28003 9.84418 9.28003 9.83782V9.75781Z" fill="#FFFF00" stroke="black" stroke-width="0.0666669"/>
<path d="M9.70312 9.75781H9.75112V9.7978H9.78709V9.75781H9.83512V9.7978H9.87113V9.75781H9.91913V9.83782C9.91913 9.85381 9.91112 9.86182 9.89912 9.86182H9.72709C9.72073 9.86182 9.71464 9.85927 9.71014 9.85477C9.70564 9.85027 9.70312 9.84418 9.70312 9.83782V9.75781Z" fill="#FFFF00" stroke="black" stroke-width="0.0666669"/>
<path d="M9.5835 9.82269C9.5835 9.79869 9.6195 9.79869 9.6195 9.82269V9.88671H9.5835V9.82269Z" fill="black"/>
<path d="M9.37158 9.91253C9.37158 9.88853 9.40356 9.88853 9.40356 9.91253V9.96053H9.37158V9.91253Z" fill="black"/>
<path d="M9.79565 9.91253C9.79565 9.88853 9.82766 9.88853 9.82766 9.91253V9.96053H9.79565V9.91253Z" fill="black"/>
<path d="M11.5827 10.3736C11.5787 10.1536 11.4227 10.1016 11.4227 10.1016C11.4187 10.1016 11.2507 10.1576 11.2507 10.3776H11.5827" fill="#FFFF00"/>
<path d="M11.7192 10.1056L11.7472 10.3576H11.5792C11.5792 10.1496 11.4192 10.1176 11.4192 10.1176C11.4152 10.1176 11.2592 10.1616 11.2552 10.3576H11.0872L11.1192 10.1016H11.7192V10.1056ZM11.7592 10.3616H11.0792C11.0672 10.3616 11.0552 10.3736 11.0552 10.3896C11.0552 10.4096 11.0672 10.4216 11.0792 10.4216H11.7592C11.7712 10.4216 11.7832 10.4096 11.7832 10.3896C11.7832 10.3736 11.7712 10.3616 11.7552 10.3616H11.7592Z" fill="#FFFF00" stroke="black" stroke-width="0.0666669"/>
<path d="M11.5109 10.3608C11.5109 10.2288 11.4189 10.1928 11.4189 10.1928C11.4189 10.1928 11.3269 10.2328 11.3269 10.3608H11.5109ZM11.7429 10.0008H11.0909C11.0789 10.0008 11.0669 10.0168 11.0669 10.0328C11.0669 10.0448 11.0789 10.0568 11.0909 10.0568H11.7429C11.7549 10.0568 11.7669 10.0448 11.7669 10.0288C11.7669 10.0168 11.7549 10.0048 11.7429 10.0048V10.0008ZM11.7269 10.0608H11.1109C11.0989 10.0608 11.0869 10.0728 11.0869 10.0888C11.0869 10.1048 11.0989 10.1168 11.1109 10.1168H11.7309C11.7469 10.1168 11.7549 10.1048 11.7549 10.0888C11.7549 10.0728 11.7469 10.0608 11.7309 10.0608H11.7269ZM11.5269 9.6368H11.4789V9.66881H11.4429V9.6368H11.3909V9.6728H11.3549V9.63281H11.3069V9.71282C11.3069 9.72881 11.3149 9.73682 11.3269 9.73682H11.5029C11.5149 9.73682 11.5269 9.72881 11.5269 9.71681V9.6368ZM11.3429 9.7448L11.3309 10.0008H11.5029L11.4909 9.74081H11.3429" fill="#FFFF00"/>
<path d="M11.3429 9.7448L11.3309 10.0008H11.5029L11.4909 9.74081H11.3429M11.5109 10.3608C11.5109 10.2288 11.4189 10.1928 11.4189 10.1928C11.4189 10.1928 11.3269 10.2328 11.3269 10.3608H11.5109ZM11.7429 10.0008H11.0909C11.0789 10.0008 11.0669 10.0168 11.0669 10.0328C11.0669 10.0448 11.0789 10.0568 11.0909 10.0568H11.7429C11.7549 10.0568 11.7669 10.0448 11.7669 10.0288C11.7669 10.0168 11.7549 10.0048 11.7429 10.0048V10.0008ZM11.7269 10.0608H11.1109C11.0989 10.0608 11.0869 10.0728 11.0869 10.0888C11.0869 10.1048 11.0989 10.1168 11.1109 10.1168H11.7309C11.7469 10.1168 11.7549 10.1048 11.7549 10.0888C11.7549 10.0728 11.7469 10.0608 11.7309 10.0608H11.7269ZM11.5269 9.6368H11.4789V9.66881H11.4429V9.6368H11.3909V9.6728H11.3549V9.63281H11.3069V9.71282C11.3069 9.72881 11.3149 9.73682 11.3269 9.73682H11.5029C11.5149 9.73682 11.5269 9.72881 11.5269 9.71681V9.6368Z" stroke="black" stroke-width="0.0666669"/>
<path d="M11.5518 9.86328V9.99927H11.7118V9.86328H11.5518Z" fill="#FFFF00" stroke="black" stroke-width="0.0666669"/>
<path d="M11.1274 9.86328V9.99927H11.2874V9.86328H11.1274Z" fill="#FFFF00" stroke="black" stroke-width="0.0666669"/>
<path d="M11.7387 9.75781H11.6907V9.7978H11.6547V9.75781H11.6067V9.7978H11.5707V9.75781H11.5227V9.83782C11.5227 9.85381 11.5307 9.86182 11.5427 9.86182H11.7147C11.7211 9.86182 11.7272 9.85927 11.7317 9.85477C11.7362 9.85027 11.7387 9.84418 11.7387 9.83782V9.75781Z" fill="#FFFF00" stroke="black" stroke-width="0.0666669"/>
<path d="M11.3156 9.75781H11.2676V9.7978H11.2316V9.75781H11.1836V9.7978H11.1476V9.75781H11.0996V9.83782C11.0996 9.85381 11.1076 9.86182 11.1196 9.86182H11.2916C11.298 9.86182 11.3041 9.85927 11.3086 9.85477C11.3131 9.85027 11.3156 9.84418 11.3156 9.83782V9.75781Z" fill="#FFFF00" stroke="black" stroke-width="0.0666669"/>
<path d="M11.4352 9.82269C11.4352 9.79869 11.3992 9.79869 11.3992 9.82269V9.88671H11.4352V9.82269Z" fill="black"/>
<path d="M11.6472 9.91253C11.6472 9.88853 11.6152 9.88853 11.6152 9.91253V9.96053H11.6472V9.91253Z" fill="black"/>
<path d="M11.2232 9.91253C11.2232 9.88853 11.1912 9.88853 11.1912 9.91253V9.96053H11.2232V9.91253Z" fill="black"/>
<path d="M11.5827 12.2251C11.5787 12.0051 11.4227 11.9531 11.4227 11.9531C11.4187 11.9531 11.2507 12.0091 11.2507 12.2291H11.5827" fill="#FFFF00"/>
<path d="M11.7192 11.9571L11.7472 12.2091H11.5792C11.5792 12.0011 11.4192 11.9691 11.4192 11.9691C11.4152 11.9691 11.2592 12.0131 11.2552 12.2091H11.0872L11.1192 11.9531H11.7192V11.9571ZM11.7592 12.2131H11.0792C11.0672 12.2131 11.0552 12.2251 11.0552 12.2411C11.0552 12.2611 11.0672 12.2731 11.0792 12.2731H11.7592C11.7712 12.2731 11.7832 12.2611 11.7832 12.2411C11.7832 12.2251 11.7712 12.2131 11.7552 12.2131H11.7592Z" fill="#FFFF00" stroke="black" stroke-width="0.0666669"/>
<path d="M11.5109 12.2124C11.5109 12.0804 11.4189 12.0444 11.4189 12.0444C11.4189 12.0444 11.3269 12.0844 11.3269 12.2124H11.5109ZM11.7429 11.8524H11.0909C11.0789 11.8524 11.0669 11.8684 11.0669 11.8844C11.0669 11.8964 11.0789 11.9084 11.0909 11.9084H11.7429C11.7549 11.9084 11.7669 11.8964 11.7669 11.8804C11.7669 11.8684 11.7549 11.8564 11.7429 11.8564V11.8524ZM11.7269 11.9124H11.1109C11.0989 11.9124 11.0869 11.9244 11.0869 11.9404C11.0869 11.9564 11.0989 11.9684 11.1109 11.9684H11.7309C11.7469 11.9684 11.7549 11.9564 11.7549 11.9404C11.7549 11.9244 11.7469 11.9124 11.7309 11.9124H11.7269ZM11.5269 11.4884H11.4789V11.5204H11.4429V11.4884H11.3909V11.5244H11.3549V11.4844H11.3069V11.5644C11.3069 11.5804 11.3149 11.5884 11.3269 11.5884H11.5029C11.5149 11.5884 11.5269 11.5804 11.5269 11.5684V11.4884ZM11.3429 11.5964L11.3309 11.8524H11.5029L11.4909 11.5924H11.3429" fill="#FFFF00"/>
<path d="M11.3429 11.5964L11.3309 11.8524H11.5029L11.4909 11.5924H11.3429M11.5109 12.2124C11.5109 12.0804 11.4189 12.0444 11.4189 12.0444C11.4189 12.0444 11.3269 12.0844 11.3269 12.2124H11.5109ZM11.7429 11.8524H11.0909C11.0789 11.8524 11.0669 11.8684 11.0669 11.8844C11.0669 11.8964 11.0789 11.9084 11.0909 11.9084H11.7429C11.7549 11.9084 11.7669 11.8964 11.7669 11.8804C11.7669 11.8684 11.7549 11.8564 11.7429 11.8564V11.8524ZM11.7269 11.9124H11.1109C11.0989 11.9124 11.0869 11.9244 11.0869 11.9404C11.0869 11.9564 11.0989 11.9684 11.1109 11.9684H11.7309C11.7469 11.9684 11.7549 11.9564 11.7549 11.9404C11.7549 11.9244 11.7469 11.9124 11.7309 11.9124H11.7269ZM11.5269 11.4884H11.4789V11.5204H11.4429V11.4884H11.3909V11.5244H11.3549V11.4844H11.3069V11.5644C11.3069 11.5804 11.3149 11.5884 11.3269 11.5884H11.5029C11.5149 11.5884 11.5269 11.5804 11.5269 11.5684V11.4884Z" stroke="black" stroke-width="0.0666669"/>
<path d="M11.5518 11.7148V11.8509H11.7118V11.7148H11.5518Z" fill="#FFFF00" stroke="black" stroke-width="0.0666669"/>
<path d="M11.1274 11.7148V11.8509H11.2874V11.7148H11.1274Z" fill="#FFFF00" stroke="black" stroke-width="0.0666669"/>
<path d="M11.7387 11.6094H11.6907V11.6494H11.6547V11.6094H11.6067V11.6494H11.5707V11.6094H11.5227V11.6894C11.5227 11.7054 11.5307 11.7134 11.5427 11.7134H11.7147C11.7211 11.7134 11.7272 11.7108 11.7317 11.7063C11.7362 11.7018 11.7387 11.6957 11.7387 11.6894V11.6094Z" fill="#FFFF00" stroke="black" stroke-width="0.0666669"/>
<path d="M11.3156 11.6094H11.2676V11.6494H11.2316V11.6094H11.1836V11.6494H11.1476V11.6094H11.0996V11.6894C11.0996 11.7054 11.1076 11.7134 11.1196 11.7134H11.2916C11.298 11.7134 11.3041 11.7108 11.3086 11.7063C11.3131 11.7018 11.3156 11.6957 11.3156 11.6894V11.6094Z" fill="#FFFF00" stroke="black" stroke-width="0.0666669"/>
<path d="M11.4352 11.6742C11.4352 11.6503 11.3992 11.6503 11.3992 11.6742V11.7382H11.4352V11.6742Z" fill="black"/>
<path d="M11.6472 11.7641C11.6472 11.7401 11.6152 11.7401 11.6152 11.7641V11.8121H11.6472V11.7641Z" fill="black"/>
<path d="M11.2232 11.7641C11.2232 11.7401 11.1912 11.7401 11.1912 11.7641V11.8121H11.2232V11.7641Z" fill="black"/>
<path d="M10.8613 14.1563C11.0146 13.9985 10.9416 13.8511 10.9416 13.8511C10.9387 13.8483 10.7806 13.7686 10.6245 13.9236L10.8584 14.1592" fill="#FFFF00"/>
<path d="M11.147 14.0653L10.9879 14.2627L10.8695 14.1435C11.0171 13.9969 10.9271 13.8608 10.9271 13.8608C10.9243 13.858 10.7831 13.7783 10.6412 13.9136L10.5228 13.7944L10.727 13.6367L11.1498 14.0624L11.147 14.0653ZM10.9935 14.274L10.5144 13.7915C10.5059 13.783 10.4889 13.783 10.4776 13.7942C10.4634 13.8083 10.4633 13.8253 10.4718 13.8338L10.951 14.3163C10.9594 14.3248 10.9764 14.3249 10.9906 14.3108C11.0019 14.2995 11.002 14.2826 10.9907 14.2712L10.9935 14.274Z" fill="#FFFF00" stroke="black" stroke-width="0.0666669"/>
<path d="M10.8213 14.0953C10.915 14.0022 10.8757 13.9116 10.8757 13.9116C10.8757 13.9116 10.7825 13.8745 10.6917 13.9647L10.8213 14.0953ZM11.2402 14.0062L10.7808 13.5436C10.7724 13.535 10.7525 13.5378 10.7412 13.5491C10.7327 13.5575 10.7326 13.5745 10.7411 13.583L11.2005 14.0457C11.2089 14.0542 11.2259 14.0542 11.2373 14.043C11.2458 14.0345 11.2458 14.0175 11.2374 14.009L11.2402 14.0062ZM11.1864 14.0371L10.7523 13.6C10.7439 13.5915 10.7269 13.5915 10.7155 13.6027C10.7042 13.614 10.7041 13.631 10.7126 13.6395L11.1495 14.0794C11.1607 14.0908 11.1749 14.088 11.1862 14.0767C11.1976 14.0654 11.2005 14.0513 11.1892 14.04L11.1864 14.0371ZM11.3463 13.5964L11.3125 13.5624L11.2898 13.5849L11.2644 13.5594L11.2871 13.5368L11.2505 13.4999L11.2249 13.5253L11.1996 13.4998L11.2279 13.4716L11.1941 13.4375L11.1374 13.4939C11.126 13.5052 11.126 13.5165 11.1344 13.525L11.2584 13.6499C11.2669 13.6584 11.281 13.6613 11.2895 13.6528L11.3463 13.5964ZM11.14 13.542L10.9499 13.7139L11.0711 13.8359L11.2471 13.6442L11.1429 13.5392" fill="#FFFF00"/>
<path d="M11.14 13.542L10.9499 13.7139L11.0711 13.8359L11.2471 13.6442L11.1429 13.5392M10.8213 14.0953C10.915 14.0022 10.8757 13.9116 10.8757 13.9116C10.8757 13.9116 10.7825 13.8745 10.6917 13.9647L10.8213 14.0953ZM11.2402 14.0062L10.7808 13.5436C10.7724 13.535 10.7525 13.5378 10.7412 13.5491C10.7327 13.5575 10.7326 13.5745 10.7411 13.583L11.2005 14.0457C11.2089 14.0542 11.2259 14.0542 11.2373 14.043C11.2458 14.0345 11.2458 14.0175 11.2374 14.009L11.2402 14.0062ZM11.1864 14.0371L10.7523 13.6C10.7439 13.5915 10.7269 13.5915 10.7155 13.6027C10.7042 13.614 10.7041 13.631 10.7126 13.6395L11.1495 14.0794C11.1607 14.0908 11.1749 14.088 11.1862 14.0767C11.1976 14.0654 11.2005 14.0513 11.1892 14.04L11.1864 14.0371ZM11.3463 13.5964L11.3125 13.5624L11.2898 13.5849L11.2644 13.5594L11.2871 13.5368L11.2505 13.4999L11.2249 13.5253L11.1996 13.4998L11.2279 13.4716L11.1941 13.4375L11.1374 13.4939C11.126 13.5052 11.126 13.5165 11.1344 13.525L11.2584 13.6499C11.2669 13.6584 11.281 13.6613 11.2895 13.6528L11.3463 13.5964Z" stroke="black" stroke-width="0.0666669"/>
<path d="M11.2017 13.7734L11.1052 13.8693L11.218 13.9828L11.3144 13.887L11.2017 13.7734Z" fill="#FFFF00" stroke="black" stroke-width="0.0666669"/>
<path d="M10.9029 13.4727L10.8064 13.5685L10.9191 13.682L11.0156 13.5862L10.9029 13.4727Z" fill="#FFFF00" stroke="black" stroke-width="0.0666669"/>
<path d="M11.4081 13.833L11.3743 13.7989L11.3459 13.8271L11.3205 13.8015L11.3489 13.7733L11.3151 13.7393L11.2867 13.7675L11.2613 13.7419L11.2897 13.7138L11.2559 13.6797L11.1991 13.7361C11.1878 13.7473 11.1877 13.7586 11.1962 13.7672L11.3174 13.8892C11.3219 13.8937 11.328 13.8963 11.3343 13.8963C11.3407 13.8963 11.3468 13.8938 11.3513 13.8893L11.4081 13.833Z" fill="#FFFF00" stroke="black" stroke-width="0.0666669"/>
<path d="M11.1093 13.5322L11.0754 13.4981L11.0471 13.5263L11.0217 13.5008L11.0501 13.4726L11.0163 13.4385L10.9879 13.4667L10.9625 13.4412L10.9909 13.413L10.9571 13.3789L10.9003 13.4353C10.8889 13.4466 10.8889 13.4579 10.8974 13.4664L11.0186 13.5884C11.023 13.593 11.0292 13.5955 11.0355 13.5955C11.0419 13.5955 11.048 13.593 11.0525 13.5885L11.1093 13.5322Z" fill="#FFFF00" stroke="black" stroke-width="0.0666669"/>
<path d="M11.1482 13.6639C11.1652 13.647 11.1399 13.6214 11.1228 13.6384L11.0774 13.6835L11.1028 13.709L11.1482 13.6639Z" fill="black"/>
<path d="M11.2361 13.8763C11.2531 13.8594 11.2305 13.8367 11.2135 13.8536L11.1794 13.8874L11.202 13.9101L11.2361 13.8763Z" fill="black"/>
<path d="M10.9372 13.5756C10.9543 13.5586 10.9317 13.5359 10.9147 13.5528L10.8806 13.5867L10.9032 13.6094L10.9372 13.5756Z" fill="black"/>
<path d="M9.30348 12.2953C9.30273 12.3797 9.3342 12.4612 9.39147 12.5233C9.41817 12.5532 9.45084 12.5771 9.48735 12.5937C9.52383 12.6102 9.5634 12.6189 9.60348 12.6193C9.68748 12.6193 9.76347 12.5793 9.81546 12.5233C9.87273 12.4612 9.9042 12.3797 9.90348 12.2953V11.8633H9.30348V12.2953Z" fill="#003399"/>
<path d="M9.4433 12.0887C9.47645 12.0887 9.5033 12.0619 9.5033 12.0288C9.5033 11.9956 9.47645 11.9688 9.4433 11.9688C9.41018 11.9688 9.3833 11.9956 9.3833 12.0288C9.3833 12.0619 9.41018 12.0887 9.4433 12.0887Z" fill="white"/>
<path d="M9.77606 12.0887C9.80921 12.0887 9.83606 12.0619 9.83606 12.0288C9.83606 11.9956 9.80921 11.9688 9.77606 11.9688C9.74294 11.9688 9.71606 11.9956 9.71606 12.0288C9.71606 12.0619 9.74294 12.0887 9.77606 12.0887Z" fill="white"/>
<path d="M9.60736 12.2489C9.64051 12.2489 9.66736 12.2221 9.66736 12.1889C9.66736 12.1558 9.64051 12.1289 9.60736 12.1289C9.57424 12.1289 9.54736 12.1558 9.54736 12.1889C9.54736 12.2221 9.57424 12.2489 9.60736 12.2489Z" fill="white"/>
<path d="M9.4433 12.4169C9.47645 12.4169 9.5033 12.39 9.5033 12.3569C9.5033 12.3238 9.47645 12.2969 9.4433 12.2969C9.41018 12.2969 9.3833 12.3238 9.3833 12.3569C9.3833 12.39 9.41018 12.4169 9.4433 12.4169Z" fill="white"/>
<path d="M9.77606 12.4169C9.80921 12.4169 9.83606 12.39 9.83606 12.3569C9.83606 12.3238 9.80921 12.2969 9.77606 12.2969C9.74294 12.2969 9.71606 12.3238 9.71606 12.3569C9.71606 12.39 9.74294 12.4169 9.77606 12.4169Z" fill="white"/>
<path d="M9.30348 11.2562C9.30273 11.3406 9.3342 11.4222 9.39147 11.4842C9.41817 11.5141 9.45084 11.538 9.48735 11.5546C9.52383 11.5711 9.5634 11.5798 9.60348 11.5802C9.68748 11.5802 9.76347 11.5402 9.81546 11.4842C9.87273 11.4222 9.9042 11.3406 9.90348 11.2562V10.8242H9.30348V11.2562Z" fill="#003399"/>
<path d="M9.4433 11.0458C9.47645 11.0458 9.5033 11.0189 9.5033 10.9858C9.5033 10.9527 9.47645 10.9258 9.4433 10.9258C9.41018 10.9258 9.3833 10.9527 9.3833 10.9858C9.3833 11.0189 9.41018 11.0458 9.4433 11.0458Z" fill="white"/>
<path d="M9.77606 11.0458C9.80921 11.0458 9.83606 11.0189 9.83606 10.9858C9.83606 10.9527 9.80921 10.9258 9.77606 10.9258C9.74294 10.9258 9.71606 10.9527 9.71606 10.9858C9.71606 11.0189 9.74294 11.0458 9.77606 11.0458Z" fill="white"/>
<path d="M9.60736 11.2059C9.64051 11.2059 9.66736 11.1791 9.66736 11.1459C9.66736 11.1128 9.64051 11.0859 9.60736 11.0859C9.57424 11.0859 9.54736 11.1128 9.54736 11.1459C9.54736 11.1791 9.57424 11.2059 9.60736 11.2059Z" fill="white"/>
<path d="M9.4433 11.3739C9.47645 11.3739 9.5033 11.347 9.5033 11.3139C9.5033 11.2808 9.47645 11.2539 9.4433 11.2539C9.41018 11.2539 9.3833 11.2808 9.3833 11.3139C9.3833 11.347 9.41018 11.3739 9.4433 11.3739Z" fill="white"/>
<path d="M9.77606 11.3739C9.80921 11.3739 9.83606 11.347 9.83606 11.3139C9.83606 11.2808 9.80921 11.2539 9.77606 11.2539C9.74294 11.2539 9.71606 11.2808 9.71606 11.3139C9.71606 11.347 9.74294 11.3739 9.77606 11.3739Z" fill="white"/>
<path d="M8.47145 12.2953C8.47073 12.3797 8.5022 12.4612 8.55947 12.5233C8.58617 12.5532 8.61881 12.5771 8.65532 12.5937C8.69183 12.6102 8.7314 12.6189 8.77145 12.6193C8.85545 12.6193 8.93147 12.5793 8.98346 12.5233C9.0407 12.4612 9.07217 12.3797 9.07145 12.2953V11.8633H8.47145V12.2953Z" fill="#003399"/>
<path d="M8.61127 12.0887C8.64442 12.0887 8.67127 12.0619 8.67127 12.0288C8.67127 11.9956 8.64442 11.9688 8.61127 11.9688C8.57812 11.9688 8.55127 11.9956 8.55127 12.0288C8.55127 12.0619 8.57812 12.0887 8.61127 12.0887Z" fill="white"/>
<path d="M8.94403 12.0887C8.97715 12.0887 9.00403 12.0619 9.00403 12.0288C9.00403 11.9956 8.97715 11.9688 8.94403 11.9688C8.91088 11.9688 8.88403 11.9956 8.88403 12.0288C8.88403 12.0619 8.91088 12.0887 8.94403 12.0887Z" fill="white"/>
<path d="M8.77533 12.2489C8.80845 12.2489 8.83533 12.2221 8.83533 12.1889C8.83533 12.1558 8.80845 12.1289 8.77533 12.1289C8.74218 12.1289 8.71533 12.1558 8.71533 12.1889C8.71533 12.2221 8.74218 12.2489 8.77533 12.2489Z" fill="white"/>
<path d="M8.61127 12.4169C8.64442 12.4169 8.67127 12.39 8.67127 12.3569C8.67127 12.3238 8.64442 12.2969 8.61127 12.2969C8.57812 12.2969 8.55127 12.3238 8.55127 12.3569C8.55127 12.39 8.57812 12.4169 8.61127 12.4169Z" fill="white"/>
<path d="M8.94403 12.4169C8.97715 12.4169 9.00403 12.39 9.00403 12.3569C9.00403 12.3238 8.97715 12.2969 8.94403 12.2969C8.91088 12.2969 8.88403 12.3238 8.88403 12.3569C8.88403 12.39 8.91088 12.4169 8.94403 12.4169Z" fill="white"/>
<path d="M10.1355 12.2953C10.1348 12.3797 10.1663 12.4612 10.2235 12.5233C10.2502 12.5532 10.2829 12.5771 10.3194 12.5937C10.3559 12.6102 10.3954 12.6189 10.4355 12.6193C10.5195 12.6193 10.5955 12.5793 10.6475 12.5233C10.7048 12.4612 10.7362 12.3797 10.7355 12.2953V11.8633H10.1355V12.2953Z" fill="#003399"/>
<path d="M10.2753 12.0887C10.3085 12.0887 10.3353 12.0619 10.3353 12.0288C10.3353 11.9956 10.3085 11.9688 10.2753 11.9688C10.2422 11.9688 10.2153 11.9956 10.2153 12.0288C10.2153 12.0619 10.2422 12.0887 10.2753 12.0887Z" fill="white"/>
<path d="M10.6081 12.0887C10.6412 12.0887 10.6681 12.0619 10.6681 12.0288C10.6681 11.9956 10.6412 11.9688 10.6081 11.9688C10.5749 11.9688 10.5481 11.9956 10.5481 12.0288C10.5481 12.0619 10.5749 12.0887 10.6081 12.0887Z" fill="white"/>
<path d="M10.4394 12.2489C10.4725 12.2489 10.4994 12.2221 10.4994 12.1889C10.4994 12.1558 10.4725 12.1289 10.4394 12.1289C10.4062 12.1289 10.3794 12.1558 10.3794 12.1889C10.3794 12.2221 10.4062 12.2489 10.4394 12.2489Z" fill="white"/>
<path d="M10.2753 12.4169C10.3085 12.4169 10.3353 12.39 10.3353 12.3569C10.3353 12.3238 10.3085 12.2969 10.2753 12.2969C10.2422 12.2969 10.2153 12.3238 10.2153 12.3569C10.2153 12.39 10.2422 12.4169 10.2753 12.4169Z" fill="white"/>
<path d="M10.6081 12.4169C10.6412 12.4169 10.6681 12.39 10.6681 12.3569C10.6681 12.3238 10.6412 12.2969 10.6081 12.2969C10.5749 12.2969 10.5481 12.3238 10.5481 12.3569C10.5481 12.39 10.5749 12.4169 10.6081 12.4169Z" fill="white"/>
<path d="M9.30348 13.3265C9.30273 13.411 9.3342 13.4925 9.39147 13.5545C9.41817 13.5844 9.45084 13.6084 9.48735 13.6249C9.52383 13.6414 9.5634 13.6502 9.60348 13.6505C9.68748 13.6505 9.76347 13.6105 9.81546 13.5545C9.87273 13.4925 9.9042 13.411 9.90348 13.3265V12.8945H9.30348V13.3265Z" fill="#003399"/>
<path d="M9.4433 13.12C9.47645 13.12 9.5033 13.0931 9.5033 13.06C9.5033 13.0268 9.47645 13 9.4433 13C9.41018 13 9.3833 13.0268 9.3833 13.06C9.3833 13.0931 9.41018 13.12 9.4433 13.12Z" fill="white"/>
<path d="M9.77606 13.12C9.80921 13.12 9.83606 13.0931 9.83606 13.06C9.83606 13.0268 9.80921 13 9.77606 13C9.74294 13 9.71606 13.0268 9.71606 13.06C9.71606 13.0931 9.74294 13.12 9.77606 13.12Z" fill="white"/>
<path d="M9.60736 13.2802C9.64051 13.2802 9.66736 13.2533 9.66736 13.2202C9.66736 13.187 9.64051 13.1602 9.60736 13.1602C9.57424 13.1602 9.54736 13.187 9.54736 13.2202C9.54736 13.2533 9.57424 13.2802 9.60736 13.2802Z" fill="white"/>
<path d="M9.4433 13.4481C9.47645 13.4481 9.5033 13.4213 9.5033 13.3881C9.5033 13.355 9.47645 13.3281 9.4433 13.3281C9.41018 13.3281 9.3833 13.355 9.3833 13.3881C9.3833 13.4213 9.41018 13.4481 9.4433 13.4481Z" fill="white"/>
<path d="M9.77606 13.4481C9.80921 13.4481 9.83606 13.4213 9.83606 13.3881C9.83606 13.355 9.80921 13.3281 9.77606 13.3281C9.74294 13.3281 9.71606 13.355 9.71606 13.3881C9.71606 13.4213 9.74294 13.4481 9.77606 13.4481Z" fill="white"/>
</g>
<defs>
<clipPath id="clip0_1181_36281">
<rect width="24" height="24" rx="12" fill="white"/>
</clipPath>
</defs>
</svg>
