<svg width="24" height="24" viewBox="0 0 24 24" fill="none" xmlns="http://www.w3.org/2000/svg">
<g clip-path="url(#clip0_894_27330)">
<g filter="url(#filter0_d_894_27330)">
<path d="M12 23.4375C18.4203 23.4375 23.625 18.2328 23.625 11.8125C23.625 5.39219 18.4203 0.1875 12 0.1875C5.57969 0.1875 0.375 5.39219 0.375 11.8125C0.375 18.2328 5.57969 23.4375 12 23.4375Z" fill="url(#paint0_linear_894_27330)"/>
</g>
<path d="M12 22.5688C17.9388 22.5688 22.7531 17.7544 22.7531 11.8156C22.7531 5.87684 17.9388 1.0625 12 1.0625C6.06123 1.0625 1.24689 5.87684 1.24689 11.8156C1.24689 17.7544 6.06123 22.5688 12 22.5688Z" fill="url(#paint1_radial_894_27330)"/>
<path d="M12.0182 3.66803C11.9455 3.66803 11.882 3.61356 11.882 3.54091V1.64275C11.882 1.57009 11.9455 1.51562 12.0182 1.51562C12.0908 1.51562 12.1544 1.57009 12.1544 1.64275V3.54091C12.1453 3.61356 12.0908 3.66803 12.0182 3.66803Z" fill="#F3F3F3"/>
<path d="M12.0182 3.67841C11.9364 3.67841 11.8729 3.61484 11.8729 3.54219V1.64403C11.8729 1.57137 11.9364 1.50781 12.0182 1.50781C12.0999 1.50781 12.1635 1.57137 12.1635 1.64403V3.54219C12.1635 3.61484 12.0908 3.67841 12.0182 3.67841ZM12.0182 1.52591C11.9546 1.52591 11.8911 1.58047 11.8911 1.64403V3.54219C11.8911 3.60575 11.9455 3.66031 12.0182 3.66031C12.0817 3.66031 12.1453 3.60575 12.1453 3.54219V1.64403C12.1363 1.58047 12.0817 1.52591 12.0182 1.52591Z" fill="white"/>
<path d="M12.9264 2.65462C12.8538 2.64552 12.7993 2.59105 12.7993 2.5184L12.8629 1.67371C12.8719 1.60115 12.9355 1.54659 13.0082 1.55568C13.0808 1.56477 13.1353 1.61934 13.1353 1.69199L13.0718 2.53659C13.0627 2.60924 12.9991 2.66362 12.9264 2.65462Z" fill="#F3F3F3"/>
<path d="M12.9264 2.66485C12.8447 2.65576 12.7902 2.5922 12.7902 2.51954L12.8538 1.67485C12.8629 1.60229 12.9264 1.53873 13.0082 1.54773C13.0898 1.55682 13.1444 1.62048 13.1444 1.69304L13.0808 2.53773C13.0718 2.61948 13.0082 2.67395 12.9264 2.66485ZM13.0082 1.56592C12.9446 1.56592 12.881 1.61138 12.881 1.67495L12.8174 2.51963C12.8174 2.5831 12.8629 2.63767 12.9355 2.64667C12.9991 2.64667 13.0627 2.60129 13.0627 2.53773L13.1262 1.69304C13.1262 1.62948 13.0718 1.57501 13.0082 1.56592Z" fill="white"/>
<path d="M13.6076 3.83889C13.5349 3.8207 13.4895 3.75714 13.4986 3.68448L13.871 1.8226C13.8892 1.75004 13.9527 1.70457 14.0254 1.72276C14.098 1.74095 14.1434 1.80451 14.1343 1.87717L13.7619 3.73904C13.7528 3.80251 13.6802 3.84798 13.6075 3.83889H13.6076Z" fill="#F3F3F3"/>
<path d="M13.6076 3.84096C13.5258 3.82278 13.4804 3.75012 13.4895 3.67746L13.8619 1.81559C13.8801 1.74303 13.9527 1.68846 14.0344 1.70665C14.1161 1.72484 14.1616 1.79749 14.1525 1.87015L13.7801 3.73203C13.7619 3.80459 13.6893 3.85006 13.6076 3.84096ZM14.0344 1.72484C13.9708 1.71574 13.9072 1.75203 13.8891 1.81568L13.5168 3.67756C13.5077 3.74103 13.544 3.80459 13.6166 3.82287C13.6802 3.83187 13.7437 3.79549 13.7619 3.73193L14.1343 1.87015C14.1434 1.79749 14.098 1.74303 14.0344 1.72484Z" fill="white"/>
<path d="M14.6974 3.01379C14.6801 3.00962 14.6638 3.00208 14.6494 2.99161C14.635 2.98113 14.6229 2.96792 14.6136 2.95274C14.6043 2.93755 14.5981 2.92069 14.5954 2.90311C14.5926 2.88553 14.5934 2.86758 14.5976 2.85029L14.8246 2.03298C14.8427 1.96032 14.9154 1.92395 14.988 1.94214C15.0607 1.96032 15.1062 2.03298 15.088 2.10564L14.8609 2.92304C14.8427 2.9956 14.7701 3.03198 14.6974 3.01379Z" fill="#F3F3F3"/>
<path d="M14.6974 3.02354C14.6247 3.00535 14.5703 2.9236 14.5975 2.85104L14.8246 2.03354C14.8427 1.96098 14.9245 1.91551 14.9971 1.9337C15.0698 1.95189 15.1242 2.03364 15.097 2.1062L14.87 2.9237C14.8518 2.99626 14.7791 3.04173 14.6975 3.02354H14.6974ZM14.9971 1.96098C14.9336 1.94279 14.8609 1.97917 14.8427 2.04273L14.6157 2.86004C14.5975 2.9236 14.6338 2.98726 14.7065 3.00535C14.77 3.02354 14.8427 2.98726 14.8609 2.9237L15.088 2.1062C15.097 2.04273 15.0608 1.97917 14.9971 1.96089V1.96098Z" fill="white"/>
<path d="M15.1424 4.30033C15.0698 4.27305 15.0426 4.1913 15.0698 4.12773L15.7963 2.37489C15.8235 2.31133 15.9054 2.27495 15.9688 2.31133C16.0416 2.33851 16.0689 2.42036 16.0416 2.48383L15.315 4.23667C15.2878 4.30033 15.206 4.33661 15.1425 4.30033H15.1424Z" fill="#F3F3F3"/>
<path d="M15.1424 4.30663C15.1075 4.29333 15.0793 4.26674 15.064 4.23268C15.0487 4.19862 15.0475 4.15988 15.0607 4.12494L15.7872 2.3721C15.8145 2.29944 15.8963 2.27216 15.978 2.29944C16.0129 2.31274 16.0411 2.33933 16.0564 2.37339C16.0718 2.40745 16.073 2.44619 16.0598 2.48113L15.3332 4.23397C15.2968 4.30663 15.2151 4.34291 15.1424 4.30663ZM15.9689 2.31763C15.9054 2.29044 15.8327 2.31763 15.8054 2.38119L15.0789 4.13403C15.0517 4.1976 15.088 4.26116 15.1515 4.28844C15.2151 4.31563 15.2877 4.28844 15.315 4.22488L16.0416 2.47204C16.0598 2.41747 16.0325 2.34482 15.9689 2.31763Z" fill="white"/>
<path d="M16.3686 3.71595C16.3049 3.67957 16.2776 3.60692 16.3049 3.54335L16.6864 2.7896C16.7227 2.72595 16.7953 2.69867 16.8681 2.73504C16.9316 2.77142 16.9588 2.84407 16.9316 2.90754L16.5501 3.66139C16.5138 3.72495 16.4411 3.75232 16.3685 3.71595H16.3686Z" fill="#F3F3F3"/>
<path d="M16.3686 3.72731C16.2958 3.69094 16.2687 3.60919 16.3049 3.53653L16.6864 2.78278C16.7227 2.71003 16.8045 2.68284 16.8771 2.71913C16.9498 2.7555 16.977 2.83725 16.9407 2.90991L16.5593 3.66366C16.5229 3.73631 16.4412 3.76359 16.3685 3.72722L16.3686 3.72731ZM16.8681 2.73731C16.8044 2.71013 16.7318 2.72822 16.7046 2.79178L16.3231 3.54563C16.2959 3.60009 16.3231 3.67275 16.3776 3.70913C16.4412 3.73631 16.5138 3.71822 16.5411 3.65466L16.9226 2.90081C16.9498 2.84634 16.9226 2.77369 16.8681 2.73731Z" fill="white"/>
<path d="M16.5502 5.06041C16.4866 5.01503 16.4684 4.93328 16.5138 4.87881L17.5673 3.30756C17.6036 3.244 17.6855 3.23491 17.7489 3.27128C17.8126 3.31666 17.8307 3.39841 17.7853 3.45287L16.7317 5.02412C16.6955 5.08769 16.6137 5.10587 16.5502 5.06041Z" fill="#F3F3F3"/>
<path d="M16.5502 5.06695C16.4866 5.02158 16.4684 4.93073 16.5048 4.86717L17.5583 3.29592C17.6037 3.23236 17.6854 3.21417 17.7581 3.25964C17.8216 3.30501 17.8398 3.39586 17.8035 3.45942L16.75 5.03067C16.7046 5.09423 16.6137 5.11233 16.5502 5.06695ZM17.749 3.27783C17.6946 3.24145 17.6127 3.25054 17.5765 3.30501L16.5229 4.87626C16.4866 4.93064 16.5047 5.00339 16.5593 5.03967C16.6137 5.07604 16.6955 5.06695 16.7318 5.01248L17.7853 3.45033C17.8216 3.39586 17.8035 3.31411 17.749 3.27783Z" fill="white"/>
<path d="M17.8761 4.72781C17.8217 4.68234 17.8035 4.60059 17.8489 4.54612L18.3757 3.88312C18.421 3.82875 18.5028 3.81956 18.5573 3.86503C18.6118 3.9104 18.6299 3.99215 18.5845 4.04662L18.0578 4.70962C18.0124 4.76409 17.9305 4.77318 17.8761 4.72781Z" fill="#F3F3F3"/>
<path d="M17.8671 4.73711C17.8035 4.69164 17.7944 4.6008 17.8399 4.53723L18.3666 3.87433C18.4119 3.81067 18.5028 3.80158 18.5664 3.85614C18.6299 3.90151 18.639 3.99236 18.5935 4.05592L18.0669 4.71892C18.0215 4.78248 17.9306 4.79158 17.8671 4.73711ZM18.5482 3.87423C18.4938 3.82886 18.421 3.83795 18.3757 3.89242L17.8489 4.55542C17.8126 4.60989 17.8217 4.68255 17.8761 4.72792C17.9306 4.77339 18.0033 4.7643 18.0487 4.70983L18.5754 4.04683C18.6118 3.99236 18.6026 3.91061 18.5483 3.87433L18.5482 3.87423Z" fill="white"/>
<path d="M17.7854 6.08549C17.7309 6.03102 17.7309 5.94927 17.7854 5.9038L19.1295 4.5688C19.184 4.51433 19.2657 4.52333 19.3111 4.5688C19.3565 4.61418 19.3656 4.70502 19.3111 4.7504L17.9761 6.08549C17.9216 6.13996 17.8398 6.13996 17.7854 6.08549Z" fill="#F3F3F3"/>
<path d="M17.7762 6.09923C17.75 6.07258 17.7354 6.03671 17.7354 5.99934C17.7354 5.96197 17.75 5.9261 17.7762 5.89945L19.1203 4.56436C19.147 4.53813 19.1829 4.52344 19.2203 4.52344C19.2576 4.52344 19.2935 4.53813 19.3202 4.56436C19.3464 4.59101 19.3611 4.62688 19.3611 4.66425C19.3611 4.70162 19.3464 4.73749 19.3202 4.76414L17.976 6.09914C17.9494 6.12533 17.9135 6.14001 17.8761 6.14001C17.8387 6.14001 17.8029 6.12543 17.7762 6.09923ZM19.3111 4.57345C19.2657 4.52798 19.184 4.52798 19.1386 4.57345L17.7944 5.90845C17.7489 5.95392 17.7489 6.03567 17.7944 6.08104C17.8398 6.12651 17.9215 6.12651 17.9669 6.08104L19.3111 4.74604C19.3565 4.70057 19.3565 4.62792 19.3111 4.57345Z" fill="white"/>
<path d="M19.1476 6.01345C19.1022 5.95898 19.1022 5.87723 19.1567 5.83176L19.8015 5.28689C19.856 5.24151 19.9377 5.25051 19.9832 5.30507C20.0286 5.35954 20.0286 5.44129 19.9741 5.48667L19.3293 6.03164C19.2747 6.07701 19.193 6.06792 19.1476 6.01345Z" fill="#F3F3F3"/>
<path d="M19.1385 6.02269C19.084 5.95913 19.0931 5.86829 19.1476 5.82291L19.7924 5.27794C19.8469 5.22348 19.9377 5.23257 19.9922 5.29613C20.0468 5.35969 20.0377 5.45054 19.9832 5.49591L19.3383 6.04088C19.2839 6.09526 19.193 6.08626 19.1386 6.02269H19.1385ZM19.9741 5.30523C19.9286 5.25076 19.856 5.25076 19.8016 5.28704L19.1567 5.83201C19.1113 5.87738 19.1022 5.95004 19.1476 6.00451C19.193 6.05898 19.2657 6.05898 19.3201 6.02269L19.965 5.47773C20.0195 5.43235 20.0195 5.35969 19.9741 5.30523Z" fill="white"/>
<path d="M18.7843 7.32439C18.739 7.26083 18.7572 7.17908 18.8207 7.14271L20.401 6.08924C20.4645 6.05286 20.5463 6.07105 20.5826 6.12561C20.628 6.18917 20.6098 6.27092 20.5463 6.30721L18.966 7.36067C18.9115 7.39705 18.8297 7.37886 18.7843 7.32439Z" fill="#F3F3F3"/>
<path d="M18.7753 7.32494C18.7299 7.26138 18.7481 7.17054 18.8116 7.12516L20.3919 6.0716C20.4554 6.02622 20.5463 6.04441 20.5917 6.11707C20.6371 6.18063 20.6188 6.27147 20.5554 6.31676L18.9751 7.37041C18.9115 7.41588 18.8207 7.3976 18.7753 7.32494ZM20.5735 6.13526C20.5372 6.08069 20.4645 6.06251 20.4101 6.09888L18.8297 7.15235C18.7753 7.18872 18.7571 7.26138 18.8025 7.32494C18.8388 7.37941 18.9115 7.3976 18.966 7.36132L20.5463 6.30776C20.6008 6.26238 20.6098 6.18963 20.5735 6.13526Z" fill="white"/>
<path d="M20.1376 7.51417C20.1012 7.45052 20.1194 7.36886 20.183 7.33249L20.9187 6.91474C20.9822 6.87836 21.064 6.90564 21.1002 6.96911C21.1366 7.03277 21.1184 7.11442 21.0549 7.1508L20.3192 7.56864C20.2557 7.60492 20.1739 7.57774 20.1375 7.51408L20.1376 7.51417Z" fill="#F3F3F3"/>
<path d="M20.1285 7.52317C20.0922 7.45052 20.1103 7.36877 20.1739 7.33249L20.9096 6.91474C20.9731 6.87836 21.064 6.90564 21.1002 6.96911C21.1366 7.04186 21.1184 7.12361 21.0549 7.15989L20.3192 7.57774C20.2557 7.61402 20.1648 7.58674 20.1285 7.52317ZM21.0912 6.9783C21.0549 6.91474 20.9822 6.89655 20.9277 6.93283L20.1921 7.35067C20.1376 7.38695 20.1194 7.45961 20.1466 7.51408C20.183 7.57764 20.2557 7.59583 20.3101 7.55955L21.0458 7.1417C21.1002 7.11452 21.1184 7.04186 21.0912 6.9783Z" fill="white"/>
<path d="M19.5291 8.72074C19.5019 8.64808 19.5291 8.57543 19.6017 8.54824L21.3546 7.82168C21.4181 7.7944 21.4999 7.83068 21.5271 7.89424C21.5544 7.9669 21.5271 8.03955 21.4544 8.06674L19.7017 8.7933C19.638 8.82058 19.5564 8.7933 19.5291 8.72074Z" fill="#F3F3F3"/>
<path d="M19.52 8.731C19.4928 8.65844 19.52 8.57669 19.5926 8.54032L21.3455 7.81375C21.3804 7.80059 21.4191 7.8018 21.4532 7.81712C21.4872 7.83245 21.5138 7.86063 21.5271 7.8955C21.5544 7.96816 21.5271 8.04991 21.4544 8.08619L19.7017 8.81275C19.6667 8.82595 19.628 8.82477 19.594 8.80946C19.5599 8.79416 19.5333 8.76588 19.52 8.731ZM21.509 7.9046C21.4817 7.84104 21.409 7.81375 21.3546 7.83194L19.6017 8.5585C19.5382 8.58569 19.5109 8.65844 19.5382 8.722C19.5654 8.78557 19.638 8.81285 19.6926 8.79466L21.4453 8.0681C21.509 8.04091 21.5363 7.96816 21.509 7.9046Z" fill="white"/>
<path d="M20.8096 9.17845C20.7824 9.1057 20.8187 9.03313 20.8914 9.00585L21.6906 8.74242C21.7541 8.71523 21.8359 8.7606 21.8541 8.82417C21.8813 8.89682 21.845 8.96948 21.7723 8.99676L20.9731 9.2602C20.9096 9.28738 20.8369 9.2511 20.8096 9.17835V9.17845Z" fill="#F3F3F3"/>
<path d="M20.8005 9.18737C20.7734 9.11472 20.8096 9.03297 20.8915 9.00578L21.6906 8.74234C21.7633 8.71515 21.845 8.76053 21.8723 8.83328C21.8995 8.90584 21.8632 8.98759 21.7814 9.01487L20.9822 9.27831C20.9096 9.2964 20.8278 9.26003 20.8005 9.18737ZM21.8541 8.84237C21.8359 8.77872 21.7633 8.74234 21.6997 8.76053L20.9005 9.02397C20.8369 9.04206 20.8096 9.11472 20.8278 9.17837C20.846 9.24194 20.9187 9.27822 20.9822 9.26003L21.7815 8.99668C21.845 8.9695 21.8723 8.90593 21.8541 8.84237Z" fill="white"/>
<path d="M19.9923 10.2556C19.9741 10.1829 20.0195 10.1103 20.0921 10.1012L21.954 9.7379C22.0266 9.71972 22.0902 9.77419 22.1083 9.84684C22.1265 9.9195 22.0811 9.99215 22.0085 10.0012L20.1466 10.3645C20.074 10.3736 20.0013 10.3282 19.9922 10.2556H19.9923Z" fill="#F3F3F3"/>
<path d="M19.9741 10.2581C19.9559 10.1764 20.0104 10.1037 20.083 10.0855L21.9449 9.72225C22.0176 9.70407 22.0902 9.75863 22.1083 9.84038C22.1265 9.92204 22.072 9.99469 21.9994 10.0129L20.1375 10.3762C20.065 10.3943 19.9922 10.3399 19.9741 10.258V10.2581ZM22.0902 9.84938C22.0811 9.78582 22.0176 9.74044 21.954 9.74954L20.0921 10.1128C20.0286 10.1219 19.9832 10.1945 20.0013 10.2581C20.0104 10.3217 20.074 10.3671 20.1376 10.358L21.9994 9.99469C22.063 9.9765 22.1083 9.91294 22.0902 9.84938Z" fill="white"/>
<path d="M21.1548 10.9572C21.1457 10.8845 21.1911 10.8209 21.2637 10.8118L22.0992 10.7119C22.1719 10.7029 22.2355 10.7574 22.2445 10.83C22.2536 10.9027 22.2082 10.9663 22.1356 10.9753L21.3 11.0752C21.2364 11.0843 21.1639 11.0298 21.1548 10.9572Z" fill="#F3F3F3"/>
<path d="M21.1457 10.9518C21.1366 10.8701 21.1911 10.7974 21.2637 10.7883L22.0992 10.6885C22.1719 10.6794 22.2446 10.7339 22.2536 10.8156C22.2627 10.8974 22.2083 10.97 22.1356 10.9791L21.3 11.079C21.2275 11.0881 21.1547 11.0336 21.1457 10.9518ZM22.2446 10.8247C22.2356 10.7611 22.172 10.7066 22.1083 10.7157L21.2728 10.8156C21.2093 10.8247 21.1638 10.8883 21.1729 10.9518C21.182 11.0154 21.2456 11.07 21.3091 11.0609L22.1447 10.9609C22.2083 10.9518 22.2536 10.8883 22.2446 10.8247Z" fill="white"/>
<path d="M20.1376 11.8393C20.1376 11.7667 20.192 11.7031 20.2648 11.7031H22.1629C22.2356 11.7031 22.29 11.7667 22.29 11.8393C22.29 11.912 22.2356 11.9756 22.1629 11.9756H20.2648C20.1921 11.9756 20.1376 11.912 20.1376 11.8393Z" fill="#F3F3F3"/>
<path d="M20.1285 11.8328C20.1285 11.7511 20.1921 11.6875 20.2648 11.6875H22.1629C22.2356 11.6875 22.2991 11.7511 22.2991 11.8328C22.2991 11.9146 22.2356 11.9781 22.1629 11.9781H20.2648C20.1921 11.9781 20.1285 11.9146 20.1285 11.8328ZM22.2809 11.8419C22.2809 11.7783 22.2265 11.7148 22.1628 11.7148H20.2649C20.2013 11.7148 20.1467 11.7692 20.1467 11.8419C20.1467 11.9055 20.2013 11.969 20.2649 11.969H22.163C22.2266 11.9599 22.2809 11.9055 22.2809 11.8419Z" fill="white"/>
<path d="M21.1457 12.7521C21.1547 12.6795 21.2093 12.625 21.2819 12.625L22.1266 12.6886C22.1992 12.6977 22.2537 12.7612 22.2446 12.8339C22.2356 12.9065 22.181 12.961 22.1083 12.961L21.2638 12.8974C21.2002 12.8883 21.1457 12.8248 21.1457 12.7521Z" fill="#F3F3F3"/>
<path d="M21.1366 12.7534C21.1457 12.6717 21.2093 12.6172 21.2819 12.6172L22.1266 12.6808C22.1992 12.6898 22.2627 12.7534 22.2536 12.8352C22.2446 12.9169 22.181 12.9714 22.1083 12.9714L21.2637 12.9078C21.1911 12.8987 21.1366 12.8261 21.1366 12.7534ZM22.2446 12.8352C22.2536 12.7716 22.1992 12.708 22.1356 12.708L21.2909 12.6445C21.2274 12.6445 21.1729 12.6898 21.1638 12.7626C21.1548 12.8261 21.2093 12.8896 21.2728 12.8896L22.1175 12.9532C22.181 12.9532 22.2355 12.8988 22.2446 12.8352Z" fill="white"/>
<path d="M19.9741 13.4148C19.9923 13.3421 20.0559 13.2967 20.1285 13.3059L21.9903 13.6782C22.063 13.6963 22.1084 13.7599 22.0902 13.8325C22.0721 13.9052 22.0085 13.9507 21.9358 13.9416L20.074 13.5692C20.0104 13.5601 19.965 13.4875 19.9741 13.4148Z" fill="#F3F3F3"/>
<path d="M19.965 13.4161C19.9832 13.3344 20.0559 13.289 20.1285 13.298L21.9903 13.6705C22.063 13.6886 22.1174 13.7612 22.0992 13.843C22.0811 13.9247 22.0085 13.9702 21.9358 13.9611L20.074 13.5887C20.0013 13.5705 19.9559 13.4979 19.965 13.4162V13.4161ZM22.0811 13.843C22.0902 13.7794 22.054 13.7158 21.9903 13.6977L20.1284 13.3253C20.065 13.3163 20.0013 13.3526 19.9831 13.4252C19.9741 13.4888 20.0104 13.5523 20.0741 13.5705L21.9358 13.9429C22.0085 13.952 22.063 13.9065 22.0811 13.843Z" fill="white"/>
<path d="M20.7915 14.5099C20.7957 14.4926 20.8032 14.4763 20.8137 14.4619C20.8241 14.4475 20.8373 14.4354 20.8525 14.4261C20.8677 14.4168 20.8845 14.4106 20.9021 14.4079C20.9197 14.4051 20.9376 14.4059 20.9549 14.41L21.7723 14.637C21.845 14.6552 21.8812 14.7279 21.8632 14.8005C21.859 14.8178 21.8515 14.8341 21.841 14.8485C21.8305 14.8629 21.8173 14.8751 21.8021 14.8844C21.7869 14.8937 21.7701 14.8999 21.7525 14.9026C21.7349 14.9054 21.717 14.9046 21.6997 14.9004L20.8822 14.6734C20.8096 14.6552 20.7734 14.5825 20.7915 14.5099Z" fill="#F3F3F3"/>
<path d="M20.7823 14.5054C20.8005 14.4328 20.8823 14.3783 20.9549 14.4056L21.7723 14.6326C21.845 14.6507 21.8905 14.7325 21.8723 14.8052C21.8541 14.8778 21.7723 14.9323 21.6997 14.9051L20.8823 14.678C20.8096 14.6598 20.7641 14.5872 20.7824 14.5055L20.7823 14.5054ZM21.845 14.8052C21.8632 14.7416 21.8268 14.6689 21.7632 14.6507L20.9458 14.4237C20.8823 14.4055 20.8187 14.4419 20.8005 14.5145C20.7824 14.5781 20.8187 14.6507 20.8823 14.6689L21.6997 14.896C21.7632 14.9051 21.8268 14.8688 21.845 14.8052Z" fill="white"/>
<path d="M19.5109 14.9424C19.5381 14.8698 19.6199 14.8425 19.6834 14.8698L21.4363 15.5963C21.4999 15.6235 21.5361 15.7053 21.509 15.7688C21.4817 15.8416 21.3999 15.8688 21.3364 15.8416L19.5835 15.115C19.5109 15.0878 19.4836 15.0059 19.5109 14.9424Z" fill="#F3F3F3"/>
<path d="M19.5018 14.9346C19.5151 14.8997 19.5417 14.8715 19.5757 14.8562C19.6098 14.8409 19.6485 14.8397 19.6835 14.8528L21.4363 15.5794C21.509 15.6067 21.5362 15.6884 21.509 15.7702C21.4957 15.8051 21.4691 15.8333 21.435 15.8486C21.401 15.8639 21.3622 15.8651 21.3273 15.8519L19.5745 15.1254C19.5018 15.089 19.4746 15.0073 19.5018 14.9346ZM21.4908 15.7611C21.518 15.6975 21.4908 15.6249 21.4272 15.5976L19.6744 14.871C19.6108 14.8438 19.5473 14.8801 19.52 14.9437C19.4928 15.0073 19.52 15.0799 19.5835 15.1072L21.3364 15.8338C21.4 15.8519 21.4726 15.8247 21.4908 15.7611Z" fill="white"/>
<path d="M20.1013 16.1678C20.1376 16.1043 20.2102 16.077 20.2738 16.1043L21.0276 16.4858C21.0912 16.5129 21.1184 16.5947 21.0822 16.6673C21.0458 16.7309 20.9731 16.7583 20.9096 16.7309L20.1558 16.3495C20.0922 16.3132 20.0649 16.2314 20.1013 16.1678Z" fill="#F3F3F3"/>
<path d="M20.0922 16.1577C20.1285 16.085 20.2103 16.0578 20.283 16.0941L21.0367 16.4756C21.1094 16.512 21.1366 16.5937 21.1003 16.6663C21.064 16.7389 20.9821 16.7662 20.9096 16.7298L20.1558 16.3485C20.0831 16.3213 20.0559 16.2303 20.0922 16.1577ZM21.0731 16.6572C21.1003 16.5936 21.0821 16.521 21.0185 16.4938L20.2648 16.1123C20.2102 16.0851 20.1376 16.1123 20.1013 16.1668C20.0741 16.2303 20.0922 16.303 20.1557 16.3303L20.9095 16.7118C20.9731 16.7389 21.0458 16.7208 21.0731 16.6572Z" fill="white"/>
<path d="M18.7662 16.3428C18.8116 16.2793 18.8843 16.2611 18.9478 16.3064L20.5281 17.36C20.5917 17.3963 20.6008 17.4781 20.5645 17.5416C20.519 17.6053 20.4463 17.6233 20.3828 17.578L18.8025 16.5244C18.739 16.479 18.7208 16.3973 18.7662 16.3428Z" fill="#F3F3F3"/>
<path d="M18.757 16.3295C18.8025 16.266 18.8933 16.2478 18.9569 16.2842L20.5372 17.3376C20.6007 17.383 20.6189 17.4648 20.5734 17.5374C20.5281 17.6011 20.4372 17.6192 20.3738 17.5829L18.7934 16.5293C18.7208 16.4839 18.7117 16.3931 18.757 16.3295ZM20.5463 17.5283C20.5825 17.4739 20.5734 17.3921 20.5191 17.3558L18.9387 16.3023C18.8843 16.266 18.8116 16.2842 18.7752 16.3386C18.7389 16.3931 18.748 16.4749 18.8024 16.5111L20.3828 17.5647C20.4372 17.6011 20.5099 17.5829 20.5463 17.5284V17.5283Z" fill="white"/>
<path d="M19.1022 17.6546C19.1476 17.6 19.2293 17.5819 19.2838 17.6274L19.9468 18.145C20.0013 18.1903 20.0104 18.2721 19.965 18.3266C19.9196 18.381 19.8379 18.3993 19.7833 18.3538L19.1203 17.8361C19.0659 17.7908 19.0567 17.709 19.1022 17.6546Z" fill="#F3F3F3"/>
<path d="M19.0931 17.6494C19.1385 17.5858 19.2294 17.5767 19.2929 17.6222L19.9559 18.1398C20.0195 18.1851 20.0286 18.276 19.9831 18.3396C19.9377 18.4032 19.8469 18.4122 19.7834 18.3668L19.1203 17.8491C19.0568 17.8038 19.0478 17.7129 19.0931 17.6494ZM19.965 18.3305C20.0104 18.276 20.0013 18.2033 19.9468 18.158L19.2838 17.6403C19.2294 17.604 19.1567 17.6131 19.1113 17.6675C19.0659 17.722 19.075 17.7947 19.1294 17.84L19.7924 18.3577C19.8469 18.3941 19.9195 18.3849 19.9649 18.3305H19.965Z" fill="white"/>
<path d="M17.7489 17.5643C17.8035 17.5098 17.8852 17.5098 17.9306 17.5643L19.2747 18.8993C19.3293 18.9539 19.3202 19.0356 19.2747 19.081C19.2203 19.1354 19.1385 19.1354 19.0931 19.081L17.7489 17.746C17.7036 17.7005 17.7036 17.6097 17.7489 17.5643Z" fill="#F3F3F3"/>
<path d="M17.749 17.5565C17.7756 17.5303 17.8115 17.5156 17.8489 17.5156C17.8863 17.5156 17.9222 17.5303 17.9488 17.5565L19.2929 18.8915C19.3192 18.9182 19.3339 18.9541 19.3339 18.9915C19.3339 19.0289 19.3192 19.0648 19.2929 19.0914C19.2663 19.1176 19.2304 19.1323 19.193 19.1323C19.1557 19.1323 19.1198 19.1176 19.0932 19.0914L17.749 17.7564C17.6854 17.7019 17.6854 17.6111 17.749 17.5565ZM19.2747 19.0732C19.3202 19.0279 19.3202 18.9461 19.2747 18.9007L17.9307 17.5656C17.8853 17.5203 17.8035 17.5203 17.7582 17.5656C17.7127 17.611 17.7127 17.6928 17.7582 17.7381L19.1022 19.0732C19.1476 19.1278 19.2204 19.1278 19.2747 19.0732Z" fill="white"/>
<path d="M17.8307 18.9236C17.8852 18.8782 17.9669 18.8782 18.0124 18.9327L18.5664 19.5684C18.6117 19.623 18.6027 19.7047 18.5481 19.7501C18.4938 19.7955 18.4119 19.7955 18.3666 19.741L17.8125 19.1053C17.7671 19.0599 17.7762 18.9782 17.8307 18.9236Z" fill="#F3F3F3"/>
<path d="M17.8217 18.9194C17.8853 18.865 17.967 18.874 18.0214 18.9285L18.5754 19.5642C18.6299 19.6187 18.6208 19.7095 18.5572 19.764C18.4937 19.8185 18.4119 19.8094 18.3575 19.755L17.8034 19.1192C17.758 19.0557 17.758 18.9648 17.8216 18.9194H17.8217ZM18.5483 19.7459C18.6026 19.7005 18.6026 19.6277 18.5663 19.5734L18.0123 18.9376C17.9669 18.8922 17.8942 18.8831 17.8398 18.9285C17.7853 18.9739 17.7853 19.0466 17.8216 19.101L18.3757 19.7368C18.421 19.7912 18.4938 19.7912 18.5482 19.7459H18.5483Z" fill="white"/>
<path d="M16.5229 18.5721C16.5865 18.5267 16.6682 18.5449 16.7046 18.6084L17.758 20.1796C17.7943 20.2432 17.7761 20.3249 17.7217 20.3613C17.6581 20.4067 17.5764 20.3885 17.54 20.3249L16.4865 18.7537C16.4501 18.6902 16.4683 18.6083 16.5228 18.5721H16.5229Z" fill="#F3F3F3"/>
<path d="M16.5229 18.5643C16.5864 18.5189 16.6773 18.5371 16.7226 18.6006L17.7762 20.1719C17.8216 20.2353 17.8034 20.3262 17.7308 20.3716C17.6672 20.417 17.5764 20.3988 17.531 20.3353L16.4775 18.764C16.4321 18.6915 16.4503 18.6096 16.5229 18.5643ZM17.7217 20.3535C17.7762 20.3171 17.7944 20.2444 17.758 20.19L16.7045 18.6187C16.6682 18.5643 16.5955 18.5552 16.5321 18.5915C16.4775 18.6278 16.4593 18.7005 16.4957 18.755L17.5491 20.3262C17.5855 20.3716 17.6673 20.3898 17.7216 20.3534L17.7217 20.3535Z" fill="white"/>
<path d="M16.3322 19.9169C16.3958 19.8806 16.4775 19.8988 16.5138 19.9624L16.9316 20.698C16.9679 20.7616 16.9406 20.8434 16.8771 20.8796C16.8135 20.916 16.7318 20.8978 16.6955 20.8343L16.2777 20.0986C16.2504 20.035 16.2686 19.9533 16.3321 19.917L16.3322 19.9169Z" fill="#F3F3F3"/>
<path d="M16.3322 19.9092C16.4048 19.8728 16.4866 19.891 16.5229 19.9545L16.9406 20.6902C16.977 20.7538 16.9588 20.8446 16.8862 20.8809C16.8135 20.9173 16.7317 20.8991 16.6955 20.8355L16.2777 20.0999C16.2413 20.0363 16.2595 19.9545 16.3321 19.9092H16.3322ZM16.8771 20.8719C16.9316 20.8355 16.9588 20.7629 16.9225 20.7084L16.5048 19.9727C16.4684 19.9183 16.3957 19.9001 16.3413 19.9273C16.2867 19.9636 16.2595 20.0363 16.2958 20.0908L16.7137 20.8264C16.7408 20.8809 16.8226 20.9083 16.8771 20.8719Z" fill="white"/>
<path d="M15.1242 19.323C15.1969 19.2958 15.2695 19.323 15.2968 19.3866L16.0325 21.1394C16.0597 21.203 16.0234 21.2847 15.9598 21.3119C15.8963 21.3392 15.8145 21.3119 15.7873 21.2483L15.0517 19.4956C15.0244 19.4319 15.0607 19.3503 15.1242 19.323Z" fill="#F3F3F3"/>
<path d="M15.1242 19.3072C15.1969 19.28 15.2786 19.3072 15.315 19.3799L16.0507 21.1327C16.0638 21.1676 16.0626 21.2064 16.0473 21.2404C16.032 21.2744 16.0038 21.301 15.9689 21.3143C15.8963 21.3416 15.8145 21.3143 15.7782 21.2417L15.0426 19.4889C15.0153 19.4252 15.0517 19.3436 15.1242 19.3072ZM15.9507 21.2962C16.0143 21.2689 16.0416 21.1963 16.0143 21.1418L15.2786 19.389C15.2514 19.3254 15.1788 19.2981 15.1152 19.3254C15.0517 19.3526 15.0243 19.4252 15.0517 19.4798L15.7872 21.2327C15.8236 21.2962 15.8872 21.3234 15.9507 21.2962Z" fill="white"/>
<path d="M14.6792 20.6106C14.7519 20.5834 14.8245 20.6197 14.8518 20.6923L15.1152 21.4916C15.1424 21.5551 15.097 21.6369 15.0335 21.6551C14.9608 21.6822 14.8881 21.646 14.861 21.5733L14.5975 20.7741C14.5703 20.7105 14.6066 20.6379 14.6793 20.6106H14.6792Z" fill="#F3F3F3"/>
<path d="M14.6702 20.6028C14.7051 20.5897 14.7438 20.5909 14.7779 20.6062C14.8119 20.6215 14.8385 20.6497 14.8518 20.6846L15.1152 21.4838C15.1424 21.5564 15.097 21.6382 15.0243 21.6655C14.9894 21.6786 14.9506 21.6774 14.9166 21.6621C14.8826 21.6468 14.856 21.6186 14.8427 21.5837L14.5793 20.7845C14.5612 20.7118 14.5975 20.6301 14.6702 20.6028ZM15.0244 21.6472C15.0879 21.6291 15.1242 21.5564 15.1061 21.4929L14.8427 20.6937C14.8246 20.6301 14.7519 20.6028 14.6884 20.621C14.6247 20.6392 14.5884 20.7118 14.6066 20.7754L14.87 21.5746C14.8746 21.59 14.8824 21.6043 14.8929 21.6165C14.9034 21.6287 14.9164 21.6385 14.931 21.6454C14.9455 21.6523 14.9614 21.656 14.9775 21.6563C14.9936 21.6566 15.0095 21.6535 15.0244 21.6473V21.6472Z" fill="white"/>
<path d="M13.6076 19.7853C13.6802 19.7671 13.7529 19.8125 13.7619 19.8851L14.1434 21.747C14.1616 21.8195 14.107 21.8832 14.0344 21.9013C13.9618 21.9195 13.8891 21.8741 13.8801 21.8015L13.4985 19.9396C13.4895 19.876 13.5349 19.8034 13.6075 19.7852L13.6076 19.7853Z" fill="#F3F3F3"/>
<path d="M13.6076 19.7769C13.6893 19.7588 13.762 19.8133 13.7801 19.886L14.1616 21.7478C14.1798 21.8204 14.1252 21.9022 14.0526 21.9112C13.9708 21.9294 13.8982 21.875 13.8801 21.8023L13.4985 19.9404C13.4804 19.8678 13.5259 19.7951 13.6075 19.777L13.6076 19.7769ZM14.0344 21.8931C14.098 21.8841 14.1434 21.8204 14.1343 21.7477L13.7529 19.886C13.7439 19.8224 13.6712 19.777 13.6075 19.7951C13.544 19.8042 13.4986 19.8678 13.5077 19.9404L13.8892 21.8023C13.9073 21.8659 13.9708 21.9022 14.0345 21.8932L14.0344 21.8931Z" fill="white"/>
<path d="M12.9174 20.9621C12.99 20.953 13.0536 20.9985 13.0718 21.0711L13.1807 21.9066C13.1898 21.9793 13.1353 22.0428 13.0626 22.0519C12.99 22.061 12.9265 22.0157 12.9083 21.943L12.7993 21.1074C12.7902 21.0347 12.8447 20.9712 12.9174 20.9621Z" fill="#F3F3F3"/>
<path d="M12.9174 20.9541C12.9991 20.9451 13.0718 20.9996 13.0809 21.0722L13.1898 21.9077C13.1989 21.9804 13.1444 22.053 13.0627 22.0621C12.9809 22.0712 12.9083 22.0168 12.8992 21.944L12.7902 21.1085C12.7811 21.0358 12.8356 20.9632 12.9174 20.9541ZM13.0536 22.0439C13.1171 22.0349 13.1717 21.9713 13.1626 21.9077L13.0536 21.0722C13.0445 21.0087 12.9809 20.9632 12.9174 20.9723C12.8538 20.9814 12.7992 21.0449 12.8083 21.1085L12.9174 21.9441C12.9265 22.0077 12.99 22.053 13.0536 22.0439Z" fill="white"/>
<path d="M11.9819 19.9453C12.0546 19.9453 12.1181 19.9999 12.1181 20.0725V21.9706C12.1181 22.0433 12.0546 22.0978 11.9819 22.0978C11.9093 22.0978 11.8457 22.0433 11.8457 21.9706V20.0725C11.8548 19.9999 11.9093 19.9453 11.9819 19.9453Z" fill="#F3F3F3"/>
<path d="M11.9819 19.9375C12.0637 19.9375 12.1272 20.0011 12.1272 20.0737V21.9719C12.1272 22.0445 12.0637 22.1081 11.9819 22.1081C11.9002 22.1081 11.8366 22.0445 11.8366 21.9719V20.0738C11.8366 20.0012 11.9093 19.9375 11.9819 19.9375ZM11.9819 22.09C12.0455 22.09 12.109 22.0355 12.109 21.9719V20.0738C12.109 20.0102 12.0546 19.9557 11.9819 19.9557C11.9184 19.9557 11.8548 20.0102 11.8548 20.0738V21.9719C11.8638 22.0355 11.9184 22.09 11.9819 22.09Z" fill="white"/>
<path d="M11.0737 20.9619C11.1463 20.971 11.2008 21.0255 11.2008 21.0981L11.1372 21.9428C11.1282 22.0155 11.0646 22.07 10.9919 22.061C10.9193 22.0518 10.8648 21.9973 10.8648 21.9246L10.9284 21.08C10.9375 21.0074 11.001 20.9528 11.0737 20.9619Z" fill="#F3F3F3"/>
<path d="M11.0737 20.9541C11.1554 20.9632 11.2099 21.0268 11.2099 21.0994L11.1463 21.9441C11.1372 22.0168 11.0737 22.0803 10.9919 22.0712C10.9103 22.0621 10.8557 21.9986 10.8557 21.9259L10.9193 21.0812C10.9284 20.9996 10.9919 20.9451 11.0737 20.9541ZM10.9919 22.053C11.0555 22.053 11.1192 22.0077 11.1192 21.9441L11.1827 21.0994C11.1827 21.0358 11.1372 20.9814 11.0646 20.9723C11.001 20.9723 10.9375 21.0177 10.9375 21.0813L10.8739 21.9259C10.8739 21.9895 10.9283 22.044 10.9919 22.053Z" fill="white"/>
<path d="M10.3926 19.7824C10.4652 19.8005 10.5106 19.8641 10.5015 19.9367L10.1291 21.7986C10.1109 21.8713 10.0474 21.9167 9.97472 21.8984C9.90206 21.8803 9.85669 21.8168 9.86578 21.744L10.2382 19.8823C10.2472 19.8187 10.3199 19.7733 10.3926 19.7824Z" fill="#F3F3F3"/>
<path d="M10.3926 19.7745C10.4742 19.7927 10.5197 19.8655 10.5106 19.938L10.1382 21.7999C10.12 21.8726 10.0474 21.927 9.96571 21.9088C9.88396 21.8906 9.83849 21.818 9.84758 21.7453L10.22 19.8836C10.2381 19.8109 10.3108 19.7654 10.3925 19.7746L10.3926 19.7745ZM9.96571 21.8906C10.0293 21.8997 10.0928 21.8635 10.111 21.7999L10.4833 19.938C10.4924 19.8745 10.4561 19.8109 10.3835 19.7927C10.3199 19.7837 10.2563 19.82 10.2381 19.8836L9.86577 21.7453C9.85668 21.818 9.90205 21.8726 9.96571 21.8906Z" fill="white"/>
<path d="M9.30266 20.5984C9.37541 20.6165 9.42079 20.6892 9.4026 20.7619L9.17554 21.5793C9.15744 21.6519 9.08479 21.6882 9.01213 21.6701C8.99482 21.6659 8.97851 21.6584 8.96412 21.6479C8.94972 21.6375 8.93754 21.6243 8.92825 21.6091C8.91897 21.5939 8.91278 21.577 8.91002 21.5594C8.90726 21.5419 8.908 21.5239 8.91219 21.5066L9.13925 20.6892C9.15744 20.6165 9.23 20.5803 9.30266 20.5984Z" fill="#F3F3F3"/>
<path d="M9.30261 20.59C9.37536 20.6081 9.42983 20.6899 9.40255 20.7625L9.17549 21.5799C9.15739 21.6526 9.07564 21.6981 9.00299 21.6798C8.93033 21.6617 8.87586 21.5799 8.90305 21.5073L9.13011 20.6899C9.1483 20.6172 9.22096 20.5718 9.30261 20.5899V20.59ZM9.00299 21.6526C9.06655 21.6708 9.13921 21.6344 9.15739 21.5709L9.38436 20.7534C9.40255 20.6899 9.36627 20.6263 9.29361 20.6081C9.23005 20.5899 9.15739 20.6263 9.13921 20.6899L8.91214 21.5073C8.90305 21.5709 8.93933 21.6344 9.00299 21.6526Z" fill="white"/>
<path d="M8.85772 19.3191C8.93038 19.3463 8.95757 19.4281 8.93038 19.4916L8.20382 21.2445C8.17663 21.3081 8.09478 21.3444 8.03132 21.3081C7.96766 21.2718 7.93129 21.1991 7.95857 21.1355L8.68513 19.3827C8.71232 19.3191 8.79425 19.2828 8.85772 19.3191Z" fill="#F3F3F3"/>
<path d="M8.85768 19.3111C8.89258 19.3244 8.92078 19.351 8.93611 19.3851C8.95143 19.4191 8.95263 19.4579 8.93943 19.4928L8.21287 21.2455C8.18559 21.3182 8.10384 21.3455 8.02209 21.3182C7.98722 21.3049 7.95903 21.2783 7.94371 21.2443C7.92839 21.2103 7.92718 21.1715 7.94034 21.1366L8.6669 19.3838C8.70328 19.3111 8.78503 19.2748 8.85768 19.3111ZM8.03118 21.3001C8.09475 21.3273 8.1674 21.3001 8.19468 21.2365L8.92125 19.4837C8.94843 19.4201 8.91215 19.3565 8.84859 19.3293C8.78503 19.3021 8.71237 19.3293 8.68509 19.3929L7.95853 21.1457C7.94034 21.2002 7.96762 21.2728 8.03118 21.3001Z" fill="white"/>
<path d="M7.63164 19.8991C7.6952 19.9354 7.72238 20.008 7.6952 20.0716L7.31373 20.8254C7.27735 20.889 7.2047 20.9163 7.13204 20.8799C7.06848 20.8436 7.04129 20.771 7.06848 20.7074L7.45004 19.9537C7.48632 19.89 7.55898 19.8627 7.63164 19.8991Z" fill="#F3F3F3"/>
<path d="M7.63166 19.891C7.70431 19.9273 7.7315 20.0091 7.69522 20.0817L7.31375 20.8355C7.27738 20.9082 7.19563 20.9355 7.12306 20.8991C7.05041 20.8628 7.02313 20.781 7.0595 20.7084L7.44088 19.9547C7.47725 19.8819 7.559 19.8547 7.63166 19.891ZM7.13216 20.881C7.19572 20.9082 7.26838 20.89 7.29556 20.8264L7.67703 20.0727C7.70422 20.0181 7.67703 19.9455 7.62256 19.9092C7.559 19.882 7.48635 19.9001 7.45906 19.9637L7.0776 20.7174C7.05041 20.772 7.0776 20.8447 7.13216 20.881Z" fill="white"/>
<path d="M7.44992 18.5565C7.51349 18.6019 7.53167 18.6837 7.4863 18.7381L6.43274 20.3094C6.39645 20.3729 6.31461 20.3819 6.25114 20.3457C6.18758 20.3002 6.16939 20.2185 6.21477 20.164L7.26833 18.5927C7.30461 18.5293 7.38636 18.5112 7.44992 18.5565Z" fill="#F3F3F3"/>
<path d="M7.44998 18.5486C7.51354 18.5941 7.53173 18.6849 7.49536 18.7485L6.44189 20.3198C6.39651 20.3832 6.31476 20.4014 6.24211 20.356C6.17854 20.3106 6.16036 20.2198 6.19664 20.1562L7.2502 18.585C7.29557 18.5214 7.38642 18.5033 7.44998 18.5486ZM6.2512 20.3378C6.30557 20.3741 6.38742 20.365 6.4237 20.3107L7.47726 18.7394C7.51354 18.6849 7.49545 18.6123 7.44089 18.5759C7.38642 18.5396 7.30467 18.5487 7.26839 18.6031L6.21482 20.1653C6.17854 20.2198 6.19664 20.3016 6.2512 20.3378Z" fill="white"/>
<path d="M6.12395 18.8963C6.17851 18.9417 6.19661 19.0234 6.15123 19.0779L5.62445 19.7409C5.57907 19.7953 5.49732 19.8044 5.44286 19.7591C5.38839 19.7137 5.3702 19.6319 5.41567 19.5774L5.94236 18.9144C5.98773 18.86 6.06948 18.8508 6.12395 18.8963Z" fill="#F3F3F3"/>
<path d="M6.13307 18.8874C6.19663 18.9327 6.20572 19.0236 6.16025 19.0871L5.63357 19.7501C5.58819 19.8137 5.49735 19.8228 5.43379 19.7683C5.37022 19.7229 5.36113 19.6321 5.4066 19.5684L5.93329 18.9055C5.97866 18.8419 6.0695 18.8329 6.13307 18.8874ZM5.45197 19.7501C5.50635 19.7955 5.5791 19.7865 5.62447 19.7319L6.15125 19.0689C6.18763 19.0146 6.17844 18.9418 6.12407 18.8964C6.0695 18.851 5.99685 18.8601 5.95147 18.9146L5.42469 19.5775C5.38841 19.6321 5.3976 19.7138 5.45197 19.7501Z" fill="white"/>
<path d="M6.21479 17.5331C6.26926 17.5875 6.26926 17.6693 6.21479 17.7147L4.8707 19.0497C4.81613 19.1043 4.73448 19.0952 4.68901 19.0497C4.64363 19.0043 4.63454 18.9135 4.68901 18.8681L6.02401 17.5331C6.07857 17.4785 6.16032 17.4785 6.21479 17.5331Z" fill="#F3F3F3"/>
<path d="M6.22389 17.5252C6.25006 17.5519 6.26472 17.5877 6.26472 17.6251C6.26472 17.6624 6.25006 17.6983 6.22389 17.7249L4.87971 19.0601C4.85306 19.0863 4.81721 19.1009 4.77986 19.1009C4.74252 19.1009 4.70666 19.0863 4.68002 19.0601C4.6538 19.0335 4.6391 18.9976 4.6391 18.9602C4.6391 18.9228 4.6538 18.8869 4.68002 18.8602L6.02411 17.5252C6.05076 17.4991 6.08663 17.4844 6.124 17.4844C6.16137 17.4844 6.19724 17.4991 6.22389 17.5252ZM4.68902 19.0509C4.73439 19.0963 4.81614 19.0963 4.86152 19.0509L6.20571 17.7158C6.25117 17.6705 6.25117 17.5887 6.20571 17.5433C6.16033 17.4979 6.07858 17.4979 6.03321 17.5433L4.68902 18.8783C4.64364 18.9237 4.64364 18.9965 4.68902 19.0508V19.0509Z" fill="white"/>
<path d="M4.85251 17.602C4.89789 17.6564 4.89789 17.7382 4.84342 17.7836L4.19861 18.3286C4.14414 18.3739 4.06239 18.3648 4.01692 18.3104C3.97155 18.2558 3.97155 18.1741 4.02601 18.1287L4.67083 17.5838C4.72539 17.5383 4.80704 17.5474 4.85251 17.602Z" fill="#F3F3F3"/>
<path d="M4.86161 17.5929C4.91608 17.6566 4.90698 17.7473 4.85251 17.7928L4.2077 18.3377C4.15323 18.3922 4.06239 18.3831 4.00792 18.3196C3.95336 18.2559 3.96245 18.1652 4.01692 18.1197L4.66183 17.5748C4.7162 17.5204 4.80714 17.5294 4.86151 17.593L4.86161 17.5929ZM4.02601 18.3105C4.07148 18.3649 4.14414 18.3649 4.19851 18.3287L4.84342 17.7837C4.88879 17.7383 4.89789 17.6656 4.85251 17.6112C4.80704 17.5566 4.73439 17.5566 4.68001 17.593L4.03511 18.1379C3.98064 18.1833 3.98064 18.2561 4.02601 18.3105Z" fill="white"/>
<path d="M5.21582 16.2974C5.26119 16.361 5.243 16.4427 5.17944 16.479L3.59919 17.5326C3.53563 17.5689 3.45388 17.5507 3.4176 17.4962C3.37213 17.4327 3.39032 17.3509 3.45388 17.3145L5.03422 16.2611C5.08878 16.2248 5.17044 16.2429 5.21591 16.2974H5.21582Z" fill="#F3F3F3"/>
<path d="M5.22488 16.2967C5.27026 16.3603 5.25207 16.4511 5.18851 16.4965L3.60826 17.55C3.5447 17.5955 3.45385 17.5772 3.40848 17.5046C3.36301 17.4411 3.38129 17.3502 3.44476 17.3049L5.0251 16.2513C5.08866 16.2059 5.17951 16.2241 5.22488 16.2967ZM3.42666 17.4864C3.46295 17.5409 3.5356 17.5591 3.59007 17.5228L5.17032 16.4693C5.22488 16.433 5.24298 16.3603 5.1976 16.2968C5.16132 16.2422 5.08866 16.2241 5.0341 16.2604L3.45385 17.3139C3.39938 17.3593 3.39029 17.432 3.42666 17.4864Z" fill="white"/>
<path d="M3.86252 16.102C3.89889 16.1656 3.8807 16.2473 3.81714 16.2837L3.08148 16.7015C3.01792 16.7377 2.93617 16.7105 2.89989 16.647C2.86352 16.5834 2.8817 16.5017 2.94527 16.4653L3.68092 16.0475C3.74448 16.0112 3.82623 16.0385 3.86261 16.102H3.86252Z" fill="#F3F3F3"/>
<path d="M3.8717 16.0942C3.90798 16.1669 3.8898 16.2486 3.82623 16.285L3.09058 16.7027C3.02702 16.739 2.93617 16.7118 2.89989 16.6483C2.86352 16.5756 2.8817 16.4939 2.94527 16.4575L3.68092 16.0397C3.74448 16.0034 3.83533 16.0306 3.87161 16.0942H3.8717ZM2.90889 16.6392C2.94527 16.7027 3.01792 16.7209 3.07239 16.6845L3.80805 16.2668C3.86252 16.2304 3.8807 16.1578 3.85352 16.1033C3.81714 16.0397 3.74448 16.0215 3.69002 16.0579L2.95436 16.4757C2.89989 16.5029 2.88161 16.5756 2.90889 16.6392Z" fill="white"/>
<path d="M4.47102 14.8955C4.49821 14.9682 4.47103 15.0408 4.39837 15.068L2.64553 15.7946C2.58196 15.8218 2.50021 15.7856 2.47303 15.7219C2.44574 15.6492 2.47303 15.5766 2.54568 15.5494L4.29853 14.8228C4.36209 14.7957 4.44384 14.8228 4.47102 14.8955Z" fill="#F3F3F3"/>
<path d="M4.48012 14.8877C4.50731 14.9603 4.48012 15.0421 4.40746 15.0784L2.65462 15.8049C2.61969 15.8181 2.58097 15.8169 2.54694 15.8016C2.5129 15.7863 2.48633 15.7581 2.47303 15.7232C2.44574 15.6505 2.47303 15.5688 2.54568 15.5325L4.29853 14.8059C4.33345 14.7928 4.37217 14.794 4.40621 14.8093C4.44024 14.8246 4.46682 14.8528 4.48012 14.8877ZM2.49112 15.7141C2.5184 15.7778 2.59106 15.805 2.64553 15.7868L4.39837 15.0602C4.46193 15.033 4.48921 14.9603 4.46193 14.8968C4.43474 14.8332 4.36209 14.8059 4.30753 14.8241L2.55468 15.5507C2.49112 15.5779 2.46393 15.6505 2.49112 15.7142V15.7141Z" fill="white"/>
<path d="M3.19051 14.4423C3.2177 14.515 3.18142 14.5876 3.10876 14.6148L2.30954 14.8783C2.24598 14.9055 2.16423 14.8601 2.14604 14.7965C2.11886 14.7239 2.15514 14.6512 2.22779 14.624L3.02701 14.3606C3.09058 14.3334 3.16323 14.3697 3.19051 14.4423Z" fill="#F3F3F3"/>
<path d="M3.19953 14.4314C3.22681 14.504 3.19053 14.5858 3.10878 14.6131L2.30956 14.8764C2.23691 14.9036 2.15516 14.8582 2.12788 14.7856C2.10069 14.7129 2.13697 14.6312 2.21881 14.604L3.01794 14.3405C3.0906 14.3224 3.17235 14.3587 3.19963 14.4315L3.19953 14.4314ZM2.14616 14.7766C2.16435 14.8401 2.237 14.8765 2.30056 14.8583L3.09978 14.5949C3.16335 14.5768 3.19063 14.5041 3.17244 14.4406C3.15425 14.377 3.0816 14.3406 3.01803 14.3588L2.21881 14.6223C2.15525 14.6494 2.12797 14.713 2.14616 14.7766Z" fill="white"/>
<path d="M4.0079 13.3602C4.02599 13.4328 3.98062 13.5055 3.90796 13.5146L2.04609 13.8779C1.97343 13.896 1.90987 13.8415 1.89177 13.7688C1.87359 13.6962 1.91896 13.6235 1.99162 13.6144L3.85349 13.2511C3.92615 13.2421 3.9989 13.2875 4.0079 13.3602Z" fill="#F3F3F3"/>
<path d="M4.02599 13.3637C4.04418 13.4455 3.98971 13.5181 3.91706 13.5362L2.05518 13.8995C1.98252 13.9177 1.90987 13.8632 1.89177 13.7815C1.87359 13.6997 1.92806 13.6271 2.00071 13.609L3.86259 13.2457C3.93515 13.2275 4.0079 13.282 4.02599 13.3637ZM1.90987 13.7725C1.91896 13.8359 1.98252 13.8814 2.04609 13.8723L3.90796 13.509C3.97152 13.4999 4.0169 13.4273 3.99881 13.3637C3.98971 13.3002 3.92615 13.2547 3.86249 13.2638L2.00071 13.6271C1.93715 13.6453 1.89177 13.7088 1.90987 13.7724V13.7725Z" fill="white"/>
<path d="M2.84539 12.666C2.85439 12.7386 2.80902 12.8022 2.73636 12.8113L1.90086 12.9111C1.82811 12.9202 1.76455 12.8658 1.75555 12.793C1.74646 12.7205 1.79183 12.6569 1.86449 12.6477L2.70008 12.5479C2.76364 12.5388 2.8363 12.5932 2.84539 12.666Z" fill="#F3F3F3"/>
<path d="M2.85451 12.6595C2.86351 12.7411 2.80904 12.8138 2.73638 12.8229L1.90088 12.9228C1.82813 12.9319 1.75557 12.8774 1.74648 12.7957C1.73738 12.7139 1.79185 12.6413 1.86451 12.6322L2.7001 12.5322C2.77266 12.5231 2.84541 12.5777 2.85441 12.6594L2.85451 12.6595ZM1.75548 12.7866C1.76457 12.8501 1.82823 12.9047 1.89179 12.8955L2.72729 12.7957C2.79085 12.7866 2.83632 12.723 2.82723 12.6595C2.81813 12.5958 2.75457 12.5413 2.69101 12.5504L1.85541 12.6504C1.79185 12.6595 1.74648 12.723 1.75548 12.7866Z" fill="white"/>
<path d="M3.86252 11.7847C3.86252 11.8574 3.80814 11.921 3.73539 11.921H1.83733C1.76467 11.921 1.71021 11.8574 1.71021 11.7847C1.71021 11.7121 1.76467 11.6484 1.83733 11.6484H3.73549C3.80814 11.6484 3.8627 11.7121 3.8627 11.7847L3.86252 11.7847Z" fill="#F3F3F3"/>
<path d="M3.8717 11.7781C3.8717 11.86 3.80805 11.9234 3.73539 11.9234H1.83733C1.76467 11.9234 1.70111 11.8599 1.70111 11.7781C1.70111 11.6965 1.76467 11.6328 1.83733 11.6328H3.73549C3.80814 11.6328 3.8717 11.6965 3.8717 11.7781ZM1.7192 11.7691C1.7192 11.8327 1.77367 11.8962 1.83733 11.8962H3.73539C3.79895 11.8962 3.85352 11.8418 3.85352 11.7691C3.85352 11.7056 3.79895 11.6419 3.73539 11.6419H1.83733C1.77377 11.651 1.7192 11.7056 1.7192 11.7691Z" fill="white"/>
<path d="M2.85452 10.8651C2.84533 10.9378 2.79087 10.9922 2.71821 10.9922L1.87352 10.9287C1.80096 10.9196 1.74649 10.856 1.75549 10.7834C1.76458 10.7107 1.81915 10.6562 1.8918 10.6562L2.7364 10.7198C2.79996 10.7289 2.85452 10.7925 2.85452 10.8651Z" fill="#E2E2E2"/>
<path d="M2.86351 10.8664C2.85441 10.9482 2.79085 11.0026 2.71819 11.0026L1.87351 10.9391C1.80094 10.93 1.73738 10.8664 1.74648 10.7847C1.75548 10.703 1.81913 10.6484 1.89179 10.6484L2.73638 10.712C2.80904 10.7211 2.86351 10.7938 2.86351 10.8664ZM1.75548 10.7847C1.74648 10.8482 1.80094 10.9119 1.86451 10.9119L2.70919 10.9754C2.77266 10.9754 2.82723 10.93 2.83632 10.8573C2.84541 10.7938 2.79085 10.7302 2.72729 10.7302L1.8826 10.6666C1.81913 10.6666 1.76457 10.721 1.75548 10.7847Z" fill="white"/>
<path d="M4.02602 10.201C4.00783 10.2737 3.94427 10.3191 3.87161 10.31L2.00983 9.92858C1.93718 9.91039 1.89171 9.84683 1.90989 9.77418C1.92808 9.70152 1.99164 9.65605 2.0643 9.66524L3.92618 10.0376C3.98974 10.0557 4.03511 10.1284 4.02602 10.201Z" fill="#F3F3F3"/>
<path d="M4.03509 10.2023C4.0169 10.284 3.94424 10.3295 3.87159 10.3204L2.00981 9.94802C1.93715 9.92984 1.88268 9.85718 1.90087 9.77552C1.91896 9.69368 1.99162 9.64831 2.06427 9.6574L3.92615 10.0298C3.99881 10.048 4.04418 10.1206 4.03509 10.2023ZM1.91896 9.77543C1.90987 9.83899 1.94615 9.90256 2.00981 9.92074L3.87168 10.2931C3.93524 10.3022 3.99881 10.2659 4.01699 10.1932C4.02599 10.1296 3.98971 10.0661 3.92606 10.0479L2.06437 9.67559C1.99171 9.66649 1.93715 9.71187 1.91896 9.77543Z" fill="white"/>
<path d="M3.20868 9.11312C3.20451 9.13042 3.19697 9.14673 3.18649 9.16111C3.17602 9.17549 3.16281 9.18767 3.14762 9.19694C3.13244 9.20621 3.11557 9.2124 3.098 9.21515C3.08042 9.2179 3.06247 9.21716 3.04518 9.21297L2.22777 8.9859C2.15511 8.96772 2.11883 8.89506 2.13693 8.8224C2.1411 8.80511 2.14863 8.7888 2.15911 8.77442C2.16959 8.76004 2.18279 8.74786 2.19798 8.73859C2.21316 8.72932 2.23003 8.72313 2.24761 8.72038C2.26519 8.71763 2.28313 8.71837 2.30043 8.72256L3.11783 8.94962C3.19049 8.96772 3.22677 9.04047 3.20868 9.11312Z" fill="#F3F3F3"/>
<path d="M3.21769 9.10994C3.1996 9.1825 3.11785 9.23706 3.04519 9.20978L2.22779 8.98272C2.15513 8.96453 2.10966 8.88278 2.12785 8.81022C2.14604 8.73747 2.22779 8.683 2.30044 8.71028L3.11785 8.93734C3.19051 8.95553 3.23598 9.02828 3.21769 9.10994ZM2.15513 8.81003C2.13694 8.87369 2.17332 8.94634 2.23688 8.96444L3.05429 9.1915C3.11785 9.20969 3.18141 9.17331 3.1996 9.10066C3.21769 9.03709 3.18141 8.96444 3.11785 8.94634L2.30044 8.71928C2.23688 8.71019 2.17332 8.74637 2.15513 8.81003Z" fill="white"/>
<path d="M4.48922 8.67516C4.46203 8.74772 4.38018 8.775 4.31672 8.74772L2.56378 8.02116C2.50022 7.99397 2.46393 7.91222 2.49112 7.84866C2.5184 7.776 2.60015 7.74872 2.66372 7.776L4.41656 8.50257C4.48922 8.52975 4.5165 8.6116 4.48922 8.67516Z" fill="#F3F3F3"/>
<path d="M4.4983 8.68416C4.485 8.71906 4.45841 8.74726 4.42435 8.76258C4.39029 8.77791 4.35155 8.7791 4.31661 8.76591L2.56377 8.03935C2.49111 8.01216 2.46393 7.93041 2.49111 7.84866C2.50441 7.81376 2.53101 7.78556 2.56506 7.77024C2.59912 7.75491 2.63786 7.75372 2.6728 7.76691L4.42564 8.49347C4.4983 8.52975 4.52549 8.6116 4.4983 8.68416ZM2.5093 7.85775C2.48211 7.92132 2.5093 7.99397 2.57286 8.02116L4.32571 8.74772C4.38927 8.775 4.45283 8.73863 4.48011 8.67507C4.5073 8.6115 4.48011 8.53885 4.41655 8.51166L2.66371 7.7851C2.60014 7.76691 2.52749 7.79419 2.5093 7.85775Z" fill="white"/>
<path d="M3.8989 7.4486C3.86262 7.51216 3.78996 7.53944 3.7264 7.51216L2.97256 7.13079C2.909 7.1035 2.88171 7.02175 2.91809 6.9491C2.95437 6.88554 3.02703 6.85825 3.09059 6.88554L3.84434 7.267C3.908 7.30329 3.93528 7.38513 3.8989 7.4486Z" fill="#F3F3F3"/>
<path d="M3.90799 7.45539C3.87161 7.52804 3.78986 7.55533 3.71721 7.51895L2.96346 7.13748C2.8908 7.1012 2.86352 7.01945 2.89989 6.94679C2.93618 6.87414 3.01802 6.84686 3.09058 6.88323L3.84433 7.2647C3.91708 7.29189 3.94427 7.38283 3.90799 7.45539ZM2.92708 6.95589C2.89989 7.01945 2.91808 7.09211 2.98164 7.11939L3.73539 7.50086C3.78996 7.52804 3.86261 7.50086 3.89889 7.44629C3.92608 7.38273 3.90799 7.31008 3.84443 7.28279L3.08139 6.90151C3.02693 6.87433 2.95427 6.89242 2.92699 6.95598L2.92708 6.95589Z" fill="white"/>
<path d="M5.23386 7.27469C5.18849 7.33835 5.11583 7.35654 5.05227 7.31107L3.48102 6.26669C3.41755 6.23032 3.40846 6.14857 3.44474 6.085C3.48111 6.02144 3.56286 6.00325 3.62642 6.04863L5.20667 7.10219C5.26114 7.13857 5.27933 7.22032 5.23386 7.27469Z" fill="#F3F3F3"/>
<path d="M5.24297 7.28741C5.19759 7.35107 5.10675 7.36916 5.04328 7.33288L3.47203 6.27932C3.40847 6.23395 3.39028 6.1522 3.43565 6.07963C3.48112 6.01598 3.57197 5.99779 3.63553 6.03416L5.20668 7.08763C5.27934 7.1331 5.28843 7.22385 5.24297 7.28741ZM3.45384 6.08863C3.41756 6.1431 3.42665 6.22485 3.48103 6.26113L5.06137 7.31479C5.11584 7.35116 5.1885 7.33298 5.22487 7.27851C5.26115 7.22395 5.25206 7.1422 5.19768 7.10591L3.61725 6.05235C3.56278 6.01598 3.49022 6.03416 3.45384 6.08863Z" fill="white"/>
<path d="M4.89787 5.95943C4.85249 6.0139 4.77074 6.03209 4.71627 5.98662L4.05327 5.46903C3.9988 5.42356 3.98971 5.34181 4.03509 5.28734C4.08046 5.23287 4.16221 5.21468 4.21677 5.26015L4.87968 5.77774C4.93424 5.82321 4.94334 5.90487 4.89787 5.95943Z" fill="#F3F3F3"/>
<path d="M4.90698 5.97226C4.8616 6.03592 4.77076 6.04501 4.7072 5.99954L4.0442 5.48195C3.98064 5.43657 3.97154 5.34573 4.01701 5.28226C4.06239 5.21861 4.15323 5.20951 4.2167 5.25498L4.8797 5.77257C4.94335 5.81804 4.95245 5.90879 4.90698 5.97245V5.97226ZM4.0351 5.29117C3.98973 5.34564 3.99882 5.41829 4.05329 5.46367L4.71629 5.98145C4.77076 6.01773 4.84342 6.00864 4.88879 5.95417C4.93426 5.8997 4.92517 5.82704 4.8707 5.78167L4.2077 5.26389C4.15323 5.22761 4.08039 5.2367 4.0351 5.29117Z" fill="white"/>
<path d="M6.25107 6.04966C6.1967 6.10422 6.11485 6.10422 6.06948 6.04966L4.71639 4.71466C4.66192 4.66019 4.67092 4.57844 4.71639 4.53297C4.77085 4.47859 4.8526 4.47859 4.89798 4.53297L6.24217 5.86806C6.29664 5.91344 6.29664 6.00428 6.25126 6.04975L6.25107 6.04966Z" fill="#F3F3F3"/>
<path d="M6.25109 6.06031C6.22444 6.08648 6.18859 6.10114 6.15124 6.10114C6.1139 6.10114 6.07804 6.08648 6.0514 6.06031L4.70712 4.72512C4.68089 4.69847 4.6662 4.66258 4.6662 4.62519C4.6662 4.58779 4.68089 4.5519 4.70712 4.52525C4.73377 4.49905 4.76964 4.48438 4.80701 4.48438C4.84438 4.48438 4.88025 4.49905 4.9069 4.52525L6.25109 5.86034C6.31465 5.91481 6.31465 6.00565 6.25109 6.06012V6.06031ZM4.72549 4.54344C4.68002 4.5889 4.68002 4.67065 4.72549 4.71594L6.06959 6.05103C6.11506 6.0965 6.19671 6.0965 6.24209 6.05103C6.28756 6.00565 6.28756 5.9239 6.24209 5.87853L4.89799 4.53444C4.85262 4.48906 4.77987 4.48897 4.72549 4.54344Z" fill="white"/>
<path d="M6.16941 4.6954C6.11494 4.74087 6.03319 4.74087 5.98772 4.6863L5.43366 4.05058C5.38838 3.99612 5.39738 3.91437 5.45194 3.86899C5.50632 3.82352 5.58816 3.82352 5.63353 3.87799L6.1876 4.5138C6.23297 4.55918 6.22388 4.64093 6.16941 4.6954Z" fill="#F3F3F3"/>
<path d="M6.17852 4.70156C6.11495 4.75603 6.0332 4.74703 5.97864 4.69247L5.42467 4.05675C5.3702 4.00228 5.3793 3.91144 5.44286 3.85697C5.50642 3.80241 5.58817 3.8115 5.64264 3.86606L6.1967 4.50169C6.24208 4.56535 6.24208 4.65619 6.17852 4.70156ZM5.45195 3.87516C5.39739 3.92053 5.39739 3.99319 5.43377 4.04766L5.98783 4.68338C6.0332 4.72885 6.10586 4.73794 6.16033 4.69247C6.2148 4.6471 6.2148 4.57435 6.17852 4.51997L5.62445 3.88416C5.57908 3.82978 5.50633 3.82978 5.45195 3.87516Z" fill="white"/>
<path d="M7.47723 5.04097C7.41367 5.08635 7.33192 5.06816 7.29554 5.0046L6.23298 3.43335C6.1966 3.36979 6.21479 3.28804 6.26926 3.25175C6.33282 3.20638 6.41457 3.22457 6.45095 3.28813L7.50442 4.85929C7.54989 4.92285 7.5317 5.00469 7.47723 5.04097Z" fill="#F3F3F3"/>
<path d="M7.47723 5.05123C7.41367 5.0967 7.32282 5.07842 7.27736 5.01495L6.22389 3.4437C6.17851 3.38014 6.1967 3.28939 6.26926 3.24401C6.33282 3.19854 6.42367 3.21673 6.46914 3.28029L7.52261 4.85145C7.56798 4.92411 7.54979 5.00586 7.47723 5.05123ZM6.27826 3.26211C6.22379 3.29839 6.20561 3.37104 6.24198 3.42561L7.29545 4.99676C7.33182 5.05123 7.40448 5.06033 7.46795 5.02395C7.52251 4.98767 7.5407 4.91501 7.50432 4.86054L6.45095 3.29839C6.41457 3.24401 6.33282 3.22573 6.27845 3.26211H6.27826Z" fill="white"/>
<path d="M7.66793 3.69997C7.60437 3.73625 7.52262 3.71815 7.48634 3.65459L7.0685 2.91894C7.03222 2.85537 7.0594 2.77362 7.12306 2.73725C7.18662 2.70097 7.26837 2.71906 7.30465 2.78272L7.7224 3.51828C7.74968 3.58184 7.7314 3.66359 7.66793 3.69997Z" fill="#F3F3F3"/>
<path d="M7.66792 3.70906C7.59526 3.74534 7.51351 3.72725 7.47723 3.66359L7.05938 2.92803C7.0231 2.86437 7.04129 2.77362 7.11395 2.73725C7.1866 2.70097 7.26835 2.71906 7.30463 2.78272L7.72238 3.51828C7.75876 3.58184 7.74048 3.66359 7.66792 3.70906ZM7.12304 2.74634C7.06848 2.78262 7.04129 2.85528 7.07757 2.90984L7.49542 3.6455C7.5317 3.69987 7.60435 3.71815 7.65882 3.69087C7.71338 3.65459 7.74057 3.58184 7.70429 3.52737L7.28645 2.79172C7.25926 2.73734 7.17751 2.70997 7.12304 2.74634Z" fill="white"/>
<path d="M8.87578 4.29646C8.80322 4.32365 8.73047 4.29646 8.70328 4.2329L7.96762 2.47996C7.94044 2.4164 7.97672 2.33465 8.04028 2.30737C8.11294 2.28018 8.18559 2.30737 8.21278 2.37093L8.94844 4.12378C8.97572 4.18734 8.93944 4.26909 8.87578 4.29628V4.29646Z" fill="#F3F3F3"/>
<path d="M8.87581 4.30659C8.80325 4.33378 8.7215 4.30659 8.68512 4.23384L7.94947 2.48109C7.93627 2.44615 7.93747 2.40741 7.95279 2.37335C7.96812 2.33929 7.99632 2.3127 8.03122 2.2994C8.10387 2.27221 8.18562 2.2994 8.222 2.37206L8.95756 4.1249C8.98484 4.18846 8.94847 4.27021 8.87581 4.30659ZM8.0494 2.31759C7.98584 2.34478 7.95856 2.41753 7.98584 2.472L8.7214 4.22475C8.74859 4.28831 8.82125 4.3155 8.88481 4.28831C8.94837 4.26112 8.97575 4.18837 8.94837 4.1339L8.21281 2.38106C8.17643 2.3175 8.11287 2.29021 8.04931 2.3175L8.0494 2.31759Z" fill="white"/>
<path d="M9.32081 3.01086C9.24815 3.03805 9.1755 3.00168 9.14831 2.92911L8.88487 2.1298C8.85768 2.06624 8.90306 1.98449 8.96662 1.96639C9.03019 1.94821 9.11193 1.97549 9.13912 2.04814L9.40256 2.84736C9.42975 2.91093 9.39347 2.98368 9.32081 3.01086Z" fill="#F3F3F3"/>
<path d="M9.32995 3.01694C9.29502 3.03011 9.25631 3.02889 9.22227 3.01357C9.18823 2.99825 9.16166 2.97007 9.14836 2.93519L8.88492 2.13597C8.85773 2.06332 8.90311 1.98166 8.97586 1.95438C9.01078 1.94121 9.0495 1.94243 9.08354 1.95775C9.11757 1.97307 9.14415 2.00125 9.15745 2.03613L9.42079 2.83535C9.43898 2.908 9.40261 2.98975 9.32995 3.01694ZM8.97576 1.97257C8.9122 1.99066 8.87583 2.06332 8.89401 2.12688L9.15745 2.92619C9.17554 2.98975 9.2482 3.01694 9.31186 2.99875C9.37542 2.98066 9.4117 2.908 9.39351 2.84444L9.13017 2.04513C9.12554 2.02971 9.11772 2.01544 9.10721 2.00325C9.0967 1.99105 9.08374 1.98121 9.06917 1.97436C9.05461 1.9675 9.03876 1.96379 9.02267 1.96347C9.00658 1.96314 8.99059 1.96621 8.97576 1.97247V1.97257Z" fill="white"/>
<path d="M10.3926 3.83889C10.3199 3.85708 10.2472 3.8117 10.2381 3.73895L9.85667 1.87717C9.83849 1.80452 9.89305 1.74095 9.96561 1.72277C10.0384 1.70458 10.1109 1.74995 10.12 1.8227L10.5016 3.68458C10.5106 3.74805 10.4652 3.8207 10.3926 3.83889Z" fill="#F3F3F3"/>
<path d="M10.3925 3.84096C10.3108 3.85915 10.2381 3.80459 10.22 3.73193L9.83849 1.87015C9.8203 1.79749 9.87486 1.71574 9.94752 1.70665C10.0293 1.68846 10.1019 1.74303 10.12 1.81568L10.5016 3.67756C10.5197 3.75012 10.4743 3.82287 10.3925 3.84096ZM9.96571 1.72484C9.90205 1.73393 9.85667 1.79749 9.86577 1.87015L10.2472 3.73203C10.2563 3.79549 10.3289 3.84096 10.3925 3.82278C10.4561 3.81368 10.5015 3.75012 10.4924 3.67746L10.1109 1.81559C10.0928 1.75212 10.0294 1.71574 9.96571 1.72484Z" fill="white"/>
<path d="M11.0828 2.6535C11.0101 2.66259 10.9465 2.61722 10.9284 2.54456L10.8194 1.70897C10.8103 1.63631 10.8648 1.57275 10.9375 1.56365C11.0101 1.55456 11.0737 1.60003 11.0919 1.67268L11.2008 2.50818C11.2099 2.58084 11.1554 2.6444 11.0828 2.6535Z" fill="#F3F3F3"/>
<path d="M11.0828 2.66369C11.001 2.67279 10.9283 2.61832 10.9193 2.54557L10.8103 1.71007C10.8012 1.63741 10.8557 1.56476 10.9374 1.55566C11.0192 1.54666 11.0918 1.60113 11.1009 1.67379L11.2099 2.50929C11.219 2.58194 11.1645 2.6546 11.0828 2.66369ZM10.9465 1.57385C10.883 1.58294 10.8284 1.64651 10.8375 1.71007L10.9465 2.54566C10.9556 2.60922 11.0192 2.6546 11.0828 2.64551C11.1463 2.63651 11.2009 2.57285 11.1918 2.50929L11.0828 1.67379C11.0737 1.61022 11.0101 1.56476 10.9465 1.57385Z" fill="white"/>
<path d="M12.0637 22.5531C18.0025 22.5531 22.8168 17.7388 22.8168 11.8C22.8168 5.86121 18.0025 1.04688 12.0637 1.04688C6.12489 1.04688 1.31055 5.86121 1.31055 11.8C1.31055 17.7388 6.12489 22.5531 12.0637 22.5531Z" fill="url(#paint2_linear_894_27330)" fill-opacity="0.2"/>
<g filter="url(#filter1_d_894_27330)">
<path d="M19.5109 4.98438L10.8375 10.5426H10.8284V10.5516L10.8193 10.5607L5.40656 19.4884L13.3624 13.0856L13.3715 13.0766V13.0675L19.511 4.98447L19.5109 4.98438Z" fill="black" fill-opacity="0.05"/>
</g>
<path d="M19.3474 4.46875L10.7739 10.5628L13.3169 13.0876L19.3474 4.46875Z" fill="#CD151E"/>
<path d="M10.783 10.5447L12.0636 11.807L19.3474 4.46875L10.783 10.5447Z" fill="#FA5153"/>
<path d="M10.783 10.5392L13.326 13.0638L4.75256 19.158L10.783 10.5391V10.5392Z" fill="#ACACAC"/>
<path d="M4.75256 19.158L12.0636 11.8015L10.7829 10.5391L4.75256 19.158Z" fill="#EEEEEE"/>
</g>
<defs>
<filter id="filter0_d_894_27330" x="-38.6875" y="-19.3438" width="101.375" height="101.375" filterUnits="userSpaceOnUse" color-interpolation-filters="sRGB">
<feFlood flood-opacity="0" result="BackgroundImageFix"/>
<feColorMatrix in="SourceAlpha" type="matrix" values="0 0 0 0 0 0 0 0 0 0 0 0 0 0 0 0 0 0 127 0" result="hardAlpha"/>
<feOffset dy="19.5312"/>
<feGaussianBlur stdDeviation="19.5312"/>
<feColorMatrix type="matrix" values="0 0 0 0 0 0 0 0 0 0 0 0 0 0 0 0 0 0 0.266007 0"/>
<feBlend mode="normal" in2="BackgroundImageFix" result="effect1_dropShadow_894_27330"/>
<feBlend mode="normal" in="SourceGraphic" in2="effect1_dropShadow_894_27330" result="shape"/>
</filter>
<filter id="filter1_d_894_27330" x="-33.6559" y="-24.3125" width="92.2294" height="92.6328" filterUnits="userSpaceOnUse" color-interpolation-filters="sRGB">
<feFlood flood-opacity="0" result="BackgroundImageFix"/>
<feColorMatrix in="SourceAlpha" type="matrix" values="0 0 0 0 0 0 0 0 0 0 0 0 0 0 0 0 0 0 127 0" result="hardAlpha"/>
<feOffset dy="9.76562"/>
<feGaussianBlur stdDeviation="19.5312"/>
<feColorMatrix type="matrix" values="0 0 0 0 0 0 0 0 0 0 0 0 0 0 0 0 0 0 0.0509804 0"/>
<feBlend mode="normal" in2="BackgroundImageFix" result="effect1_dropShadow_894_27330"/>
<feBlend mode="normal" in="SourceGraphic" in2="effect1_dropShadow_894_27330" result="shape"/>
</filter>
<linearGradient id="paint0_linear_894_27330" x1="1162.88" y1="2325.19" x2="1162.88" y2="0.1875" gradientUnits="userSpaceOnUse">
<stop offset="0.25" stop-color="#DBDBDA"/>
<stop offset="1" stop-color="white"/>
</linearGradient>
<radialGradient id="paint1_radial_894_27330" cx="0" cy="0" r="1" gradientUnits="userSpaceOnUse" gradientTransform="translate(1227.64 840.172) scale(1312.57)">
<stop stop-color="#2ABCE1"/>
<stop offset="0.11363" stop-color="#2ABBE1"/>
<stop offset="1" stop-color="#3375F8"/>
</radialGradient>
<linearGradient id="paint2_linear_894_27330" x1="1056.19" y1="768.885" x2="554.301" y2="1669.33" gradientUnits="userSpaceOnUse">
<stop stop-opacity="0"/>
<stop offset="1"/>
</linearGradient>
<clipPath id="clip0_894_27330">
<rect width="24" height="24" fill="white"/>
</clipPath>
</defs>
</svg>
